<svg width="461" height="356" viewBox="0 0 461 356" fill="none" xmlns="http://www.w3.org/2000/svg">
<path d="M184.542 207.865C172.406 190.347 172.366 166.876 184.441 149.315L270.982 23.4542C278.846 12.0174 295.372 12.0173 303.236 23.4541L389.778 149.315C401.853 166.876 401.812 190.347 389.676 207.865L303.196 332.695C295.327 344.053 278.892 344.053 271.023 332.694L184.542 207.865Z" fill="#2E93AB"/>
<path d="M71.306 207.954C59.1721 190.435 59.1315 166.96 71.2049 149.396L157.716 23.543C165.579 12.1046 182.103 12.1046 189.966 23.543L276.477 149.396C288.551 166.96 288.51 190.435 276.376 207.954L189.925 332.777C182.057 344.137 165.625 344.137 157.757 332.777L71.306 207.954Z" fill="#43BCD8"/>
<path d="M254.925 309.425L230.534 274.324L270.82 216.27L254.925 309.425Z" fill="#1B7488"/>
</svg>
