<svg width="2433" height="556" viewBox="0 0 2433 556" fill="none" xmlns="http://www.w3.org/2000/svg">
<path d="M284.042 307.865C271.906 290.347 271.866 266.876 283.941 249.315L370.482 123.454C378.346 112.017 394.872 112.017 402.736 123.454L489.278 249.315C501.353 266.876 501.312 290.347 489.176 307.865L402.696 432.694C394.827 444.053 378.392 444.053 370.523 432.694L284.042 307.865Z" fill="#2E93AB"/>
<path d="M170.806 307.954C158.672 290.435 158.632 266.96 170.705 249.396L257.216 123.543C265.079 112.105 281.603 112.105 289.466 123.543L375.977 249.396C388.051 266.96 388.01 290.435 375.876 307.954L289.425 432.777C281.557 444.137 265.125 444.137 257.257 432.777L170.806 307.954Z" fill="#43BCD8"/>
<path d="M354.425 409.425L330.034 374.324L370.32 316.27L354.425 409.425Z" fill="#1B7488"/>
<path d="M796.465 381.5H744.902L718.535 275.885C718.145 274.42 717.656 272.369 717.07 269.732C716.582 267.096 715.996 264.117 715.312 260.797C714.629 257.477 713.945 254.01 713.262 250.396C712.578 246.783 711.943 243.268 711.357 239.85C710.771 236.432 710.234 233.307 709.746 230.475C709.355 227.545 709.062 225.201 708.867 223.443C708.672 225.201 708.33 227.545 707.842 230.475C707.451 233.307 706.963 236.432 706.377 239.85C705.791 243.17 705.156 246.637 704.473 250.25C703.887 253.863 703.252 257.33 702.568 260.65C701.982 263.971 701.396 266.998 700.811 269.732C700.225 272.467 699.736 274.615 699.346 276.178L673.271 381.5H621.562L570 167.34H614.678L638.994 284.234C639.287 285.797 639.678 288.092 640.166 291.119C640.752 294.049 641.387 297.369 642.07 301.08C642.754 304.791 643.438 308.697 644.121 312.799C644.902 316.9 645.635 320.904 646.318 324.811C647.002 328.717 647.637 332.379 648.223 335.797C648.809 339.117 649.248 341.852 649.541 344C649.834 341.852 650.225 339.117 650.713 335.797C651.299 332.477 651.885 328.961 652.471 325.25C653.057 321.441 653.691 317.535 654.375 313.531C655.156 309.527 655.84 305.816 656.426 302.398C657.012 298.883 657.549 295.807 658.037 293.17C658.623 290.436 659.062 288.482 659.355 287.311L689.092 167.34H728.936L758.672 287.311C758.965 288.482 759.355 290.436 759.844 293.17C760.43 295.807 761.016 298.883 761.602 302.398C762.285 305.816 762.969 309.527 763.652 313.531C764.336 317.535 764.971 321.441 765.557 325.25C766.24 328.961 766.826 332.477 767.314 335.797C767.9 339.117 768.34 341.852 768.633 344C768.926 341.852 769.316 339.117 769.805 335.797C770.391 332.379 771.025 328.717 771.709 324.811C772.393 320.904 773.076 316.9 773.76 312.799C774.541 308.697 775.273 304.791 775.957 301.08C776.641 297.369 777.227 294.049 777.715 291.119C778.301 288.092 778.74 285.797 779.033 284.234L803.35 167.34H848.027L796.465 381.5ZM960.381 381.5L951.738 359.234H950.42C947.197 363.629 943.975 367.438 940.752 370.66C937.529 373.785 934.014 376.373 930.205 378.424C926.396 380.475 922.1 381.988 917.314 382.965C912.627 383.941 907.158 384.43 900.908 384.43C894.268 384.43 888.115 383.404 882.451 381.354C876.787 379.205 871.855 376.031 867.656 371.832C863.555 367.535 860.332 362.164 857.988 355.719C855.645 349.176 854.473 341.461 854.473 332.574C854.473 315.191 860.039 302.398 871.172 294.195C882.305 285.895 898.955 281.305 921.123 280.426L947.197 279.547V267.242C947.197 260.504 945.244 255.523 941.338 252.301C937.432 249.078 931.963 247.467 924.932 247.467C917.9 247.467 911.016 248.492 904.277 250.543C897.637 252.594 890.947 255.328 884.209 258.746L869.707 229.156C877.91 224.566 886.992 220.953 896.953 218.316C906.914 215.68 917.363 214.361 928.301 214.361C948.711 214.361 964.336 219.146 975.176 228.717C986.113 238.287 991.582 252.838 991.582 272.369V381.5H960.381ZM947.197 305.621L932.402 306.207C926.445 306.402 921.416 307.184 917.314 308.551C913.213 309.918 909.893 311.773 907.354 314.117C904.912 316.363 903.105 319.098 901.934 322.32C900.859 325.445 900.322 328.961 900.322 332.867C900.322 339.703 901.982 344.586 905.303 347.516C908.623 350.348 912.969 351.764 918.34 351.764C922.441 351.764 926.25 351.08 929.766 349.713C933.281 348.248 936.309 346.148 938.848 343.414C941.484 340.582 943.535 337.164 945 333.16C946.465 329.059 947.197 324.371 947.197 319.098V305.621ZM1082.26 381.5H1037.58V153.57H1082.26V381.5ZM1173.96 381.5H1129.28V153.57H1173.96V381.5ZM1287.19 246.441C1279.28 246.441 1272.69 249.225 1267.41 254.791C1262.24 260.357 1259.26 269.098 1258.48 281.012H1315.46C1315.36 276.031 1314.73 271.441 1313.55 267.242C1312.38 263.043 1310.62 259.43 1308.28 256.402C1305.94 253.277 1303.01 250.836 1299.49 249.078C1295.98 247.32 1291.88 246.441 1287.19 246.441ZM1292.9 384.43C1281.18 384.43 1270.39 382.721 1260.53 379.303C1250.66 375.885 1242.17 370.758 1235.04 363.922C1227.91 356.988 1222.34 348.297 1218.34 337.848C1214.43 327.301 1212.48 314.947 1212.48 300.787C1212.48 286.432 1214.29 273.883 1217.9 263.141C1221.51 252.398 1226.54 243.463 1232.99 236.334C1239.53 229.107 1247.34 223.688 1256.43 220.074C1265.61 216.461 1275.76 214.654 1286.89 214.654C1297.73 214.654 1307.5 216.314 1316.19 219.635C1324.98 222.857 1332.4 227.643 1338.46 233.99C1344.61 240.338 1349.3 248.15 1352.52 257.428C1355.84 266.607 1357.5 277.154 1357.5 289.068V310.748H1257.6C1257.79 316.998 1258.77 322.662 1260.53 327.74C1262.38 332.721 1264.92 336.969 1268.14 340.484C1271.46 343.902 1275.42 346.539 1280.01 348.395C1284.7 350.25 1290.02 351.178 1295.98 351.178C1300.96 351.178 1305.64 350.934 1310.04 350.445C1314.53 349.859 1318.88 349.029 1323.08 347.955C1327.28 346.881 1331.43 345.562 1335.53 344C1339.63 342.34 1343.83 340.436 1348.12 338.287V372.857C1344.22 374.908 1340.26 376.666 1336.26 378.131C1332.35 379.498 1328.2 380.67 1323.81 381.646C1319.41 382.623 1314.68 383.307 1309.6 383.697C1304.52 384.186 1298.96 384.43 1292.9 384.43ZM1461.8 348.834C1466.19 348.834 1470.34 348.346 1474.25 347.369C1478.25 346.393 1482.3 345.172 1486.41 343.707V376.959C1482.21 379.107 1476.98 380.865 1470.73 382.232C1464.58 383.697 1457.84 384.43 1450.52 384.43C1443.39 384.43 1436.75 383.6 1430.6 381.939C1424.44 380.279 1419.12 377.398 1414.63 373.297C1410.14 369.098 1406.57 363.531 1403.94 356.598C1401.4 349.566 1400.13 340.777 1400.13 330.23V251.275H1378.74V232.379L1403.35 217.438L1416.24 182.867H1444.8V217.73H1484.65V251.275H1444.8V330.23C1444.8 336.578 1446.37 341.266 1449.49 344.293C1452.62 347.32 1456.72 348.834 1461.8 348.834ZM1640.36 322.027C1640.36 331.598 1638.7 340.24 1635.38 347.955C1632.16 355.572 1627.37 362.115 1621.03 367.584C1614.78 372.955 1607.06 377.105 1597.88 380.035C1588.8 382.965 1578.35 384.43 1566.53 384.43C1556.18 384.43 1546.17 383.355 1536.5 381.207C1526.93 379.059 1518.05 375.836 1509.84 371.539V329.352C1514.53 331.598 1519.27 333.795 1524.05 335.943C1528.84 337.994 1533.67 339.85 1538.55 341.51C1543.54 343.17 1548.47 344.488 1553.35 345.465C1558.33 346.441 1563.26 346.93 1568.14 346.93C1573.12 346.93 1577.37 346.393 1580.89 345.318C1584.5 344.146 1587.38 342.584 1589.53 340.631C1591.78 338.58 1593.39 336.188 1594.37 333.453C1595.44 330.621 1595.98 327.545 1595.98 324.225C1595.98 320.221 1595.1 316.705 1593.34 313.678C1591.68 310.553 1589.29 307.672 1586.16 305.035C1583.13 302.301 1579.42 299.664 1575.03 297.125C1570.73 294.586 1565.9 291.9 1560.53 289.068C1556.04 286.725 1551.01 283.893 1545.44 280.572C1539.87 277.252 1534.6 273.15 1529.62 268.268C1524.74 263.287 1520.63 257.33 1517.31 250.396C1513.99 243.365 1512.33 234.967 1512.33 225.201C1512.33 215.631 1513.9 207.086 1517.02 199.566C1520.24 191.949 1524.79 185.553 1530.64 180.377C1536.5 175.104 1543.58 171.1 1551.88 168.365C1560.28 165.631 1569.66 164.264 1580.01 164.264C1585.19 164.264 1590.21 164.605 1595.1 165.289C1600.08 165.973 1604.96 166.949 1609.75 168.219C1614.63 169.488 1619.51 171.051 1624.39 172.906C1629.28 174.762 1634.31 176.91 1639.48 179.352L1624.83 214.654C1620.44 212.604 1616.34 210.797 1612.53 209.234C1608.72 207.672 1605.01 206.354 1601.4 205.279C1597.78 204.205 1594.22 203.424 1590.7 202.936C1587.29 202.35 1583.82 202.057 1580.3 202.057C1572.69 202.057 1566.83 204.107 1562.72 208.209C1558.72 212.213 1556.72 217.584 1556.72 224.322C1556.72 227.936 1557.3 231.158 1558.48 233.99C1559.75 236.725 1561.7 239.312 1564.34 241.754C1567.07 244.195 1570.54 246.686 1574.74 249.225C1579.03 251.764 1584.21 254.645 1590.26 257.867C1597.59 261.773 1604.33 265.777 1610.48 269.879C1616.63 273.883 1621.9 278.375 1626.3 283.355C1630.79 288.238 1634.26 293.805 1636.7 300.055C1639.14 306.305 1640.36 313.629 1640.36 322.027ZM1762.97 384.43C1757.6 384.43 1752.76 383.844 1748.47 382.672C1744.27 381.5 1740.51 379.938 1737.19 377.984C1733.87 376.031 1730.94 373.834 1728.4 371.393C1725.86 368.854 1723.56 366.217 1721.51 363.482H1719.17C1719.56 366.9 1719.95 370.123 1720.34 373.15C1720.63 375.689 1720.88 378.326 1721.07 381.061C1721.37 383.697 1721.51 385.748 1721.51 387.213V453.57H1676.84V217.73H1713.16L1719.46 238.971H1721.51C1723.56 235.65 1725.91 232.525 1728.54 229.596C1731.18 226.666 1734.21 224.127 1737.63 221.979C1741.14 219.732 1745.1 217.975 1749.49 216.705C1753.89 215.338 1758.77 214.654 1764.14 214.654C1772.64 214.654 1780.35 216.461 1787.29 220.074C1794.22 223.688 1800.18 229.059 1805.16 236.188C1810.14 243.316 1813.99 252.154 1816.73 262.701C1819.46 273.248 1820.83 285.455 1820.83 299.322C1820.83 313.287 1819.41 325.592 1816.58 336.236C1813.75 346.783 1809.75 355.67 1804.57 362.896C1799.49 370.025 1793.39 375.396 1786.26 379.01C1779.23 382.623 1771.46 384.43 1762.97 384.43ZM1749.05 250.396C1744.07 250.396 1739.82 251.324 1736.31 253.18C1732.89 254.938 1730.11 257.623 1727.96 261.236C1725.81 264.85 1724.25 269.439 1723.27 275.006C1722.29 280.475 1721.71 286.871 1721.51 294.195V299.029C1721.51 306.939 1721.95 313.971 1722.83 320.123C1723.81 326.275 1725.37 331.451 1727.52 335.65C1729.67 339.752 1732.5 342.877 1736.02 345.025C1739.63 347.174 1744.07 348.248 1749.35 348.248C1758.23 348.248 1764.73 344.049 1768.83 335.65C1773.03 327.154 1775.13 314.85 1775.13 298.736C1775.13 282.623 1773.03 270.562 1768.83 262.555C1764.73 254.449 1758.13 250.396 1749.05 250.396ZM1954.42 381.5L1945.78 359.234H1944.46C1941.24 363.629 1938.02 367.438 1934.79 370.66C1931.57 373.785 1928.06 376.373 1924.25 378.424C1920.44 380.475 1916.14 381.988 1911.36 382.965C1906.67 383.941 1901.2 384.43 1894.95 384.43C1888.31 384.43 1882.16 383.404 1876.49 381.354C1870.83 379.205 1865.9 376.031 1861.7 371.832C1857.6 367.535 1854.38 362.164 1852.03 355.719C1849.69 349.176 1848.52 341.461 1848.52 332.574C1848.52 315.191 1854.08 302.398 1865.21 294.195C1876.35 285.895 1893 281.305 1915.17 280.426L1941.24 279.547V267.242C1941.24 260.504 1939.29 255.523 1935.38 252.301C1931.47 249.078 1926.01 247.467 1918.97 247.467C1911.94 247.467 1905.06 248.492 1898.32 250.543C1891.68 252.594 1884.99 255.328 1878.25 258.746L1863.75 229.156C1871.95 224.566 1881.04 220.953 1891 218.316C1900.96 215.68 1911.41 214.361 1922.34 214.361C1942.75 214.361 1958.38 219.146 1969.22 228.717C1980.16 238.287 1985.62 252.838 1985.62 272.369V381.5H1954.42ZM1941.24 305.621L1926.45 306.207C1920.49 306.402 1915.46 307.184 1911.36 308.551C1907.26 309.918 1903.94 311.773 1901.4 314.117C1898.96 316.363 1897.15 319.098 1895.98 322.32C1894.9 325.445 1894.37 328.961 1894.37 332.867C1894.37 339.703 1896.03 344.586 1899.35 347.516C1902.67 350.348 1907.01 351.764 1912.38 351.764C1916.48 351.764 1920.29 351.08 1923.81 349.713C1927.32 348.248 1930.35 346.148 1932.89 343.414C1935.53 340.582 1937.58 337.164 1939.04 333.16C1940.51 329.059 1941.24 324.371 1941.24 319.098V305.621ZM2099.74 384.43C2088.02 384.43 2077.42 382.818 2067.95 379.596C2058.57 376.373 2050.52 371.393 2043.78 364.654C2037.14 357.818 2032.01 349.127 2028.4 338.58C2024.88 327.936 2023.12 315.24 2023.12 300.494C2023.12 284.186 2024.93 270.562 2028.54 259.625C2032.26 248.59 2037.43 239.752 2044.07 233.111C2050.81 226.471 2058.87 221.734 2068.24 218.902C2077.71 216.07 2088.21 214.654 2099.74 214.654C2108.13 214.654 2116.48 215.68 2124.79 217.73C2133.09 219.781 2140.9 222.662 2148.22 226.373L2135.33 260.357C2128.89 257.525 2122.69 255.23 2116.73 253.473C2110.77 251.617 2105.11 250.689 2099.74 250.689C2088.9 250.689 2081.04 254.84 2076.15 263.141C2071.27 271.344 2068.83 283.697 2068.83 300.201C2068.83 316.607 2071.27 328.717 2076.15 336.529C2081.04 344.342 2088.7 348.248 2099.15 348.248C2107.65 348.248 2115.36 347.174 2122.29 345.025C2129.23 342.779 2136.31 339.947 2143.54 336.529V373.736C2139.92 375.494 2136.41 377.057 2132.99 378.424C2129.57 379.791 2126.1 380.914 2122.59 381.793C2119.17 382.672 2115.56 383.307 2111.75 383.697C2108.04 384.186 2104.03 384.43 2099.74 384.43ZM2247.54 246.441C2239.63 246.441 2233.04 249.225 2227.76 254.791C2222.59 260.357 2219.61 269.098 2218.83 281.012H2275.81C2275.71 276.031 2275.08 271.441 2273.91 267.242C2272.73 263.043 2270.98 259.43 2268.63 256.402C2266.29 253.277 2263.36 250.836 2259.84 249.078C2256.33 247.32 2252.23 246.441 2247.54 246.441ZM2253.25 384.43C2241.53 384.43 2230.74 382.721 2220.88 379.303C2211.02 375.885 2202.52 370.758 2195.39 363.922C2188.26 356.988 2182.7 348.297 2178.69 337.848C2174.79 327.301 2172.83 314.947 2172.83 300.787C2172.83 286.432 2174.64 273.883 2178.25 263.141C2181.87 252.398 2186.89 243.463 2193.34 236.334C2199.88 229.107 2207.7 223.688 2216.78 220.074C2225.96 216.461 2236.11 214.654 2247.25 214.654C2258.09 214.654 2267.85 216.314 2276.54 219.635C2285.33 222.857 2292.75 227.643 2298.81 233.99C2304.96 240.338 2309.65 248.15 2312.87 257.428C2316.19 266.607 2317.85 277.154 2317.85 289.068V310.748H2217.95C2218.14 316.998 2219.12 322.662 2220.88 327.74C2222.73 332.721 2225.27 336.969 2228.5 340.484C2231.82 343.902 2235.77 346.539 2240.36 348.395C2245.05 350.25 2250.37 351.178 2256.33 351.178C2261.31 351.178 2266 350.934 2270.39 350.445C2274.88 349.859 2279.23 349.029 2283.43 347.955C2287.63 346.881 2291.78 345.562 2295.88 344C2299.98 342.34 2304.18 340.436 2308.48 338.287V372.857C2304.57 374.908 2300.62 376.666 2296.61 378.131C2292.71 379.498 2288.55 380.67 2284.16 381.646C2279.77 382.623 2275.03 383.307 2269.95 383.697C2264.87 384.186 2259.31 384.43 2253.25 384.43Z" fill="white"/>
</svg>
