<svg width="3365" height="2034" viewBox="0 0 3365 2034" fill="none" xmlns="http://www.w3.org/2000/svg">
<g clip-path="url(#clip0_120_2832)">
<rect width="3365" height="2034" fill="gray"/>
<path d="M3373.51 451.571C3373.51 430.277 3386.82 410.973 3406.73 403.404L3510.01 364.125C3522.96 359.199 3536.54 368.563 3536.54 382.42L3536.54 493.487C3536.54 514.788 3523.22 534.095 3503.31 541.66L3400.04 580.9C3387.09 585.82 3373.51 576.456 3373.51 562.602L3373.51 451.571Z" fill="#ffffff" tag='rightPanel' />
<path d="M3370.51 975.571C3370.51 954.277 3383.82 934.973 3403.72 927.404L3507.01 888.124C3519.96 883.199 3533.54 892.563 3533.54 906.42L3533.54 1017.49C3533.54 1038.79 3520.22 1058.1 3500.31 1065.66L3397.03 1104.9C3384.08 1109.82 3370.51 1100.46 3370.51 1086.6L3370.51 975.571Z" fill="#ffffff" tag='rightPanel' />
<path d="M3368.51 1499.57C3368.51 1478.28 3381.82 1458.97 3401.72 1451.41L3505.01 1412.13C3517.96 1407.2 3531.54 1416.56 3531.54 1430.42L3531.54 1541.49C3531.54 1562.79 3518.22 1582.1 3498.31 1589.66L3395.03 1628.9C3382.08 1633.82 3368.51 1624.46 3368.51 1610.6L3368.51 1499.57Z" fill="#ffffff" tag='rightPanel' />
<path d="M3366.51 2023.57C3366.51 2002.28 3379.82 1982.97 3399.72 1975.4L3503.01 1936.12C3515.96 1931.2 3529.53 1940.56 3529.53 1954.42L3529.53 2065.49C3529.53 2086.79 3516.22 2106.09 3496.31 2113.66L3393.03 2152.9C3380.08 2157.82 3366.51 2148.46 3366.51 2134.6L3366.51 2023.57Z" fill="#ffffff" tag='rightPanel' />
<path d="M1286.85 194.699C1267.59 186.8 1254.86 167.818 1254.86 146.984L1254.86 34.0519C1254.86 19.9695 1268.82 10.5917 1281.85 15.9286L1379.9 56.1083C1399.17 64.0052 1411.91 82.9894 1411.91 103.827L1411.91 216.783C1411.91 230.867 1397.94 240.245 1384.91 234.905L1286.85 194.699Z" fill="#ffffff" tag='leftPanel' />
<path d="M1426.93 108.571C1426.93 87.2767 1440.24 67.9731 1460.15 60.4041L1563.43 21.1243C1576.38 16.1988 1589.96 25.5627 1589.96 39.4201L1589.96 150.487C1589.96 171.787 1576.64 191.095 1556.73 198.66L1453.46 237.899C1440.51 242.82 1426.93 233.456 1426.93 219.601L1426.93 108.571Z" fill="#ffffff" tag='rightPanel' />
<path d="M1443.63 50.4092C1431.32 55.0944 1417.61 54.9092 1405.45 49.8931L1299.4 6.17299C1291.02 2.71825 1291.22 -8.91281 1299.71 -12.1138L1409.87 -53.6351C1422.09 -58.244 1435.67 -58.0606 1447.76 -53.1234L1553.91 -9.73996C1562.3 -6.31092 1562.15 5.32078 1553.66 8.54769L1443.63 50.4092Z" fill="#ffffff" tag='topPanel' />
<path d="M1462.91 456.699C1443.64 448.8 1430.91 429.818 1430.91 408.984L1430.91 296.052C1430.91 281.969 1444.88 272.592 1457.9 277.929L1555.95 318.108C1575.23 326.005 1587.96 344.989 1587.96 365.827L1587.96 478.783C1587.96 492.867 1573.99 502.245 1560.97 496.905L1462.91 456.699Z" fill="#ffffff" tag='leftPanel' />
<path d="M1602.99 370.571C1602.99 349.277 1616.3 329.973 1636.2 322.404L1739.48 283.124C1752.43 278.199 1766.01 287.563 1766.01 301.42L1766.01 412.487C1766.01 433.787 1752.69 453.095 1732.78 460.66L1629.51 499.899C1616.56 504.82 1602.99 495.456 1602.99 481.601L1602.99 370.571Z" fill="#ffffff" tag='rightPanel' />
<path d="M1619.68 312.409C1607.37 317.094 1593.66 316.909 1581.5 311.893L1475.45 268.173C1467.07 264.718 1467.27 253.087 1475.76 249.886L1585.92 208.365C1598.15 203.756 1611.73 203.939 1623.81 208.877L1729.97 252.26C1738.36 255.689 1738.2 267.321 1729.72 270.548L1619.68 312.409Z" fill="#ffffff" tag='topPanel' />
<path d="M931.748 194.699C912.481 186.8 899.754 167.818 899.754 146.984L899.754 34.0519C899.754 19.9695 913.719 10.5917 926.743 15.9286L1024.8 56.1083C1044.07 64.0052 1056.8 82.9894 1056.8 103.827L1056.8 216.783C1056.8 230.867 1042.83 240.245 1029.81 234.905L931.748 194.699Z" fill="#ffffff" tag='leftPanel' />
<path d="M1071.83 108.571C1071.83 87.2767 1085.14 67.9731 1105.04 60.4041L1208.32 21.1243C1221.28 16.1988 1234.85 25.5627 1234.85 39.4201L1234.85 150.487C1234.85 171.787 1221.54 191.095 1201.63 198.66L1098.35 237.899C1085.4 242.82 1071.83 233.456 1071.83 219.601L1071.83 108.571Z" fill="#ffffff" tag='rightPanel' />
<path d="M1088.53 50.4092C1076.21 55.0944 1062.51 54.9092 1050.34 49.8931L944.297 6.17299C935.917 2.71825 936.114 -8.91281 944.606 -12.1138L1054.76 -53.6351C1066.99 -58.244 1080.57 -58.0606 1092.65 -53.1234L1198.81 -9.73996C1207.2 -6.31092 1207.04 5.32078 1198.56 8.54769L1088.53 50.4092Z" fill="#ffffff" tag='topPanel' />
<path d="M1108.8 456.699C1089.53 448.8 1076.81 429.818 1076.81 408.984L1076.81 296.052C1076.81 281.969 1090.77 272.592 1103.8 277.929L1201.85 318.108C1221.12 326.005 1233.85 344.989 1233.85 365.827L1233.85 478.783C1233.85 492.867 1219.88 502.245 1206.86 496.905L1108.8 456.699Z" fill="#ffffff" tag='leftPanel' />
<path d="M1248.88 370.571C1248.88 349.277 1262.19 329.973 1282.09 322.404L1385.38 283.124C1398.33 278.199 1411.91 287.563 1411.91 301.42L1411.91 412.487C1411.91 433.787 1398.59 453.095 1378.68 460.66L1275.4 499.899C1262.45 504.82 1248.88 495.456 1248.88 481.601L1248.88 370.571Z" fill="#ffffff" tag='rightPanel' />
<path d="M1265.58 312.409C1253.26 317.094 1239.56 316.909 1227.39 311.893L1121.35 268.173C1112.97 264.718 1113.17 253.087 1121.66 249.886L1231.81 208.365C1244.04 203.756 1257.62 203.939 1269.7 208.877L1375.86 252.26C1384.25 255.689 1384.09 267.321 1375.61 270.548L1265.58 312.409Z" fill="#ffffff" tag='topPanel' />
<path d="M1638.96 718.699C1619.69 710.8 1606.96 691.818 1606.96 670.984L1606.96 558.052C1606.96 543.97 1620.93 534.592 1633.95 539.929L1732.01 580.108C1751.28 588.005 1764.01 606.989 1764.01 627.827L1764.01 740.783C1764.01 754.867 1750.04 764.245 1737.02 758.905L1638.96 718.699Z" fill="#ffffff" tag='leftPanel' />
<path d="M1779.04 632.571C1779.04 611.277 1792.35 591.973 1812.25 584.404L1915.53 545.124C1928.49 540.199 1942.06 549.563 1942.06 563.42L1942.06 674.487C1942.06 695.787 1928.75 715.095 1908.84 722.66L1805.56 761.899C1792.61 766.82 1779.04 757.456 1779.04 743.601L1779.04 632.571Z" fill="#ffffff" tag='rightPanel' />
<path d="M1795.74 574.409C1783.42 579.094 1769.72 578.909 1757.55 573.893L1651.51 530.173C1643.13 526.718 1643.32 515.087 1651.82 511.886L1761.97 470.365C1774.2 465.756 1787.78 465.939 1799.86 470.877L1906.02 514.26C1914.41 517.689 1914.25 529.321 1905.77 532.548L1795.74 574.409Z" fill="#ffffff" tag='topPanel' />
<path d="M1284.85 718.699C1265.59 710.8 1252.86 691.818 1252.86 670.984L1252.86 558.052C1252.86 543.97 1266.82 534.592 1279.85 539.929L1377.9 580.108C1397.17 588.005 1409.9 606.989 1409.9 627.827L1409.9 740.783C1409.9 754.867 1395.94 764.245 1382.91 758.905L1284.85 718.699Z" fill="#ffffff" tag='leftPanel' />
<path d="M1424.93 632.571C1424.93 611.277 1438.24 591.973 1458.15 584.404L1561.43 545.124C1574.38 540.199 1587.96 549.563 1587.96 563.42L1587.96 674.487C1587.96 695.787 1574.64 715.095 1554.73 722.66L1451.46 761.899C1438.51 766.82 1424.93 757.456 1424.93 743.601L1424.93 632.571Z" fill="#ffffff" tag='rightPanel' />
<path d="M1441.63 574.409C1429.31 579.094 1415.61 578.909 1403.45 573.893L1297.4 530.173C1289.02 526.718 1289.22 515.087 1297.71 511.886L1407.87 470.365C1420.09 465.756 1433.67 465.939 1445.75 470.877L1551.91 514.26C1560.3 517.689 1560.14 529.321 1551.66 532.548L1441.63 574.409Z" fill="#ffffff" tag='topPanel' />
<path d="M1816.01 980.699C1796.74 972.8 1784.02 953.818 1784.02 932.984L1784.02 820.052C1784.02 805.97 1797.98 796.592 1811.01 801.929L1909.06 842.108C1928.33 850.005 1941.06 868.989 1941.06 889.827L1941.06 1002.78C1941.06 1016.87 1927.09 1026.24 1914.07 1020.9L1816.01 980.699Z" fill="#ffffff" tag='leftPanel' />
<path d="M1956.09 894.571C1956.09 873.277 1969.4 853.973 1989.3 846.404L2092.59 807.124C2105.54 802.199 2119.12 811.563 2119.12 825.42L2119.12 936.487C2119.12 957.787 2105.8 977.095 2085.89 984.66L1982.61 1023.9C1969.66 1028.82 1956.09 1019.46 1956.09 1005.6L1956.09 894.571Z" fill="#ffffff" tag='rightPanel' />
<path d="M1972.79 836.409C1960.47 841.094 1946.77 840.909 1934.6 835.893L1828.56 792.173C1820.18 788.718 1820.38 777.087 1828.87 773.886L1939.02 732.365C1951.25 727.756 1964.83 727.939 1976.91 732.877L2083.07 776.26C2091.46 779.689 2091.3 791.321 2082.82 794.548L1972.79 836.409Z" fill="#ffffff" tag='topPanel' />
<path d="M1461.91 980.699C1442.64 972.8 1429.91 953.818 1429.91 932.984L1429.91 820.052C1429.91 805.97 1443.88 796.592 1456.9 801.929L1554.95 842.108C1574.23 850.005 1586.96 868.989 1586.96 889.827L1586.96 1002.78C1586.96 1016.87 1572.99 1026.24 1559.96 1020.9L1461.91 980.699Z" fill="#ffffff" tag='leftPanel' />
<path d="M1601.99 894.571C1601.99 873.277 1615.3 853.973 1635.2 846.404L1738.48 807.124C1751.43 802.199 1765.01 811.563 1765.01 825.42L1765.01 936.487C1765.01 957.787 1751.69 977.095 1731.78 984.66L1628.51 1023.9C1615.56 1028.82 1601.99 1019.46 1601.99 1005.6L1601.99 894.571Z" fill="#ffffff" tag='rightPanel' />
<path d="M1618.68 836.409C1606.37 841.094 1592.66 840.909 1580.5 835.893L1474.45 792.173C1466.07 788.718 1466.27 777.087 1474.76 773.886L1584.92 732.365C1597.15 727.756 1610.73 727.939 1622.81 732.877L1728.97 776.26C1737.36 779.689 1737.2 791.321 1728.72 794.548L1618.68 836.409Z" fill="#ffffff" tag='topPanel' />
<path d="M1992.06 1242.7C1972.8 1234.8 1960.07 1215.82 1960.07 1194.98L1960.07 1082.05C1960.07 1067.97 1974.03 1058.59 1987.06 1063.93L2085.11 1104.11C2104.38 1112.01 2117.12 1130.99 2117.12 1151.83L2117.12 1264.78C2117.12 1278.87 2103.15 1288.24 2090.12 1282.9L1992.06 1242.7Z" fill="#ffffff" tag='leftPanel' />
<path d="M2132.14 1156.57C2132.14 1135.28 2145.45 1115.97 2165.36 1108.4L2268.64 1069.12C2281.59 1064.2 2295.17 1073.56 2295.17 1087.42L2295.17 1198.49C2295.17 1219.79 2281.85 1239.1 2261.94 1246.66L2158.67 1285.9C2145.72 1290.82 2132.14 1281.46 2132.14 1267.6L2132.14 1156.57Z" fill="#ffffff" tag='rightPanel' />
<path d="M2148.84 1098.41C2136.53 1103.09 2122.82 1102.91 2110.66 1097.89L2004.61 1054.17C1996.23 1050.72 1996.43 1039.09 2004.92 1035.89L2115.08 994.365C2127.3 989.756 2140.88 989.939 2152.96 994.877L2259.12 1038.26C2267.51 1041.69 2267.35 1053.32 2258.87 1056.55L2148.84 1098.41Z" fill="#ffffff" tag='topPanel' />
<path d="M1637.96 1242.7C1618.69 1234.8 1605.96 1215.82 1605.96 1194.98L1605.96 1082.05C1605.96 1067.97 1619.93 1058.59 1632.95 1063.93L1731.01 1104.11C1750.28 1112.01 1763.01 1130.99 1763.01 1151.83L1763.01 1264.78C1763.01 1278.87 1749.04 1288.24 1736.02 1282.9L1637.96 1242.7Z" fill="#ffffff" tag='leftPanel' />
<path d="M1778.04 1156.57C1778.04 1135.28 1791.35 1115.97 1811.25 1108.4L1914.53 1069.12C1927.49 1064.2 1941.06 1073.56 1941.06 1087.42L1941.06 1198.49C1941.06 1219.79 1927.75 1239.1 1907.84 1246.66L1804.56 1285.9C1791.61 1290.82 1778.04 1281.46 1778.04 1267.6L1778.04 1156.57Z" fill="#ffffff" tag='rightPanel' />
<path d="M1794.73 1098.41C1782.42 1103.09 1768.72 1102.91 1756.55 1097.89L1650.51 1054.17C1642.13 1050.72 1642.32 1039.09 1650.82 1035.89L1760.97 994.365C1773.2 989.756 1786.78 989.939 1798.86 994.877L1905.02 1038.26C1913.41 1041.69 1913.25 1053.32 1904.77 1056.55L1794.73 1098.41Z" fill="#ffffff" tag='topPanel' />
<path d="M2168.11 1504.7C2148.85 1496.8 2136.12 1477.82 2136.12 1456.98L2136.12 1344.05C2136.12 1329.97 2150.09 1320.59 2163.11 1325.93L2261.16 1366.11C2280.44 1374.01 2293.17 1392.99 2293.17 1413.83L2293.17 1526.78C2293.17 1540.87 2279.2 1550.24 2266.17 1544.9L2168.11 1504.7Z" fill="#ffffff" tag='leftPanel' />
<path d="M2308.2 1418.57C2308.2 1397.28 2321.51 1377.97 2341.41 1370.4L2444.69 1331.12C2457.64 1326.2 2471.22 1335.56 2471.22 1349.42L2471.22 1460.49C2471.22 1481.79 2457.9 1501.1 2437.99 1508.66L2334.72 1547.9C2321.77 1552.82 2308.2 1543.46 2308.2 1529.6L2308.2 1418.57Z" fill="#ffffff" tag='rightPanel' />
<path d="M2324.89 1360.41C2312.58 1365.09 2298.87 1364.91 2286.71 1359.89L2180.66 1316.17C2172.28 1312.72 2172.48 1301.09 2180.97 1297.89L2291.13 1256.36C2303.35 1251.76 2316.94 1251.94 2329.02 1256.88L2435.18 1300.26C2443.57 1303.69 2443.41 1315.32 2434.92 1318.55L2324.89 1360.41Z" fill="#ffffff" tag='topPanel' />
<path d="M1814.01 1504.7C1794.74 1496.8 1782.02 1477.82 1782.02 1456.98L1782.02 1344.05C1782.02 1329.97 1795.98 1320.59 1809 1325.93L1907.06 1366.11C1926.33 1374.01 1939.06 1392.99 1939.06 1413.83L1939.06 1526.78C1939.06 1540.87 1925.09 1550.24 1912.07 1544.9L1814.01 1504.7Z" fill="#ffffff" tag='leftPanel' />
<path d="M1954.09 1418.57C1954.09 1397.28 1967.4 1377.97 1987.3 1370.4L2090.59 1331.12C2103.54 1326.2 2117.12 1335.56 2117.12 1349.42L2117.12 1460.49C2117.12 1481.79 2103.8 1501.1 2083.89 1508.66L1980.61 1547.9C1967.66 1552.82 1954.09 1543.46 1954.09 1529.6L1954.09 1418.57Z" fill="#ffffff" tag='rightPanel' />
<path d="M1970.79 1360.41C1958.47 1365.09 1944.77 1364.91 1932.6 1359.89L1826.56 1316.17C1818.18 1312.72 1818.38 1301.09 1826.87 1297.89L1937.02 1256.36C1949.25 1251.76 1962.83 1251.94 1974.91 1256.88L2081.07 1300.26C2089.46 1303.69 2089.3 1315.32 2080.82 1318.55L1970.79 1360.41Z" fill="#ffffff" tag='topPanel' />
<path d="M2345.17 1766.7C2325.9 1758.8 2313.17 1739.82 2313.17 1718.98L2313.17 1606.05C2313.17 1591.97 2327.14 1582.59 2340.16 1587.93L2438.22 1628.11C2457.49 1636.01 2470.22 1654.99 2470.22 1675.83L2470.22 1788.78C2470.22 1802.87 2456.25 1812.24 2443.23 1806.9L2345.17 1766.7Z" fill="#ffffff" tag='leftPanel' />
<path d="M2485.25 1680.57C2485.25 1659.28 2498.56 1639.97 2518.46 1632.4L2621.74 1593.12C2634.7 1588.2 2648.27 1597.56 2648.27 1611.42L2648.27 1722.49C2648.27 1743.79 2634.96 1763.1 2615.05 1770.66L2511.77 1809.9C2498.82 1814.82 2485.25 1805.46 2485.25 1791.6L2485.25 1680.57Z" fill="#ffffff" tag='rightPanel' />
<path d="M2501.95 1622.41C2489.63 1627.09 2475.93 1626.91 2463.76 1621.89L2357.72 1578.17C2349.34 1574.72 2349.53 1563.09 2358.03 1559.89L2468.18 1518.36C2480.41 1513.76 2493.99 1513.94 2506.07 1518.88L2612.23 1562.26C2620.62 1565.69 2620.46 1577.32 2611.98 1580.55L2501.95 1622.41Z" fill="#ffffff" tag='topPanel' />
<path d="M1991.06 1766.7C1971.8 1758.8 1959.07 1739.82 1959.07 1718.98L1959.07 1606.05C1959.07 1591.97 1973.03 1582.59 1986.06 1587.93L2084.11 1628.11C2103.38 1636.01 2116.11 1654.99 2116.11 1675.83L2116.11 1788.78C2116.11 1802.87 2102.15 1812.24 2089.12 1806.9L1991.06 1766.7Z" fill="#ffffff" tag='leftPanel' />
<path d="M2131.14 1680.57C2131.14 1659.28 2144.45 1639.97 2164.36 1632.4L2267.64 1593.12C2280.59 1588.2 2294.17 1597.56 2294.17 1611.42L2294.17 1722.49C2294.17 1743.79 2280.85 1763.1 2260.94 1770.66L2157.67 1809.9C2144.72 1814.82 2131.14 1805.46 2131.14 1791.6L2131.14 1680.57Z" fill="#ffffff" tag='rightPanel' />
<path d="M2147.84 1622.41C2135.52 1627.09 2121.82 1626.91 2109.66 1621.89L2003.61 1578.17C1995.23 1574.72 1995.43 1563.09 2003.92 1559.89L2114.08 1518.36C2126.3 1513.76 2139.88 1513.94 2151.96 1518.88L2258.12 1562.26C2266.51 1565.69 2266.35 1577.32 2257.87 1580.55L2147.84 1622.41Z" fill="#ffffff" tag='topPanel' />
<path d="M1997.06 194.699C1977.8 186.8 1965.07 167.818 1965.07 146.984L1965.07 34.0519C1965.07 19.9695 1979.04 10.5917 1992.06 15.9286L2090.11 56.1083C2109.38 64.0052 2122.12 82.9894 2122.12 103.827L2122.12 216.783C2122.12 230.867 2108.15 240.245 2095.12 234.905L1997.06 194.699Z" fill="#ffffff" tag='leftPanel' />
<path d="M2137.15 108.571C2137.15 87.2767 2150.46 67.9731 2170.36 60.4041L2273.64 21.1243C2286.59 16.1988 2300.17 25.5627 2300.17 39.4201L2300.17 150.487C2300.17 171.787 2286.85 191.095 2266.94 198.66L2163.67 237.899C2150.72 242.82 2137.15 233.456 2137.15 219.601L2137.15 108.571Z" fill="#ffffff" tag='rightPanel' />
<path d="M2153.84 50.4092C2141.53 55.0944 2127.82 54.9092 2115.66 49.8931L2009.61 6.17299C2001.23 2.71825 2001.43 -8.91281 2009.92 -12.1138L2120.08 -53.6351C2132.3 -58.244 2145.89 -58.0606 2157.97 -53.1234L2264.12 -9.73996C2272.52 -6.31092 2272.36 5.32078 2263.87 8.54769L2153.84 50.4092Z" fill="#ffffff" tag='topPanel' />
<path d="M2173.12 456.699C2153.85 448.8 2141.12 429.818 2141.12 408.984L2141.12 296.052C2141.12 281.969 2155.09 272.592 2168.11 277.929L2266.17 318.108C2285.44 326.005 2298.17 344.989 2298.17 365.827L2298.17 478.783C2298.17 492.867 2284.2 502.245 2271.18 496.905L2173.12 456.699Z" fill="#ffffff" tag='leftPanel' />
<path d="M2313.2 370.571C2313.2 349.277 2326.51 329.973 2346.41 322.404L2449.69 283.124C2462.64 278.199 2476.22 287.563 2476.22 301.42L2476.22 412.487C2476.22 433.787 2462.9 453.095 2442.99 460.66L2339.72 499.899C2326.77 504.82 2313.2 495.456 2313.2 481.601L2313.2 370.571Z" fill="#ffffff" tag='rightPanel' />
<path d="M2329.89 312.409C2317.58 317.094 2303.88 316.909 2291.71 311.893L2185.67 268.173C2177.29 264.718 2177.48 253.087 2185.97 249.886L2296.13 208.365C2308.36 203.756 2321.94 203.939 2334.02 208.877L2440.18 252.26C2448.57 255.689 2448.41 267.321 2439.93 270.548L2329.89 312.409Z" fill="#ffffff" tag='topPanel' />
<path d="M1641.96 194.699C1622.69 186.8 1609.96 167.818 1609.96 146.984L1609.96 34.0519C1609.96 19.9695 1623.93 10.5917 1636.95 15.9286L1735.01 56.1083C1754.28 64.0052 1767.01 82.9894 1767.01 103.827L1767.01 216.783C1767.01 230.867 1753.04 240.245 1740.02 234.905L1641.96 194.699Z" fill="#ffffff" tag='leftPanel' />
<path d="M1782.04 108.571C1782.04 87.2767 1795.35 67.9731 1815.25 60.4041L1918.54 21.1243C1931.49 16.1988 1945.06 25.5627 1945.06 39.4201L1945.06 150.487C1945.06 171.787 1931.75 191.095 1911.84 198.66L1808.56 237.899C1795.61 242.82 1782.04 233.456 1782.04 219.601L1782.04 108.571Z" fill="#ffffff" tag='rightPanel' />
<path d="M1798.74 50.4092C1786.42 55.0944 1772.72 54.9092 1760.55 49.8931L1654.51 6.17299C1646.13 2.71825 1646.32 -8.91281 1654.82 -12.1138L1764.97 -53.6351C1777.2 -58.244 1790.78 -58.0606 1802.86 -53.1234L1909.02 -9.73996C1917.41 -6.31092 1917.25 5.32078 1908.77 8.54769L1798.74 50.4092Z" fill="#ffffff" tag='topPanel' />
<path d="M1819.01 456.699C1799.74 448.8 1787.02 429.818 1787.02 408.984L1787.02 296.052C1787.02 281.969 1800.98 272.592 1814.01 277.929L1912.06 318.108C1931.33 326.005 1944.06 344.989 1944.06 365.827L1944.06 478.783C1944.06 492.867 1930.1 502.245 1917.07 496.905L1819.01 456.699Z" fill="#ffffff" tag='leftPanel' />
<path d="M1959.09 370.571C1959.09 349.277 1972.4 329.973 1992.3 322.404L2095.59 283.124C2108.54 278.199 2122.12 287.563 2122.12 301.42L2122.12 412.487C2122.12 433.787 2108.8 453.095 2088.89 460.66L1985.62 499.899C1972.67 504.82 1959.09 495.456 1959.09 481.601L1959.09 370.571Z" fill="#ffffff" tag='rightPanel' />
<path d="M1975.79 312.409C1963.47 317.094 1949.77 316.909 1937.6 311.893L1831.56 268.173C1823.18 264.718 1823.38 253.087 1831.87 249.886L1942.02 208.365C1954.25 203.756 1967.83 203.939 1979.91 208.877L2086.07 252.26C2094.46 255.689 2094.3 267.321 2085.82 270.548L1975.79 312.409Z" fill="#ffffff" tag='topPanel' />
<path d="M2349.17 718.699C2329.9 710.8 2317.17 691.818 2317.17 670.984L2317.17 558.052C2317.17 543.97 2331.14 534.592 2344.16 539.929L2442.22 580.108C2461.49 588.005 2474.22 606.989 2474.22 627.827L2474.22 740.783C2474.22 754.867 2460.25 764.245 2447.23 758.905L2349.17 718.699Z" fill="#ffffff" tag='leftPanel' />
<path d="M2489.25 632.571C2489.25 611.277 2502.56 591.973 2522.46 584.404L2625.75 545.124C2638.7 540.199 2652.27 549.563 2652.27 563.42L2652.27 674.487C2652.27 695.787 2638.96 715.095 2619.05 722.66L2515.77 761.899C2502.82 766.82 2489.25 757.456 2489.25 743.601L2489.25 632.571Z" fill="#ffffff" tag='rightPanel' />
<path d="M2505.95 574.409C2493.63 579.094 2479.93 578.909 2467.76 573.893L2361.72 530.173C2353.34 526.718 2353.54 515.087 2362.03 511.886L2472.18 470.365C2484.41 465.756 2497.99 465.939 2510.07 470.877L2616.23 514.26C2624.62 517.689 2624.46 529.321 2615.98 532.548L2505.95 574.409Z" fill="#ffffff" tag='topPanel' />
<path d="M1995.06 718.699C1975.8 710.8 1963.07 691.818 1963.07 670.984L1963.07 558.052C1963.07 543.97 1977.03 534.592 1990.06 539.929L2088.11 580.108C2107.38 588.005 2120.12 606.989 2120.12 627.827L2120.12 740.783C2120.12 754.867 2106.15 764.245 2093.12 758.905L1995.06 718.699Z" fill="#ffffff" tag='leftPanel' />
<path d="M2135.14 632.571C2135.14 611.277 2148.46 591.973 2168.36 584.404L2271.64 545.124C2284.59 540.199 2298.17 549.563 2298.17 563.42L2298.17 674.487C2298.17 695.787 2284.85 715.095 2264.94 722.66L2161.67 761.899C2148.72 766.82 2135.14 757.456 2135.14 743.601L2135.14 632.571Z" fill="#ffffff" tag='rightPanel' />
<path d="M2151.84 574.409C2139.53 579.094 2125.82 578.909 2113.66 573.893L2007.61 530.173C1999.23 526.718 1999.43 515.087 2007.92 511.886L2118.08 470.365C2130.3 465.756 2143.88 465.939 2155.97 470.877L2262.12 514.26C2270.51 517.689 2270.36 529.321 2261.87 532.548L2151.84 574.409Z" fill="#ffffff" tag='topPanel' />
<path d="M2526.22 980.699C2506.95 972.8 2494.23 953.818 2494.23 932.984L2494.23 820.052C2494.23 805.97 2508.19 796.592 2521.22 801.929L2619.27 842.108C2638.54 850.005 2651.27 868.989 2651.27 889.827L2651.27 1002.78C2651.27 1016.87 2637.31 1026.24 2624.28 1020.9L2526.22 980.699Z" fill="#ffffff" tag='leftPanel' />
<path d="M2666.3 894.571C2666.3 873.277 2679.61 853.973 2699.51 846.404L2802.8 807.124C2815.75 802.199 2829.33 811.563 2829.33 825.42L2829.33 936.487C2829.33 957.787 2816.01 977.095 2796.1 984.66L2692.83 1023.9C2679.88 1028.82 2666.3 1019.46 2666.3 1005.6L2666.3 894.571Z" fill="#ffffff" tag='rightPanel' />
<path d="M2683 836.409C2670.68 841.094 2656.98 840.909 2644.81 835.893L2538.77 792.173C2530.39 788.718 2530.59 777.087 2539.08 773.886L2649.23 732.365C2661.46 727.756 2675.04 727.939 2687.12 732.877L2793.28 776.26C2801.67 779.689 2801.51 791.321 2793.03 794.548L2683 836.409Z" fill="#ffffff" tag='topPanel' />
<path d="M2172.12 980.699C2152.85 972.8 2140.12 953.818 2140.12 932.984L2140.12 820.052C2140.12 805.97 2154.09 796.592 2167.11 801.929L2265.16 842.108C2284.44 850.005 2297.17 868.989 2297.17 889.827L2297.17 1002.78C2297.17 1016.87 2283.2 1026.24 2270.18 1020.9L2172.12 980.699Z" fill="#ffffff" tag='leftPanel' />
<path d="M2312.2 894.571C2312.2 873.277 2325.51 853.973 2345.41 846.404L2448.69 807.124C2461.64 802.199 2475.22 811.563 2475.22 825.42L2475.22 936.487C2475.22 957.787 2461.9 977.095 2441.99 984.66L2338.72 1023.9C2325.77 1028.82 2312.2 1019.46 2312.2 1005.6L2312.2 894.571Z" fill="#ffffff" tag='rightPanel' />
<path d="M2328.89 836.409C2316.58 841.094 2302.88 840.909 2290.71 835.893L2184.67 792.173C2176.29 788.718 2176.48 777.087 2184.97 773.886L2295.13 732.365C2307.36 727.756 2320.94 727.939 2333.02 732.877L2439.18 776.26C2447.57 779.689 2447.41 791.321 2438.93 794.548L2328.89 836.409Z" fill="#ffffff" tag='topPanel' />
<path d="M2702.27 1242.7C2683.01 1234.8 2670.28 1215.82 2670.28 1194.98L2670.28 1082.05C2670.28 1067.97 2684.25 1058.59 2697.27 1063.93L2795.32 1104.11C2814.59 1112.01 2827.33 1130.99 2827.33 1151.83L2827.33 1264.78C2827.33 1278.87 2813.36 1288.24 2800.33 1282.9L2702.27 1242.7Z" fill="#ffffff" tag='leftPanel' />
<path d="M2842.36 1156.57C2842.36 1135.28 2855.67 1115.97 2875.57 1108.4L2978.85 1069.12C2991.8 1064.2 3005.38 1073.56 3005.38 1087.42L3005.38 1198.49C3005.38 1219.79 2992.06 1239.1 2972.15 1246.66L2868.88 1285.9C2855.93 1290.82 2842.36 1281.46 2842.36 1267.6L2842.36 1156.57Z" fill="#ffffff" tag='rightPanel' />
<path d="M2859.05 1098.41C2846.74 1103.09 2833.03 1102.91 2820.87 1097.89L2714.82 1054.17C2706.44 1050.72 2706.64 1039.09 2715.13 1035.89L2825.29 994.365C2837.51 989.756 2851.09 989.939 2863.18 994.877L2969.33 1038.26C2977.73 1041.69 2977.57 1053.32 2969.08 1056.55L2859.05 1098.41Z" fill="#ffffff" tag='topPanel' />
<path d="M2348.17 1242.7C2328.9 1234.8 2316.17 1215.82 2316.17 1194.98L2316.17 1082.05C2316.17 1067.97 2330.14 1058.59 2343.16 1063.93L2441.22 1104.11C2460.49 1112.01 2473.22 1130.99 2473.22 1151.83L2473.22 1264.78C2473.22 1278.87 2459.25 1288.24 2446.23 1282.9L2348.17 1242.7Z" fill="#ffffff" tag='leftPanel' />
<path d="M2488.25 1156.57C2488.25 1135.28 2501.56 1115.97 2521.46 1108.4L2624.74 1069.12C2637.7 1064.2 2651.27 1073.56 2651.27 1087.42L2651.27 1198.49C2651.27 1219.79 2637.96 1239.1 2618.05 1246.66L2514.77 1285.9C2501.82 1290.82 2488.25 1281.46 2488.25 1267.6L2488.25 1156.57Z" fill="#ffffff" tag='rightPanel' />
<path d="M2504.95 1098.41C2492.63 1103.09 2478.93 1102.91 2466.76 1097.89L2360.72 1054.17C2352.34 1050.72 2352.53 1039.09 2361.03 1035.89L2471.18 994.365C2483.41 989.756 2496.99 989.939 2509.07 994.877L2615.23 1038.26C2623.62 1041.69 2623.46 1053.32 2614.98 1056.55L2504.95 1098.41Z" fill="#ffffff" tag='topPanel' />
<path d="M2878.33 1504.7C2859.06 1496.8 2846.33 1477.82 2846.33 1456.98L2846.33 1344.05C2846.33 1329.97 2860.3 1320.59 2873.32 1325.93L2971.37 1366.11C2990.65 1374.01 3003.38 1392.99 3003.38 1413.83L3003.38 1526.78C3003.38 1540.87 2989.41 1550.24 2976.39 1544.9L2878.33 1504.7Z" fill="#ffffff" tag='leftPanel' />
<path d="M3018.41 1418.57C3018.41 1397.28 3031.72 1377.97 3051.62 1370.4L3154.9 1331.12C3167.85 1326.2 3181.43 1335.56 3181.43 1349.42L3181.43 1460.49C3181.43 1481.79 3168.11 1501.1 3148.2 1508.66L3044.93 1547.9C3031.98 1552.82 3018.41 1543.46 3018.41 1529.6L3018.41 1418.57Z" fill="#ffffff" tag='rightPanel' />
<path d="M3035.1 1360.41C3022.79 1365.09 3009.09 1364.91 2996.92 1359.89L2890.88 1316.17C2882.5 1312.72 2882.69 1301.09 2891.18 1297.89L3001.34 1256.36C3013.57 1251.76 3027.15 1251.94 3039.23 1256.88L3145.39 1300.26C3153.78 1303.69 3153.62 1315.32 3145.14 1318.55L3035.1 1360.41Z" fill="#ffffff" tag='topPanel' />
<path d="M2524.22 1504.7C2504.95 1496.8 2492.23 1477.82 2492.23 1456.98L2492.23 1344.05C2492.23 1329.97 2506.19 1320.59 2519.22 1325.93L2617.27 1366.11C2636.54 1374.01 2649.27 1392.99 2649.27 1413.83L2649.27 1526.78C2649.27 1540.87 2635.3 1550.24 2622.28 1544.9L2524.22 1504.7Z" fill="#ffffff" tag='leftPanel' />
<path d="M2664.3 1418.57C2664.3 1397.28 2677.61 1377.97 2697.51 1370.4L2800.8 1331.12C2813.75 1326.2 2827.33 1335.56 2827.33 1349.42L2827.33 1460.49C2827.33 1481.79 2814.01 1501.1 2794.1 1508.66L2690.83 1547.9C2677.87 1552.82 2664.3 1543.46 2664.3 1529.6L2664.3 1418.57Z" fill="#ffffff" tag='rightPanel' />
<path d="M2681 1360.41C2668.68 1365.09 2654.98 1364.91 2642.81 1359.89L2536.77 1316.17C2528.39 1312.72 2528.59 1301.09 2537.08 1297.89L2647.23 1256.36C2659.46 1251.76 2673.04 1251.94 2685.12 1256.88L2791.28 1300.26C2799.67 1303.69 2799.51 1315.32 2791.03 1318.55L2681 1360.41Z" fill="#ffffff" tag='topPanel' />
<path d="M2707.28 194.699C2688.01 186.8 2675.28 167.818 2675.28 146.984L2675.28 34.0519C2675.28 19.9695 2689.25 10.5917 2702.27 15.9286L2800.32 56.1083C2819.6 64.0052 2832.33 82.9894 2832.33 103.827L2832.33 216.783C2832.33 230.867 2818.36 240.245 2805.33 234.905L2707.28 194.699Z" fill="#ffffff" tag='leftPanel' />
<path d="M2847.36 108.571C2847.36 87.2767 2860.67 67.9731 2880.57 60.4041L2983.85 21.1243C2996.8 16.1988 3010.38 25.5627 3010.38 39.4201L3010.38 150.487C3010.38 171.787 2997.06 191.095 2977.15 198.66L2873.88 237.899C2860.93 242.82 2847.36 233.456 2847.36 219.601L2847.36 108.571Z" fill="#ffffff" tag='rightPanel' />
<path d="M2864.05 50.4092C2851.74 55.0944 2838.03 54.9092 2825.87 49.8931L2719.82 6.17299C2711.44 2.71825 2711.64 -8.91281 2720.13 -12.1138L2830.29 -53.6351C2842.52 -58.244 2856.1 -58.0606 2868.18 -53.1234L2974.34 -9.73996C2982.73 -6.31092 2982.57 5.32078 2974.09 8.54769L2864.05 50.4092Z" fill="#ffffff" tag='topPanel' />
<path d="M2883.33 456.699C2864.06 448.8 2851.33 429.818 2851.33 408.984L2851.33 296.052C2851.33 281.969 2865.3 272.592 2878.32 277.929L2976.38 318.108C2995.65 326.005 3008.38 344.989 3008.38 365.827L3008.38 478.783C3008.38 492.867 2994.41 502.245 2981.39 496.905L2883.33 456.699Z" fill="#ffffff" tag='leftPanel' />
<path d="M3023.41 370.571C3023.41 349.277 3036.72 329.973 3056.62 322.404L3159.9 283.124C3172.86 278.199 3186.43 287.563 3186.43 301.42L3186.43 412.487C3186.43 433.787 3173.12 453.095 3153.21 460.66L3049.93 499.899C3036.98 504.82 3023.41 495.456 3023.41 481.601L3023.41 370.571Z" fill="#ffffff" tag='rightPanel' />
<path d="M3040.11 312.409C3027.79 317.094 3014.09 316.909 3001.92 311.893L2895.88 268.173C2887.5 264.718 2887.69 253.087 2896.19 249.886L3006.34 208.365C3018.57 203.756 3032.15 203.939 3044.23 208.877L3150.39 252.26C3158.78 255.689 3158.62 267.321 3150.14 270.548L3040.11 312.409Z" fill="#ffffff" tag='topPanel' />
<path d="M2352.17 194.699C2332.9 186.8 2320.18 167.818 2320.18 146.984L2320.18 34.0519C2320.18 19.9695 2334.14 10.5917 2347.16 15.9286L2445.22 56.1083C2464.49 64.0052 2477.22 82.9894 2477.22 103.827L2477.22 216.783C2477.22 230.867 2463.25 240.245 2450.23 234.905L2352.17 194.699Z" fill="#ffffff" tag='leftPanel' />
<path d="M2492.25 108.571C2492.25 87.2767 2505.56 67.9731 2525.46 60.4041L2628.75 21.1243C2641.7 16.1988 2655.28 25.5627 2655.28 39.4201L2655.28 150.487C2655.28 171.787 2641.96 191.095 2622.05 198.66L2518.77 237.899C2505.82 242.82 2492.25 233.456 2492.25 219.601L2492.25 108.571Z" fill="#ffffff" tag='rightPanel' />
<path d="M2508.95 50.4092C2496.63 55.0944 2482.93 54.9092 2470.76 49.8931L2364.72 6.17299C2356.34 2.71825 2356.54 -8.91281 2365.03 -12.1138L2475.18 -53.6351C2487.41 -58.244 2500.99 -58.0606 2513.07 -53.1234L2619.23 -9.73996C2627.62 -6.31092 2627.46 5.32078 2618.98 8.54769L2508.95 50.4092Z" fill="#ffffff" tag='topPanel' />
<path d="M2529.22 456.699C2509.96 448.8 2497.23 429.818 2497.23 408.984L2497.23 296.052C2497.23 281.969 2511.19 272.592 2524.22 277.929L2622.27 318.108C2641.54 326.005 2654.27 344.989 2654.27 365.827L2654.27 478.783C2654.27 492.867 2640.31 502.245 2627.28 496.905L2529.22 456.699Z" fill="#ffffff" tag='leftPanel' />
<path d="M2669.3 370.571C2669.3 349.277 2682.61 329.973 2702.52 322.404L2805.8 283.124C2818.75 278.199 2832.33 287.563 2832.33 301.42L2832.33 412.487C2832.33 433.787 2819.01 453.095 2799.1 460.66L2695.83 499.899C2682.88 504.82 2669.3 495.456 2669.3 481.601L2669.3 370.571Z" fill="#ffffff" tag='rightPanel' />
<path d="M2686 312.409C2673.68 317.094 2659.98 316.909 2647.82 311.893L2541.77 268.173C2533.39 264.718 2533.59 253.087 2542.08 249.886L2652.24 208.365C2664.46 203.756 2678.04 203.939 2690.12 208.877L2796.28 252.26C2804.67 255.689 2804.51 267.321 2796.03 270.548L2686 312.409Z" fill="#ffffff" tag='topPanel' />
<path d="M3062.38 194.699C3043.11 186.8 3030.39 167.818 3030.39 146.984L3030.39 34.0519C3030.39 19.9695 3044.35 10.5917 3057.38 15.9286L3155.43 56.1083C3174.7 64.0052 3187.43 82.9894 3187.43 103.827L3187.43 216.783C3187.43 230.867 3173.46 240.245 3160.44 234.905L3062.38 194.699Z" fill="#ffffff" tag='leftPanel' />
<path d="M3202.46 108.571C3202.46 87.2767 3215.77 67.9731 3235.67 60.4041L3338.96 21.1243C3351.91 16.1988 3365.49 25.5627 3365.49 39.4201L3365.49 150.487C3365.49 171.787 3352.17 191.095 3332.26 198.66L3228.99 237.899C3216.03 242.82 3202.46 233.456 3202.46 219.601L3202.46 108.571Z" fill="#ffffff" tag='rightPanel' />
<path d="M3219.16 50.4092C3206.84 55.0944 3193.14 54.9092 3180.97 49.8931L3074.93 6.17299C3066.55 2.71825 3066.75 -8.91281 3075.24 -12.1138L3185.39 -53.6351C3197.62 -58.244 3211.2 -58.0606 3223.28 -53.1234L3329.44 -9.73996C3337.83 -6.31092 3337.67 5.32078 3329.19 8.54769L3219.16 50.4092Z" fill="#ffffff" tag='topPanel' />
<path d="M3239.43 456.699C3220.17 448.8 3207.44 429.818 3207.44 408.984L3207.44 296.052C3207.44 281.97 3221.4 272.592 3234.43 277.929L3332.48 318.108C3351.75 326.005 3364.49 344.99 3364.49 365.828L3364.49 478.783C3364.49 492.867 3350.52 502.245 3337.49 496.905L3239.43 456.699Z" fill="#ffffff" tag='leftPanel' />
<path d="M3396.21 312.409C3383.9 317.095 3370.19 316.909 3358.03 311.893L3251.98 268.173C3243.6 264.718 3243.8 253.087 3252.29 249.886L3362.45 208.365C3374.67 203.756 3388.25 203.94 3400.34 208.877L3506.49 252.26C3514.88 255.689 3514.73 267.321 3506.24 270.548L3396.21 312.409Z" fill="#ffffff" tag='topPanel' />
<path d="M3059.38 718.699C3040.11 710.8 3027.39 691.818 3027.39 670.984L3027.39 558.052C3027.39 543.97 3041.35 534.592 3054.37 539.929L3152.43 580.108C3171.7 588.005 3184.43 606.99 3184.43 627.828L3184.43 740.783C3184.43 754.867 3170.46 764.245 3157.44 758.905L3059.38 718.699Z" fill="#ffffff" tag='leftPanel' />
<path d="M3199.46 632.571C3199.46 611.277 3212.77 591.973 3232.67 584.404L3335.96 545.124C3348.91 540.199 3362.49 549.563 3362.49 563.42L3362.49 674.487C3362.49 695.788 3349.17 715.095 3329.26 722.66L3225.98 761.899C3213.03 766.82 3199.46 757.456 3199.46 743.601L3199.46 632.571Z" fill="#ffffff" tag='rightPanel' />
<path d="M3216.16 574.409C3203.84 579.095 3190.14 578.909 3177.97 573.893L3071.93 530.173C3063.55 526.718 3063.75 515.087 3072.24 511.886L3182.39 470.365C3194.62 465.756 3208.2 465.94 3220.28 470.877L3326.44 514.26C3334.83 517.689 3334.67 529.321 3326.19 532.548L3216.16 574.409Z" fill="#ffffff" tag='topPanel' />
<path d="M2705.27 718.699C2686.01 710.8 2673.28 691.818 2673.28 670.984L2673.28 558.052C2673.28 543.97 2687.25 534.592 2700.27 539.929L2798.32 580.108C2817.59 588.005 2830.33 606.989 2830.33 627.827L2830.33 740.783C2830.33 754.867 2816.36 764.245 2803.33 758.905L2705.27 718.699Z" fill="#ffffff" tag='leftPanel' />
<path d="M2845.36 632.571C2845.36 611.277 2858.67 591.973 2878.57 584.404L2981.85 545.124C2994.8 540.199 3008.38 549.563 3008.38 563.42L3008.38 674.487C3008.38 695.787 2995.06 715.095 2975.15 722.66L2871.88 761.899C2858.93 766.82 2845.36 757.456 2845.36 743.601L2845.36 632.571Z" fill="#ffffff" tag='rightPanel' />
<path d="M2862.05 574.409C2849.74 579.094 2836.03 578.909 2823.87 573.893L2717.82 530.173C2709.44 526.718 2709.64 515.087 2718.13 511.886L2828.29 470.365C2840.51 465.756 2854.1 465.939 2866.18 470.877L2972.34 514.26C2980.73 517.689 2980.57 529.321 2972.08 532.548L2862.05 574.409Z" fill="#ffffff" tag='topPanel' />
<path d="M3236.43 980.699C3217.17 972.8 3204.44 953.818 3204.44 932.984L3204.44 820.052C3204.44 805.97 3218.4 796.592 3231.43 801.929L3329.48 842.108C3348.75 850.005 3361.49 868.99 3361.49 889.828L3361.49 1002.78C3361.49 1016.87 3347.52 1026.25 3334.49 1020.9L3236.43 980.699Z" fill="#ffffff" tag='leftPanel' />
<path d="M3393.21 836.409C3380.89 841.095 3367.19 840.909 3355.03 835.893L3248.98 792.173C3240.6 788.718 3240.8 777.087 3249.29 773.886L3359.45 732.365C3371.67 727.756 3385.25 727.94 3397.33 732.877L3503.49 776.26C3511.88 779.689 3511.72 791.321 3503.24 794.548L3393.21 836.409Z" fill="#ffffff" tag='topPanel' />
<path d="M2882.33 980.699C2863.06 972.8 2850.33 953.818 2850.33 932.984L2850.33 820.052C2850.33 805.97 2864.3 796.592 2877.32 801.929L2975.38 842.108C2994.65 850.005 3007.38 868.989 3007.38 889.827L3007.38 1002.78C3007.38 1016.87 2993.41 1026.24 2980.39 1020.9L2882.33 980.699Z" fill="#ffffff" tag='leftPanel' />
<path d="M3022.41 894.571C3022.41 873.277 3035.72 853.973 3055.62 846.404L3158.9 807.124C3171.86 802.199 3185.43 811.563 3185.43 825.42L3185.43 936.487C3185.43 957.787 3172.12 977.095 3152.21 984.66L3048.93 1023.9C3035.98 1028.82 3022.41 1019.46 3022.41 1005.6L3022.41 894.571Z" fill="#ffffff" tag='rightPanel' />
<path d="M3039.1 836.409C3026.79 841.094 3013.09 840.909 3000.92 835.893L2894.88 792.173C2886.5 788.718 2886.69 777.087 2895.19 773.886L3005.34 732.365C3017.57 727.756 3031.15 727.939 3043.23 732.877L3149.39 776.26C3157.78 779.689 3157.62 791.321 3149.14 794.548L3039.1 836.409Z" fill="#ffffff" tag='topPanel' />
<path d="M3058.38 1242.7C3039.11 1234.8 3026.39 1215.82 3026.39 1194.98L3026.39 1082.05C3026.39 1067.97 3040.35 1058.59 3053.37 1063.93L3151.43 1104.11C3170.7 1112.01 3183.43 1130.99 3183.43 1151.83L3183.43 1264.78C3183.43 1278.87 3169.46 1288.24 3156.44 1282.9L3058.38 1242.7Z" fill="#ffffff" tag='leftPanel' />
<path d="M3198.46 1156.57C3198.46 1135.28 3211.77 1115.97 3231.67 1108.4L3334.96 1069.12C3347.91 1064.2 3361.49 1073.56 3361.49 1087.42L3361.49 1198.49C3361.49 1219.79 3348.17 1239.1 3328.26 1246.66L3224.98 1285.9C3212.03 1290.82 3198.46 1281.46 3198.46 1267.6L3198.46 1156.57Z" fill="#ffffff" tag='rightPanel' />
<path d="M3215.16 1098.41C3202.84 1103.09 3189.14 1102.91 3176.97 1097.89L3070.93 1054.17C3062.55 1050.72 3062.75 1039.09 3071.24 1035.89L3181.39 994.365C3193.62 989.756 3207.2 989.939 3219.28 994.877L3325.44 1038.26C3333.83 1041.69 3333.67 1053.32 3325.19 1056.55L3215.16 1098.41Z" fill="#ffffff" tag='topPanel' />
<path d="M3234.43 1504.7C3215.17 1496.8 3202.44 1477.82 3202.44 1456.98L3202.44 1344.05C3202.44 1329.97 3216.4 1320.59 3229.43 1325.93L3327.48 1366.11C3346.75 1374.01 3359.48 1392.99 3359.48 1413.83L3359.48 1526.78C3359.48 1540.87 3345.52 1550.25 3332.49 1544.91L3234.43 1504.7Z" fill="#ffffff" tag='leftPanel' />
<path d="M3391.21 1360.41C3378.89 1365.1 3365.19 1364.91 3353.02 1359.89L3246.98 1316.17C3238.6 1312.72 3238.8 1301.09 3247.29 1297.89L3357.44 1256.37C3369.67 1251.76 3383.25 1251.94 3395.33 1256.88L3501.49 1300.26C3509.88 1303.69 3509.72 1315.32 3501.24 1318.55L3391.21 1360.41Z" fill="#ffffff" tag='topPanel' />
<path d="M3055.38 1766.7C3036.11 1758.8 3023.38 1739.82 3023.38 1718.98L3023.38 1606.05C3023.38 1591.97 3037.35 1582.59 3050.37 1587.93L3148.43 1628.11C3167.7 1636.01 3180.43 1654.99 3180.43 1675.83L3180.43 1788.78C3180.43 1802.87 3166.46 1812.25 3153.44 1806.91L3055.38 1766.7Z" fill="#ffffff" tag='leftPanel' />
<path d="M3195.46 1680.57C3195.46 1659.28 3208.77 1639.97 3228.67 1632.4L3331.96 1593.12C3344.91 1588.2 3358.48 1597.56 3358.48 1611.42L3358.48 1722.49C3358.48 1743.79 3345.17 1763.1 3325.26 1770.66L3221.98 1809.9C3209.03 1814.82 3195.46 1805.46 3195.46 1791.6L3195.46 1680.57Z" fill="#ffffff" tag='rightPanel' />
<path d="M3212.16 1622.41C3199.84 1627.1 3186.14 1626.91 3173.97 1621.89L3067.93 1578.17C3059.55 1574.72 3059.74 1563.09 3068.24 1559.89L3178.39 1518.37C3190.62 1513.76 3204.2 1513.94 3216.28 1518.88L3322.44 1562.26C3330.83 1565.69 3330.67 1577.32 3322.19 1580.55L3212.16 1622.41Z" fill="#ffffff" tag='topPanel' />
<path d="M2701.27 1766.7C2682.01 1758.8 2669.28 1739.82 2669.28 1718.98L2669.28 1606.05C2669.28 1591.97 2683.24 1582.59 2696.27 1587.93L2794.32 1628.11C2813.59 1636.01 2826.33 1654.99 2826.33 1675.83L2826.33 1788.78C2826.33 1802.87 2812.36 1812.24 2799.33 1806.9L2701.27 1766.7Z" fill="#ffffff" tag='leftPanel' />
<path d="M2841.35 1680.57C2841.35 1659.28 2854.66 1639.97 2874.57 1632.4L2977.85 1593.12C2990.8 1588.2 3004.38 1597.56 3004.38 1611.42L3004.38 1722.49C3004.38 1743.79 2991.06 1763.1 2971.15 1770.66L2867.88 1809.9C2854.93 1814.82 2841.35 1805.46 2841.35 1791.6L2841.35 1680.57Z" fill="#ffffff" tag='rightPanel' />
<path d="M2858.05 1622.41C2845.74 1627.09 2832.03 1626.91 2819.87 1621.89L2713.82 1578.17C2705.44 1574.72 2705.64 1563.09 2714.13 1559.89L2824.29 1518.36C2836.51 1513.76 2850.09 1513.94 2862.18 1518.88L2968.33 1562.26C2976.72 1565.69 2976.57 1577.32 2968.08 1580.55L2858.05 1622.41Z" fill="#ffffff" tag='topPanel' />
<path d="M576.642 194.699C557.375 186.8 544.648 167.818 544.648 146.984L544.648 34.0519C544.648 19.9695 558.613 10.5917 571.637 15.9286L669.691 56.1083C688.962 64.0052 701.694 82.9894 701.694 103.827L701.694 216.783C701.694 230.867 687.726 240.245 674.702 234.905L576.642 194.699Z" fill="#ffffff" tag='leftPanel' />
<path d="M716.723 108.571C716.723 87.2769 730.033 67.9732 749.935 60.4042L853.218 21.1245C866.17 16.1989 879.747 25.5628 879.747 39.4202L879.747 150.487C879.747 171.788 866.43 191.095 846.52 198.66L743.246 237.899C730.296 242.82 716.723 233.456 716.723 219.601L716.723 108.571Z" fill="#ffffff" tag='rightPanel' />
<path d="M733.419 50.4092C721.104 55.0944 707.402 54.9092 695.235 49.8931L589.191 6.17299C580.811 2.71825 581.008 -8.91281 589.5 -12.1138L699.655 -53.6351C711.882 -58.244 725.463 -58.0606 737.544 -53.1234L843.702 -9.73996C852.093 -6.31092 851.934 5.32078 843.452 8.54769L733.419 50.4092Z" fill="#ffffff" tag='topPanel' />
<path d="M752.694 456.699C733.428 448.8 720.7 429.818 720.7 408.984L720.7 296.052C720.7 281.969 734.666 272.592 747.689 277.929L845.743 318.108C865.015 326.005 877.747 344.989 877.747 365.827L877.747 478.783C877.747 492.867 863.778 502.245 850.754 496.905L752.694 456.699Z" fill="#ffffff" tag='leftPanel' />
<path d="M892.776 370.571C892.776 349.277 906.086 329.973 925.988 322.404L1029.27 283.124C1042.22 278.199 1055.8 287.563 1055.8 301.42L1055.8 412.487C1055.8 433.787 1042.48 453.095 1022.57 460.66L919.299 499.899C906.348 504.82 892.776 495.456 892.776 481.601L892.776 370.571Z" fill="#ffffff" tag='rightPanel' />
<path d="M909.472 312.409C897.157 317.094 883.454 316.909 871.287 311.893L765.243 268.173C756.864 264.718 757.061 253.087 765.553 249.886L875.707 208.365C887.934 203.756 901.515 203.939 913.597 208.877L1019.75 252.26C1028.15 255.689 1027.99 267.321 1019.5 270.548L909.472 312.409Z" fill="#ffffff" tag='topPanel' />
<path d="M221.537 194.699C202.27 186.8 189.542 167.818 189.542 146.984L189.542 34.0519C189.543 19.9695 203.508 10.5917 216.532 15.9286L314.585 56.1083C333.857 64.0052 346.589 82.9894 346.589 103.827L346.589 216.783C346.589 230.867 332.621 240.245 319.596 234.905L221.537 194.699Z" fill="#ffffff" tag='leftPanel' />
<path d="M361.617 108.571C361.617 87.2769 374.928 67.9732 394.83 60.4042L498.113 21.1245C511.064 16.1989 524.642 25.5628 524.642 39.4202L524.642 150.487C524.642 171.788 511.324 191.095 491.415 198.66L388.141 237.899C375.19 242.82 361.617 233.456 361.617 219.601L361.617 108.571Z" fill="#ffffff" tag='rightPanel' />
<path d="M378.314 50.4093C365.999 55.0945 352.296 54.9093 340.13 49.8933L234.086 6.17311C225.706 2.71837 225.903 -8.91269 234.395 -12.1137L344.549 -53.635C356.777 -58.2439 370.358 -58.0605 382.439 -53.1233L488.597 -9.73983C496.988 -6.3108 496.829 5.3209 488.347 8.54781L378.314 50.4093Z" fill="#ffffff" tag='topPanel' />
<path d="M398.589 456.699C379.322 448.8 366.595 429.818 366.595 408.984L366.595 296.052C366.595 281.969 380.56 272.592 393.584 277.929L491.638 318.108C510.909 326.005 523.642 344.989 523.642 365.827L523.642 478.783C523.642 492.867 509.673 502.245 496.649 496.905L398.589 456.699Z" fill="#ffffff" tag='leftPanel' />
<path d="M538.67 370.571C538.67 349.277 551.98 329.973 571.882 322.404L675.165 283.124C688.117 278.199 701.694 287.563 701.694 301.42L701.694 412.487C701.694 433.788 688.377 453.095 668.467 460.66L565.193 499.899C552.243 504.82 538.67 495.456 538.67 481.601L538.67 370.571Z" fill="#ffffff" tag='rightPanel' />
<path d="M555.367 312.409C543.052 317.095 529.349 316.909 517.182 311.893L411.138 268.173C402.759 264.718 402.956 253.087 411.448 249.886L521.602 208.365C533.829 203.756 547.41 203.94 559.492 208.877L665.65 252.26C674.041 255.689 673.881 267.321 665.399 270.548L555.367 312.409Z" fill="#ffffff" tag='topPanel' />
<path d="M928.747 718.699C909.48 710.8 896.753 691.818 896.753 670.984L896.753 558.052C896.753 543.97 910.718 534.592 923.742 539.929L1021.8 580.108C1041.07 588.005 1053.8 606.989 1053.8 627.827L1053.8 740.783C1053.8 754.867 1039.83 764.245 1026.81 758.905L928.747 718.699Z" fill="#ffffff" tag='leftPanel' />
<path d="M1068.83 632.571C1068.83 611.277 1082.14 591.973 1102.04 584.404L1205.32 545.124C1218.27 540.199 1231.85 549.563 1231.85 563.42L1231.85 674.487C1231.85 695.787 1218.53 715.095 1198.63 722.66L1095.35 761.899C1082.4 766.82 1068.83 757.456 1068.83 743.601L1068.83 632.571Z" fill="#ffffff" tag='rightPanel' />
<path d="M1085.52 574.409C1073.21 579.094 1059.51 578.909 1047.34 573.893L941.296 530.173C932.916 526.718 933.113 515.087 941.605 511.886L1051.76 470.365C1063.99 465.756 1077.57 465.939 1089.65 470.877L1195.81 514.26C1204.2 517.689 1204.04 529.321 1195.56 532.548L1085.52 574.409Z" fill="#ffffff" tag='topPanel' />
<path d="M574.641 718.699C555.375 710.8 542.647 691.818 542.647 670.984L542.647 558.052C542.647 543.97 556.613 534.592 569.636 539.929L667.69 580.108C686.962 588.005 699.694 606.989 699.694 627.827L699.694 740.783C699.694 754.867 685.726 764.245 672.701 758.905L574.641 718.699Z" fill="#ffffff" tag='leftPanel' />
<path d="M714.722 632.571C714.722 611.277 728.033 591.973 747.935 584.404L851.218 545.124C864.169 540.199 877.747 549.563 877.747 563.42L877.747 674.487C877.747 695.788 864.429 715.095 844.52 722.66L741.245 761.899C728.295 766.82 714.722 757.456 714.722 743.601L714.722 632.571Z" fill="#ffffff" tag='rightPanel' />
<path d="M731.419 574.409C719.104 579.094 705.401 578.909 693.234 573.893L587.19 530.173C578.811 526.718 579.008 515.087 587.5 511.886L697.654 470.365C709.882 465.756 723.462 465.939 735.544 470.877L841.702 514.26C850.093 517.689 849.933 529.321 841.452 532.548L731.419 574.409Z" fill="#ffffff" tag='topPanel' />
<path d="M1105.8 980.699C1086.53 972.8 1073.81 953.818 1073.81 932.984L1073.81 820.052C1073.81 805.97 1087.77 796.592 1100.79 801.929L1198.85 842.108C1218.12 850.005 1230.85 868.989 1230.85 889.827L1230.85 1002.78C1230.85 1016.87 1216.88 1026.24 1203.86 1020.9L1105.8 980.699Z" fill="#ffffff" tag='leftPanel' />
<path d="M1245.88 894.571C1245.88 873.277 1259.19 853.973 1279.09 846.404L1382.38 807.124C1395.33 802.199 1408.9 811.563 1408.9 825.42L1408.9 936.487C1408.9 957.787 1395.59 977.095 1375.68 984.66L1272.4 1023.9C1259.45 1028.82 1245.88 1019.46 1245.88 1005.6L1245.88 894.571Z" fill="#ffffff" tag='rightPanel' />
<path d="M1262.58 836.409C1250.26 841.094 1236.56 840.909 1224.39 835.893L1118.35 792.173C1109.97 788.718 1110.17 777.087 1118.66 773.886L1228.81 732.365C1241.04 727.756 1254.62 727.939 1266.7 732.877L1372.86 776.26C1381.25 779.689 1381.09 791.321 1372.61 794.548L1262.58 836.409Z" fill="#ffffff" tag='topPanel' />
<path d="M751.694 980.699C732.427 972.8 719.7 953.818 719.7 932.984L719.7 820.052C719.7 805.97 733.665 796.592 746.689 801.929L844.743 842.108C864.014 850.005 876.747 868.989 876.747 889.827L876.747 1002.78C876.747 1016.87 862.778 1026.24 849.754 1020.9L751.694 980.699Z" fill="#ffffff" tag='leftPanel' />
<path d="M891.775 894.571C891.775 873.277 905.086 853.973 924.988 846.404L1028.27 807.124C1041.22 802.199 1054.8 811.563 1054.8 825.42L1054.8 936.487C1054.8 957.787 1041.48 977.095 1021.57 984.66L918.298 1023.9C905.348 1028.82 891.775 1019.46 891.775 1005.6L891.775 894.571Z" fill="#ffffff" tag='rightPanel' />
<path d="M908.471 836.409C896.156 841.094 882.454 840.909 870.287 835.893L764.243 792.173C755.863 788.718 756.06 777.087 764.552 773.886L874.707 732.365C886.934 727.756 900.515 727.939 912.596 732.877L1018.75 776.26C1027.15 779.689 1026.99 791.321 1018.5 794.548L908.471 836.409Z" fill="#ffffff" tag='topPanel' />
<path d="M1281.85 1242.7C1262.59 1234.8 1249.86 1215.82 1249.86 1194.98L1249.86 1082.05C1249.86 1067.97 1263.82 1058.59 1276.85 1063.93L1374.9 1104.11C1394.17 1112.01 1406.9 1130.99 1406.9 1151.83L1406.9 1264.78C1406.9 1278.87 1392.94 1288.24 1379.91 1282.9L1281.85 1242.7Z" fill="#ffffff" tag='leftPanel' />
<path d="M1421.93 1156.57C1421.93 1135.28 1435.24 1115.97 1455.15 1108.4L1558.43 1069.12C1571.38 1064.2 1584.96 1073.56 1584.96 1087.42L1584.96 1198.49C1584.96 1219.79 1571.64 1239.1 1551.73 1246.66L1448.46 1285.9C1435.51 1290.82 1421.93 1281.46 1421.93 1267.6L1421.93 1156.57Z" fill="#ffffff" tag='rightPanel' />
<path d="M1438.63 1098.41C1426.31 1103.09 1412.61 1102.91 1400.44 1097.89L1294.4 1054.17C1286.02 1050.72 1286.22 1039.09 1294.71 1035.89L1404.86 994.365C1417.09 989.756 1430.67 989.939 1442.75 994.877L1548.91 1038.26C1557.3 1041.69 1557.14 1053.32 1548.66 1056.55L1438.63 1098.41Z" fill="#ffffff" tag='topPanel' />
<path d="M927.746 1242.7C908.48 1234.8 895.752 1215.82 895.752 1194.98L895.752 1082.05C895.752 1067.97 909.718 1058.59 922.741 1063.93L1020.8 1104.11C1040.07 1112.01 1052.8 1130.99 1052.8 1151.83L1052.8 1264.78C1052.8 1278.87 1038.83 1288.24 1025.81 1282.9L927.746 1242.7Z" fill="#ffffff" tag='leftPanel' />
<path d="M1067.83 1156.57C1067.83 1135.28 1081.14 1115.97 1101.04 1108.4L1204.32 1069.12C1217.27 1064.2 1230.85 1073.56 1230.85 1087.42L1230.85 1198.49C1230.85 1219.79 1217.53 1239.1 1197.62 1246.66L1094.35 1285.9C1081.4 1290.82 1067.83 1281.46 1067.83 1267.6L1067.83 1156.57Z" fill="#ffffff" tag='rightPanel' />
<path d="M1084.52 1098.41C1072.21 1103.09 1058.51 1102.91 1046.34 1097.89L940.295 1054.17C931.916 1050.72 932.113 1039.09 940.605 1035.89L1050.76 994.365C1062.99 989.756 1076.57 989.939 1088.65 994.877L1194.81 1038.26C1203.2 1041.69 1203.04 1053.32 1194.56 1056.55L1084.52 1098.41Z" fill="#ffffff" tag='topPanel' />
<path d="M1457.9 1504.7C1438.64 1496.8 1425.91 1477.82 1425.91 1456.98L1425.91 1344.05C1425.91 1329.97 1439.88 1320.59 1452.9 1325.93L1550.95 1366.11C1570.22 1374.01 1582.96 1392.99 1582.96 1413.83L1582.96 1526.78C1582.96 1540.87 1568.99 1550.24 1555.96 1544.9L1457.9 1504.7Z" fill="#ffffff" tag='leftPanel' />
<path d="M1597.99 1418.57C1597.99 1397.28 1611.3 1377.97 1631.2 1370.4L1734.48 1331.12C1747.43 1326.2 1761.01 1335.56 1761.01 1349.42L1761.01 1460.49C1761.01 1481.79 1747.69 1501.1 1727.78 1508.66L1624.51 1547.9C1611.56 1552.82 1597.99 1543.46 1597.99 1529.6L1597.99 1418.57Z" fill="#ffffff" tag='rightPanel' />
<path d="M1614.68 1360.41C1602.37 1365.09 1588.66 1364.91 1576.5 1359.89L1470.45 1316.17C1462.07 1312.72 1462.27 1301.09 1470.76 1297.89L1580.92 1256.36C1593.14 1251.76 1606.72 1251.94 1618.81 1256.88L1724.96 1300.26C1733.36 1303.69 1733.2 1315.32 1724.71 1318.55L1614.68 1360.41Z" fill="#ffffff" tag='topPanel' />
<path d="M1103.8 1504.7C1084.53 1496.8 1071.8 1477.82 1071.8 1456.98L1071.8 1344.05C1071.8 1329.97 1085.77 1320.59 1098.79 1325.93L1196.85 1366.11C1216.12 1374.01 1228.85 1392.99 1228.85 1413.83L1228.85 1526.78C1228.85 1540.87 1214.88 1550.24 1201.86 1544.9L1103.8 1504.7Z" fill="#ffffff" tag='leftPanel' />
<path d="M1243.88 1418.57C1243.88 1397.28 1257.19 1377.97 1277.09 1370.4L1380.38 1331.12C1393.33 1326.2 1406.9 1335.56 1406.9 1349.42L1406.9 1460.49C1406.9 1481.79 1393.59 1501.1 1373.68 1508.66L1270.4 1547.9C1257.45 1552.82 1243.88 1543.46 1243.88 1529.6L1243.88 1418.57Z" fill="#ffffff" tag='rightPanel' />
<path d="M1260.58 1360.41C1248.26 1365.09 1234.56 1364.91 1222.39 1359.89L1116.35 1316.17C1107.97 1312.72 1108.16 1301.09 1116.66 1297.89L1226.81 1256.36C1239.04 1251.76 1252.62 1251.94 1264.7 1256.88L1370.86 1300.26C1379.25 1303.69 1379.09 1315.32 1370.61 1318.55L1260.58 1360.41Z" fill="#ffffff" tag='topPanel' />
<path d="M1634.96 1766.7C1615.69 1758.8 1602.96 1739.82 1602.96 1718.98L1602.96 1606.05C1602.96 1591.97 1616.93 1582.59 1629.95 1587.93L1728.01 1628.11C1747.28 1636.01 1760.01 1654.99 1760.01 1675.83L1760.01 1788.78C1760.01 1802.87 1746.04 1812.24 1733.02 1806.9L1634.96 1766.7Z" fill="#ffffff" tag='leftPanel' />
<path d="M1775.04 1680.57C1775.04 1659.28 1788.35 1639.97 1808.25 1632.4L1911.53 1593.12C1924.48 1588.2 1938.06 1597.56 1938.06 1611.42L1938.06 1722.49C1938.06 1743.79 1924.74 1763.1 1904.84 1770.66L1801.56 1809.9C1788.61 1814.82 1775.04 1805.46 1775.04 1791.6L1775.04 1680.57Z" fill="#ffffff" tag='rightPanel' />
<path d="M1791.73 1622.41C1779.42 1627.09 1765.72 1626.91 1753.55 1621.89L1647.51 1578.17C1639.13 1574.72 1639.32 1563.09 1647.81 1559.89L1757.97 1518.36C1770.2 1513.76 1783.78 1513.94 1795.86 1518.88L1902.02 1562.26C1910.41 1565.69 1910.25 1577.32 1901.77 1580.55L1791.73 1622.41Z" fill="#ffffff" tag='topPanel' />
<path d="M1280.85 1766.7C1261.58 1758.8 1248.86 1739.82 1248.86 1718.98L1248.86 1606.05C1248.86 1591.97 1262.82 1582.59 1275.85 1587.93L1373.9 1628.11C1393.17 1636.01 1405.9 1654.99 1405.9 1675.83L1405.9 1788.78C1405.9 1802.87 1391.94 1812.24 1378.91 1806.9L1280.85 1766.7Z" fill="#ffffff" tag='leftPanel' />
<path d="M1420.93 1680.57C1420.93 1659.28 1434.24 1639.97 1454.15 1632.4L1557.43 1593.12C1570.38 1588.2 1583.96 1597.56 1583.96 1611.42L1583.96 1722.49C1583.96 1743.79 1570.64 1763.1 1550.73 1770.66L1447.46 1809.9C1434.51 1814.82 1420.93 1805.46 1420.93 1791.6L1420.93 1680.57Z" fill="#ffffff" tag='rightPanel' />
<path d="M1437.63 1622.41C1425.31 1627.09 1411.61 1626.91 1399.44 1621.89L1293.4 1578.17C1285.02 1574.72 1285.22 1563.09 1293.71 1559.89L1403.86 1518.36C1416.09 1513.76 1429.67 1513.94 1441.75 1518.88L1547.91 1562.26C1556.3 1565.69 1556.14 1577.32 1547.66 1580.55L1437.63 1622.41Z" fill="#ffffff" tag='topPanel' />
<path d="M-132.569 194.699C-151.835 186.8 -164.563 167.818 -164.563 146.984L-164.563 34.0519C-164.563 19.9695 -150.598 10.5917 -137.574 15.9286L-39.52 56.1083C-20.2483 64.0052 -7.51624 82.9894 -7.51624 103.827L-7.51624 216.783C-7.51624 230.867 -21.4846 240.245 -34.5091 234.905L-132.569 194.699Z" fill="#ffffff" tag='leftPanel' />
<path d="M7.51221 108.571C7.51221 87.2769 20.8226 67.9732 40.7246 60.4042L144.008 21.1245C156.959 16.1989 170.537 25.5628 170.537 39.4202L170.537 150.487C170.537 171.788 157.219 191.095 137.309 198.66L34.0353 237.899C21.0851 242.82 7.51221 233.456 7.51221 219.601L7.51221 108.571Z" fill="#ffffff" tag='rightPanel' />
<path d="M24.209 50.4093C11.8939 55.0945 -1.80892 54.9093 -13.9755 49.8933L-120.02 6.17311C-128.399 2.71837 -128.202 -8.91269 -119.71 -12.1137L-9.55573 -53.635C2.67159 -58.2439 16.2525 -58.0605 28.3338 -53.1233L134.492 -9.73983C142.883 -6.3108 142.724 5.3209 134.242 8.54781L24.209 50.4093Z" fill="#ffffff" tag='topPanel' />
<path d="M43.4836 456.699C24.2169 448.8 11.4895 429.818 11.4895 408.984L11.4896 296.052C11.4896 281.969 25.4548 272.592 38.4786 277.929L136.532 318.108C155.804 326.005 168.536 344.989 168.536 365.827L168.536 478.783C168.536 492.867 154.568 502.245 141.543 496.905L43.4836 456.699Z" fill="#ffffff" tag='leftPanel' />
<path d="M183.565 370.571C183.565 349.277 196.875 329.973 216.777 322.404L320.06 283.124C333.011 278.199 346.589 287.563 346.589 301.42L346.589 412.487C346.589 433.788 333.271 453.095 313.362 460.66L210.088 499.899C197.137 504.82 183.565 495.456 183.565 481.601L183.565 370.571Z" fill="#ffffff" tag='rightPanel' />
<path d="M200.261 312.409C187.946 317.095 174.243 316.909 162.077 311.893L56.0328 268.173C47.6532 264.718 47.85 253.087 56.3421 249.886L166.497 208.365C178.724 203.756 192.305 203.94 204.386 208.877L310.544 252.26C318.935 255.689 318.776 267.321 310.294 270.548L200.261 312.409Z" fill="#ffffff" tag='topPanel' />
<path d="M219.536 718.699C200.269 710.8 187.542 691.818 187.542 670.984L187.542 558.052C187.542 543.97 201.507 534.592 214.531 539.929L312.585 580.108C331.856 588.005 344.588 606.989 344.588 627.827L344.588 740.783C344.588 754.867 330.62 764.245 317.596 758.905L219.536 718.699Z" fill="#ffffff" tag='leftPanel' />
<path d="M359.617 632.571C359.617 611.277 372.927 591.973 392.829 584.404L496.112 545.124C509.063 540.199 522.641 549.563 522.641 563.42L522.641 674.487C522.641 695.788 509.324 715.095 489.414 722.66L386.14 761.899C373.19 766.82 359.617 757.456 359.617 743.601L359.617 632.571Z" fill="#ffffff" tag='rightPanel' />
<path d="M376.314 574.409C363.999 579.095 350.296 578.909 338.129 573.893L232.085 530.173C223.706 526.718 223.902 515.087 232.394 511.886L342.549 470.365C354.776 465.756 368.357 465.94 380.438 470.877L486.597 514.26C494.987 517.689 494.828 529.321 486.346 532.548L376.314 574.409Z" fill="#ffffff" tag='topPanel' />
<path d="M-134.569 718.699C-153.836 710.8 -166.563 691.818 -166.563 670.984L-166.563 558.052C-166.563 543.97 -152.598 534.592 -139.574 539.929L-41.5205 580.108C-22.2489 588.005 -9.51683 606.989 -9.51683 627.827L-9.51684 740.783C-9.51684 754.867 -23.4852 764.245 -36.5097 758.905L-134.569 718.699Z" fill="#ffffff" tag='leftPanel' />
<path d="M5.51163 632.571C5.51163 611.277 18.822 591.973 38.724 584.404L142.007 545.124C154.958 540.199 168.536 549.563 168.536 563.42L168.536 674.487C168.536 695.788 155.218 715.095 135.309 722.66L32.0347 761.899C19.0845 766.82 5.51163 757.456 5.51163 743.601L5.51163 632.571Z" fill="#ffffff" tag='rightPanel' />
<path d="M22.2084 574.409C9.89332 579.095 -3.80953 578.909 -15.9761 573.893L-122.02 530.173C-130.4 526.718 -130.203 515.087 -121.711 511.886L-11.5563 470.365C0.670984 465.756 14.2519 465.94 26.3332 470.877L132.491 514.26C140.882 517.689 140.723 529.321 132.241 532.548L22.2084 574.409Z" fill="#ffffff" tag='topPanel' />
<path d="M396.589 980.699C377.322 972.8 364.594 953.818 364.594 932.984L364.595 820.052C364.595 805.97 378.56 796.592 391.584 801.929L489.637 842.108C508.909 850.005 521.641 868.989 521.641 889.827L521.641 1002.78C521.641 1016.87 507.673 1026.24 494.648 1020.9L396.589 980.699Z" fill="#ffffff" tag='leftPanel' />
<path d="M536.67 894.571C536.67 873.277 549.98 853.973 569.882 846.404L673.165 807.124C686.116 802.199 699.694 811.563 699.694 825.42L699.694 936.487C699.694 957.788 686.376 977.095 666.467 984.66L563.193 1023.9C550.242 1028.82 536.669 1019.46 536.669 1005.6L536.67 894.571Z" fill="#ffffff" tag='rightPanel' />
<path d="M553.366 836.409C541.051 841.095 527.348 840.909 515.182 835.893L409.138 792.173C400.758 788.718 400.955 777.087 409.447 773.886L519.602 732.365C531.829 727.756 545.41 727.94 557.491 732.877L663.649 776.26C672.04 779.689 671.881 791.321 663.399 794.548L553.366 836.409Z" fill="#ffffff" tag='topPanel' />
<path d="M42.4833 980.699C23.2167 972.8 10.4892 953.818 10.4892 932.984L10.4893 820.052C10.4893 805.97 24.4545 796.592 37.4783 801.929L135.532 842.108C154.804 850.005 167.536 868.989 167.536 889.827L167.536 1002.78C167.536 1016.87 153.567 1026.24 140.543 1020.9L42.4833 980.699Z" fill="#ffffff" tag='leftPanel' />
<path d="M182.564 894.571C182.564 873.277 195.875 853.973 215.777 846.404L319.06 807.124C332.011 802.199 345.589 811.563 345.589 825.42L345.589 936.487C345.589 957.788 332.271 977.095 312.361 984.66L209.087 1023.9C196.137 1028.82 182.564 1019.46 182.564 1005.6L182.564 894.571Z" fill="#ffffff" tag='rightPanel' />
<path d="M199.261 836.409C186.946 841.095 173.243 840.909 161.077 835.893L55.0325 792.173C46.653 788.718 46.8497 777.087 55.3418 773.886L165.496 732.365C177.724 727.756 191.305 727.94 203.386 732.877L309.544 776.26C317.935 779.689 317.776 791.321 309.294 794.548L199.261 836.409Z" fill="#ffffff" tag='topPanel' />
<path d="M42.4833 980.699C23.2167 972.8 10.4892 953.818 10.4892 932.984L10.4893 820.052C10.4893 805.97 24.4545 796.592 37.4783 801.929L135.532 842.108C154.804 850.005 167.536 868.989 167.536 889.827L167.536 1002.78C167.536 1016.87 153.567 1026.24 140.543 1020.9L42.4833 980.699Z" fill="#ffffff" tag='leftPanel' />
<path d="M182.564 894.571C182.564 873.277 195.875 853.973 215.777 846.404L319.06 807.124C332.011 802.199 345.589 811.563 345.589 825.42L345.589 936.487C345.589 957.788 332.271 977.095 312.361 984.66L209.087 1023.9C196.137 1028.82 182.564 1019.46 182.564 1005.6L182.564 894.571Z" fill="#ffffff" tag='rightPanel' />
<path d="M199.261 836.409C186.946 841.095 173.243 840.909 161.077 835.893L55.0325 792.173C46.653 788.718 46.8497 777.087 55.3418 773.886L165.496 732.365C177.724 727.756 191.305 727.94 203.386 732.877L309.544 776.26C317.935 779.689 317.776 791.321 309.294 794.548L199.261 836.409Z" fill="#ffffff" tag='topPanel' />
<path d="M-136.57 1242.7C-155.837 1234.8 -168.564 1215.82 -168.564 1194.98L-168.564 1082.05C-168.564 1067.97 -154.599 1058.59 -141.575 1063.93L-43.5211 1104.11C-24.2495 1112.01 -11.5174 1130.99 -11.5174 1151.83L-11.5174 1264.78C-11.5174 1278.87 -25.4858 1288.24 -38.5103 1282.9L-136.57 1242.7Z" fill="#ffffff" tag='leftPanel' />
<path d="M3.51102 1156.57C3.51102 1135.28 16.8214 1115.97 36.7234 1108.4L140.006 1069.12C152.958 1064.2 166.535 1073.56 166.535 1087.42L166.535 1198.49C166.535 1219.79 153.218 1239.1 133.308 1246.66L30.0341 1285.9C17.0839 1290.82 3.51102 1281.46 3.51102 1267.6L3.51102 1156.57Z" fill="#ffffff" tag='rightPanel' />
<path d="M20.2078 1098.41C7.89274 1103.09 -5.81011 1102.91 -17.9767 1097.89L-124.021 1054.17C-132.4 1050.72 -132.203 1039.09 -123.711 1035.89L-13.5569 994.365C-1.3296 989.756 12.2513 989.94 24.3326 994.877L130.491 1038.26C138.882 1041.69 138.722 1053.32 130.24 1056.55L20.2078 1098.41Z" fill="#ffffff" tag='topPanel' />
<path d="M572.641 1242.7C553.374 1234.8 540.647 1215.82 540.647 1194.98L540.647 1082.05C540.647 1067.97 554.612 1058.59 567.636 1063.93L665.69 1104.11C684.961 1112.01 697.693 1130.99 697.693 1151.83L697.693 1264.78C697.693 1278.87 683.725 1288.24 670.7 1282.9L572.641 1242.7Z" fill="#ffffff" tag='leftPanel' />
<path d="M712.722 1156.57C712.722 1135.28 726.032 1115.97 745.934 1108.4L849.217 1069.12C862.168 1064.2 875.746 1073.56 875.746 1087.42L875.746 1198.49C875.746 1219.79 862.429 1239.1 842.519 1246.66L739.245 1285.9C726.295 1290.82 712.722 1281.46 712.722 1267.6L712.722 1156.57Z" fill="#ffffff" tag='rightPanel' />
<path d="M729.418 1098.41C717.103 1103.09 703.4 1102.91 691.234 1097.89L585.19 1054.17C576.81 1050.72 577.007 1039.09 585.499 1035.89L695.654 994.365C707.881 989.756 721.462 989.939 733.543 994.877L839.701 1038.26C848.092 1041.69 847.933 1053.32 839.451 1056.55L729.418 1098.41Z" fill="#ffffff" tag='topPanel' />
<path d="M218.536 1242.7C199.269 1234.8 186.541 1215.82 186.542 1194.98L186.542 1082.05C186.542 1067.97 200.507 1058.59 213.531 1063.93L311.584 1104.11C330.856 1112.01 343.588 1130.99 343.588 1151.83L343.588 1264.78C343.588 1278.87 329.62 1288.24 316.595 1282.9L218.536 1242.7Z" fill="#ffffff" tag='leftPanel' />
<path d="M358.617 1156.57C358.617 1135.28 371.927 1115.97 391.829 1108.4L495.112 1069.12C508.063 1064.2 521.641 1073.56 521.641 1087.42L521.641 1198.49C521.641 1219.79 508.323 1239.1 488.414 1246.66L385.14 1285.9C372.189 1290.82 358.617 1281.46 358.617 1267.6L358.617 1156.57Z" fill="#ffffff" tag='rightPanel' />
<path d="M375.313 1098.41C362.998 1103.09 349.295 1102.91 337.129 1097.89L231.085 1054.17C222.705 1050.72 222.902 1039.09 231.394 1035.89L341.549 994.365C353.776 989.756 367.357 989.94 379.438 994.877L485.596 1038.26C493.987 1041.69 493.828 1053.32 485.346 1056.55L375.313 1098.41Z" fill="#ffffff" tag='topPanel' />
<path d="M748.693 1504.7C729.427 1496.8 716.699 1477.82 716.699 1456.98L716.699 1344.05C716.699 1329.97 730.664 1320.59 743.688 1325.93L841.742 1366.11C861.014 1374.01 873.746 1392.99 873.746 1413.83L873.746 1526.78C873.746 1540.87 859.777 1550.24 846.753 1544.9L748.693 1504.7Z" fill="#ffffff" tag='leftPanel' />
<path d="M888.774 1418.57C888.774 1397.28 902.085 1377.97 921.987 1370.4L1025.27 1331.12C1038.22 1326.2 1051.8 1335.56 1051.8 1349.42L1051.8 1460.49C1051.8 1481.79 1038.48 1501.1 1018.57 1508.66L915.297 1547.9C902.347 1552.82 888.774 1543.46 888.774 1529.6L888.774 1418.57Z" fill="#ffffff" tag='rightPanel' />
<path d="M905.471 1360.41C893.156 1365.09 879.453 1364.91 867.286 1359.89L761.242 1316.17C752.863 1312.72 753.059 1301.09 761.551 1297.89L871.706 1256.36C883.933 1251.76 897.514 1251.94 909.595 1256.88L1015.75 1300.26C1024.14 1303.69 1023.99 1315.32 1015.5 1318.55L905.471 1360.41Z" fill="#ffffff" tag='topPanel' />
<path d="M394.588 1504.7C375.321 1496.8 362.594 1477.82 362.594 1456.98L362.594 1344.05C362.594 1329.97 376.559 1320.59 389.583 1325.93L487.637 1366.11C506.908 1374.01 519.64 1392.99 519.64 1413.83L519.64 1526.78C519.64 1540.87 505.672 1550.24 492.648 1544.9L394.588 1504.7Z" fill="#ffffff" tag='leftPanel' />
<path d="M534.669 1418.57C534.669 1397.28 547.979 1377.97 567.881 1370.4L671.164 1331.12C684.115 1326.2 697.693 1335.56 697.693 1349.42L697.693 1460.49C697.693 1481.79 684.376 1501.1 664.466 1508.66L561.192 1547.9C548.242 1552.82 534.669 1543.46 534.669 1529.6L534.669 1418.57Z" fill="#ffffff" tag='rightPanel' />
<path d="M551.366 1360.41C539.051 1365.09 525.348 1364.91 513.181 1359.89L407.137 1316.17C398.758 1312.72 398.954 1301.09 407.446 1297.89L517.601 1256.37C529.828 1251.76 543.409 1251.94 555.49 1256.88L661.649 1300.26C670.039 1303.69 669.88 1315.32 661.398 1318.55L551.366 1360.41Z" fill="#ffffff" tag='topPanel' />
<path d="M925.746 1766.7C906.479 1758.8 893.752 1739.82 893.752 1718.98L893.752 1606.05C893.752 1591.97 907.717 1582.59 920.741 1587.93L1018.79 1628.11C1038.07 1636.01 1050.8 1654.99 1050.8 1675.83L1050.8 1788.78C1050.8 1802.87 1036.83 1812.24 1023.81 1806.9L925.746 1766.7Z" fill="#ffffff" tag='leftPanel' />
<path d="M1065.83 1680.57C1065.83 1659.28 1079.14 1639.97 1099.04 1632.4L1202.32 1593.12C1215.27 1588.2 1228.85 1597.56 1228.85 1611.42L1228.85 1722.49C1228.85 1743.79 1215.53 1763.1 1195.62 1770.66L1092.35 1809.9C1079.4 1814.82 1065.83 1805.46 1065.83 1791.6L1065.83 1680.57Z" fill="#ffffff" tag='rightPanel' />
<path d="M1082.52 1622.41C1070.21 1627.09 1056.51 1626.91 1044.34 1621.89L938.295 1578.17C929.915 1574.72 930.112 1563.09 938.604 1559.89L1048.76 1518.36C1060.99 1513.76 1074.57 1513.94 1086.65 1518.88L1192.81 1562.26C1201.2 1565.69 1201.04 1577.32 1192.56 1580.55L1082.52 1622.41Z" fill="#ffffff" tag='topPanel' />
<path d="M571.641 1766.7C552.374 1758.8 539.646 1739.82 539.646 1718.98L539.647 1606.05C539.647 1591.97 553.612 1582.59 566.636 1587.93L664.689 1628.11C683.961 1636.01 696.693 1654.99 696.693 1675.83L696.693 1788.78C696.693 1802.87 682.725 1812.24 669.7 1806.9L571.641 1766.7Z" fill="#ffffff" tag='leftPanel' />
<path d="M711.722 1680.57C711.722 1659.28 725.032 1639.97 744.934 1632.4L848.217 1593.12C861.168 1588.2 874.746 1597.56 874.746 1611.42L874.746 1722.49C874.746 1743.79 861.428 1763.1 841.519 1770.66L738.245 1809.9C725.294 1814.82 711.721 1805.46 711.721 1791.6L711.722 1680.57Z" fill="#ffffff" tag='rightPanel' />
<path d="M728.418 1622.41C716.103 1627.09 702.4 1626.91 690.234 1621.89L584.19 1578.17C575.81 1574.72 576.007 1563.09 584.499 1559.89L694.653 1518.36C706.881 1513.76 720.462 1513.94 732.543 1518.88L838.701 1562.26C847.092 1565.69 846.933 1577.32 838.451 1580.55L728.418 1622.41Z" fill="#ffffff" tag='topPanel' />
<path d="M39.4824 1504.7C20.2158 1496.8 7.48827 1477.82 7.48829 1456.98L7.48839 1344.05C7.4884 1329.97 21.4536 1320.59 34.4774 1325.93L132.531 1366.11C151.803 1374.01 164.535 1392.99 164.535 1413.83L164.535 1526.78C164.535 1540.87 150.567 1550.24 137.542 1544.9L39.4824 1504.7Z" fill="#ffffff" tag='leftPanel' />
<path d="M179.563 1418.57C179.563 1397.28 192.874 1377.97 212.776 1370.4L316.059 1331.12C329.01 1326.2 342.588 1335.56 342.588 1349.42L342.588 1460.49C342.588 1481.79 329.27 1501.1 309.361 1508.66L206.086 1547.9C193.136 1552.82 179.563 1543.46 179.563 1529.6L179.563 1418.57Z" fill="#ffffff" tag='rightPanel' />
<path d="M196.26 1360.41C183.945 1365.09 170.242 1364.91 158.076 1359.89L52.0316 1316.17C43.6521 1312.72 43.8488 1301.09 52.3409 1297.89L162.495 1256.37C174.723 1251.76 188.304 1251.94 200.385 1256.88L306.543 1300.26C314.934 1303.69 314.775 1315.32 306.293 1318.55L196.26 1360.41Z" fill="#ffffff" tag='topPanel' />
<path d="M216.535 1766.7C197.268 1758.8 184.541 1739.82 184.541 1718.98L184.541 1606.05C184.541 1591.97 198.506 1582.59 211.53 1587.93L309.584 1628.11C328.855 1636.01 341.587 1654.99 341.587 1675.83L341.587 1788.78C341.587 1802.87 327.619 1812.24 314.595 1806.9L216.535 1766.7Z" fill="#ffffff" tag='leftPanel' />
<path d="M356.616 1680.57C356.616 1659.28 369.926 1639.97 389.828 1632.4L493.111 1593.12C506.063 1588.2 519.64 1597.56 519.64 1611.42L519.64 1722.49C519.64 1743.79 506.323 1763.1 486.413 1770.66L383.139 1809.9C370.189 1814.82 356.616 1805.46 356.616 1791.6L356.616 1680.57Z" fill="#ffffff" tag='rightPanel' />
<path d="M373.313 1622.41C360.998 1627.09 347.295 1626.91 335.128 1621.89L229.084 1578.17C220.705 1574.72 220.901 1563.09 229.394 1559.89L339.548 1518.37C351.775 1513.76 365.356 1513.94 377.438 1518.88L483.596 1562.26C491.986 1565.69 491.827 1577.32 483.345 1580.55L373.313 1622.41Z" fill="#ffffff" tag='topPanel' />
<path d="M-137.57 1766.7C-156.837 1758.8 -169.564 1739.82 -169.564 1718.98L-169.564 1606.05C-169.564 1591.97 -155.599 1582.59 -142.575 1587.93L-44.5214 1628.11C-25.2498 1636.01 -12.5177 1654.99 -12.5177 1675.83L-12.5177 1788.78C-12.5177 1802.87 -26.4861 1812.24 -39.5106 1806.9L-137.57 1766.7Z" fill="#ffffff" tag='leftPanel' />
<path d="M2.51072 1680.57C2.51072 1659.28 15.8211 1639.97 35.7231 1632.4L139.006 1593.12C151.957 1588.2 165.535 1597.56 165.535 1611.42L165.535 1722.49C165.535 1743.79 152.218 1763.1 132.308 1770.66L29.0338 1809.9C16.0836 1814.82 2.51071 1805.46 2.51071 1791.6L2.51072 1680.57Z" fill="#ffffff" tag='rightPanel' />
<path d="M19.2075 1622.41C6.89242 1627.09 -6.81043 1626.91 -18.977 1621.89L-125.021 1578.17C-133.401 1574.72 -133.204 1563.09 -124.712 1559.89L-14.5572 1518.37C-2.32992 1513.76 11.251 1513.94 23.3323 1518.88L129.49 1562.26C137.881 1565.69 137.722 1577.32 129.24 1580.55L19.2075 1622.41Z" fill="#ffffff" tag='topPanel' />
<path d="M2522.22 2028.7C2502.95 2020.8 2490.23 2001.82 2490.23 1980.98L2490.23 1868.05C2490.23 1853.97 2504.19 1844.59 2517.22 1849.93L2615.27 1890.11C2634.54 1898 2647.27 1916.99 2647.27 1937.83L2647.27 2050.78C2647.27 2064.87 2633.3 2074.24 2620.28 2068.9L2522.22 2028.7Z" fill="#ffffff" tag='leftPanel' />
<path d="M2662.3 1942.57C2662.3 1921.28 2675.61 1901.97 2695.51 1894.4L2798.8 1855.12C2811.75 1850.2 2825.33 1859.56 2825.33 1873.42L2825.33 1984.49C2825.33 2005.79 2812.01 2025.1 2792.1 2032.66L2688.82 2071.9C2675.87 2076.82 2662.3 2067.46 2662.3 2053.6L2662.3 1942.57Z" fill="#ffffff" tag='rightPanel' />
<path d="M2679 1884.41C2666.68 1889.09 2652.98 1888.91 2640.81 1883.89L2534.77 1840.17C2526.39 1836.72 2526.59 1825.09 2535.08 1821.89L2645.23 1780.36C2657.46 1775.76 2671.04 1775.94 2683.12 1780.88L2789.28 1824.26C2797.67 1827.69 2797.51 1839.32 2789.03 1842.55L2679 1884.41Z" fill="#ffffff" tag='topPanel' />
<path d="M2168.11 2028.7C2148.85 2020.8 2136.12 2001.82 2136.12 1980.98L2136.12 1868.05C2136.12 1853.97 2150.09 1844.59 2163.11 1849.93L2261.16 1890.11C2280.44 1898 2293.17 1916.99 2293.17 1937.83L2293.17 2050.78C2293.17 2064.87 2279.2 2074.24 2266.17 2068.9L2168.11 2028.7Z" fill="#ffffff" tag='leftPanel' />
<path d="M2308.2 1942.57C2308.2 1921.28 2321.51 1901.97 2341.41 1894.4L2444.69 1855.12C2457.64 1850.2 2471.22 1859.56 2471.22 1873.42L2471.22 1984.49C2471.22 2005.79 2457.9 2025.1 2437.99 2032.66L2334.72 2071.9C2321.77 2076.82 2308.2 2067.46 2308.2 2053.6L2308.2 1942.57Z" fill="#ffffff" tag='rightPanel' />
<path d="M2324.89 1884.41C2312.58 1889.09 2298.87 1888.91 2286.71 1883.89L2180.66 1840.17C2172.28 1836.72 2172.48 1825.09 2180.97 1821.89L2291.13 1780.36C2303.35 1775.76 2316.94 1775.94 2329.02 1780.88L2435.18 1824.26C2443.57 1827.69 2443.41 1839.32 2434.92 1842.55L2324.89 1884.41Z" fill="#ffffff" tag='topPanel' />
<path d="M3232.43 2028.7C3213.16 2020.8 3200.44 2001.82 3200.44 1980.98L3200.44 1868.05C3200.44 1853.97 3214.4 1844.59 3227.43 1849.93L3325.48 1890.11C3344.75 1898 3357.48 1916.99 3357.48 1937.83L3357.48 2050.78C3357.48 2064.87 3343.52 2074.24 3330.49 2068.9L3232.43 2028.7Z" fill="#ffffff" tag='leftPanel' />
<path d="M3389.21 1884.41C3376.89 1889.09 3363.19 1888.91 3351.02 1883.89L3244.98 1840.17C3236.6 1836.72 3236.8 1825.09 3245.29 1821.89L3355.44 1780.36C3367.67 1775.76 3381.25 1775.94 3393.33 1780.88L3499.49 1824.26C3507.88 1827.69 3507.72 1839.32 3499.24 1842.55L3389.21 1884.41Z" fill="#ffffff" tag='topPanel' />
<path d="M2878.33 2028.7C2859.06 2020.8 2846.33 2001.82 2846.33 1980.98L2846.33 1868.05C2846.33 1853.97 2860.3 1844.59 2873.32 1849.93L2971.37 1890.11C2990.65 1898 3003.38 1916.99 3003.38 1937.83L3003.38 2050.78C3003.38 2064.87 2989.41 2074.24 2976.39 2068.9L2878.33 2028.7Z" fill="#ffffff" tag='leftPanel' />
<path d="M3018.41 1942.57C3018.41 1921.28 3031.72 1901.97 3051.62 1894.4L3154.9 1855.12C3167.85 1850.2 3181.43 1859.56 3181.43 1873.42L3181.43 1984.49C3181.43 2005.79 3168.11 2025.1 3148.2 2032.66L3044.93 2071.9C3031.98 2076.82 3018.41 2067.46 3018.41 2053.6L3018.41 1942.57Z" fill="#ffffff" tag='rightPanel' />
<path d="M3035.1 1884.41C3022.79 1889.09 3009.09 1888.91 2996.92 1883.89L2890.88 1840.17C2882.5 1836.72 2882.69 1825.09 2891.18 1821.89L3001.34 1780.36C3013.57 1775.76 3027.15 1775.94 3039.23 1780.88L3145.39 1824.26C3153.78 1827.69 3153.62 1839.32 3145.14 1842.55L3035.1 1884.41Z" fill="#ffffff" tag='topPanel' />
<path d="M1812.01 2028.7C1792.74 2020.8 1780.02 2001.82 1780.02 1980.98L1780.02 1868.05C1780.02 1853.97 1793.98 1844.59 1807 1849.93L1905.06 1890.11C1924.33 1898 1937.06 1916.99 1937.06 1937.83L1937.06 2050.78C1937.06 2064.87 1923.09 2074.24 1910.07 2068.9L1812.01 2028.7Z" fill="#ffffff" tag='leftPanel' />
<path d="M1952.09 1942.57C1952.09 1921.28 1965.4 1901.97 1985.3 1894.4L2088.59 1855.12C2101.54 1850.2 2115.11 1859.56 2115.11 1873.42L2115.11 1984.49C2115.11 2005.79 2101.8 2025.1 2081.89 2032.66L1978.61 2071.9C1965.66 2076.82 1952.09 2067.46 1952.09 2053.6L1952.09 1942.57Z" fill="#ffffff" tag='rightPanel' />
<path d="M1968.79 1884.41C1956.47 1889.09 1942.77 1888.91 1930.6 1883.89L1824.56 1840.17C1816.18 1836.72 1816.38 1825.09 1824.87 1821.89L1935.02 1780.36C1947.25 1775.76 1960.83 1775.94 1972.91 1780.88L2079.07 1824.26C2087.46 1827.69 2087.3 1839.32 2078.82 1842.55L1968.79 1884.41Z" fill="#ffffff" tag='topPanel' />
<path d="M1457.9 2028.7C1438.64 2020.8 1425.91 2001.82 1425.91 1980.98L1425.91 1868.05C1425.91 1853.97 1439.88 1844.59 1452.9 1849.93L1550.95 1890.11C1570.22 1898 1582.96 1916.99 1582.96 1937.83L1582.96 2050.78C1582.96 2064.87 1568.99 2074.24 1555.96 2068.9L1457.9 2028.7Z" fill="#ffffff" tag='leftPanel' />
<path d="M1597.99 1942.57C1597.99 1921.28 1611.3 1901.97 1631.2 1894.4L1734.48 1855.12C1747.43 1850.2 1761.01 1859.56 1761.01 1873.42L1761.01 1984.49C1761.01 2005.79 1747.69 2025.1 1727.78 2032.66L1624.51 2071.9C1611.56 2076.82 1597.99 2067.46 1597.99 2053.6L1597.99 1942.57Z" fill="#ffffff" tag='rightPanel' />
<path d="M1614.68 1884.41C1602.37 1889.09 1588.66 1888.91 1576.5 1883.89L1470.45 1840.17C1462.07 1836.72 1462.27 1825.09 1470.76 1821.89L1580.92 1780.36C1593.14 1775.76 1606.72 1775.94 1618.81 1780.88L1724.96 1824.26C1733.36 1827.69 1733.2 1839.32 1724.71 1842.55L1614.68 1884.41Z" fill="#ffffff" tag='topPanel' />
<path d="M1102.8 2028.7C1083.53 2020.8 1070.8 2001.82 1070.8 1980.98L1070.8 1868.05C1070.8 1853.97 1084.77 1844.59 1097.79 1849.93L1195.85 1890.11C1215.12 1898 1227.85 1916.99 1227.85 1937.83L1227.85 2050.78C1227.85 2064.87 1213.88 2074.24 1200.86 2068.9L1102.8 2028.7Z" fill="#ffffff" tag='leftPanel' />
<path d="M1242.88 1942.57C1242.88 1921.28 1256.19 1901.97 1276.09 1894.4L1379.37 1855.12C1392.33 1850.2 1405.9 1859.56 1405.9 1873.42L1405.9 1984.49C1405.9 2005.79 1392.59 2025.1 1372.68 2032.66L1269.4 2071.9C1256.45 2076.82 1242.88 2067.46 1242.88 2053.6L1242.88 1942.57Z" fill="#ffffff" tag='rightPanel' />
<path d="M1259.58 1884.41C1247.26 1889.09 1233.56 1888.91 1221.39 1883.89L1115.35 1840.17C1106.97 1836.72 1107.16 1825.09 1115.66 1821.89L1225.81 1780.36C1238.04 1775.76 1251.62 1775.94 1263.7 1780.88L1369.86 1824.26C1378.25 1827.69 1378.09 1839.32 1369.61 1842.55L1259.58 1884.41Z" fill="#ffffff" tag='topPanel' />
<path d="M748.693 2028.7C729.427 2020.8 716.699 2001.82 716.699 1980.98L716.699 1868.05C716.699 1853.97 730.664 1844.59 743.688 1849.93L841.742 1890.11C861.014 1898 873.746 1916.99 873.746 1937.83L873.746 2050.78C873.746 2064.87 859.777 2074.24 846.753 2068.9L748.693 2028.7Z" fill="#ffffff" tag='leftPanel' />
<path d="M888.774 1942.57C888.774 1921.28 902.085 1901.97 921.987 1894.4L1025.27 1855.12C1038.22 1850.2 1051.8 1859.56 1051.8 1873.42L1051.8 1984.49C1051.8 2005.79 1038.48 2025.1 1018.57 2032.66L915.297 2071.9C902.347 2076.82 888.774 2067.46 888.774 2053.6L888.774 1942.57Z" fill="#ffffff" tag='rightPanel' />
<path d="M905.471 1884.41C893.156 1889.09 879.453 1888.91 867.286 1883.89L761.242 1840.17C752.863 1836.72 753.059 1825.09 761.551 1821.89L871.706 1780.36C883.933 1775.76 897.514 1775.94 909.595 1780.88L1015.75 1824.26C1024.14 1827.69 1023.99 1839.32 1015.5 1842.55L905.471 1884.41Z" fill="#ffffff" tag='topPanel' />
<path d="M393.588 2028.7C374.321 2020.8 361.593 2001.82 361.594 1980.98L361.594 1868.05C361.594 1853.97 375.559 1844.59 388.583 1849.93L486.636 1890.11C505.908 1898 518.64 1916.99 518.64 1937.83L518.64 2050.78C518.64 2064.87 504.672 2074.24 491.647 2068.9L393.588 2028.7Z" fill="#ffffff" tag='leftPanel' />
<path d="M533.669 1942.57C533.669 1921.28 546.979 1901.97 566.881 1894.4L670.164 1855.12C683.115 1850.2 696.693 1859.56 696.693 1873.42L696.693 1984.49C696.693 2005.79 683.375 2025.1 663.466 2032.66L560.192 2071.9C547.241 2076.82 533.669 2067.46 533.669 2053.6L533.669 1942.57Z" fill="#ffffff" tag='rightPanel' />
<path d="M550.365 1884.41C538.05 1889.09 524.347 1888.91 512.181 1883.89L406.137 1840.17C397.757 1836.72 397.954 1825.09 406.446 1821.89L516.601 1780.37C528.828 1775.76 542.409 1775.94 554.49 1780.88L660.648 1824.26C669.039 1827.69 668.88 1839.32 660.398 1842.55L550.365 1884.41Z" fill="#ffffff" tag='topPanel' />
<path d="M39.4824 2028.7C20.2158 2020.8 7.48827 2001.82 7.48829 1980.98L7.48839 1868.05C7.4884 1853.97 21.4536 1844.59 34.4774 1849.93L132.531 1890.11C151.803 1898 164.535 1916.99 164.535 1937.83L164.535 2050.78C164.535 2064.87 150.567 2074.24 137.542 2068.9L39.4824 2028.7Z" fill="#ffffff" tag='leftPanel' />
<path d="M179.563 1942.57C179.563 1921.28 192.874 1901.97 212.776 1894.4L316.059 1855.12C329.01 1850.2 342.588 1859.56 342.588 1873.42L342.588 1984.49C342.588 2005.79 329.27 2025.1 309.361 2032.66L206.086 2071.9C193.136 2076.82 179.563 2067.46 179.563 2053.6L179.563 1942.57Z" fill="#ffffff" tag='rightPanel' />
<path d="M196.26 1884.41C183.945 1889.09 170.242 1888.91 158.076 1883.89L52.0316 1840.17C43.6521 1836.72 43.8488 1825.09 52.3409 1821.89L162.495 1780.37C174.723 1775.76 188.304 1775.94 200.385 1780.88L306.543 1824.26C314.934 1827.69 314.775 1839.32 306.293 1842.55L196.26 1884.41Z" fill="#ffffff" tag='topPanel' />
</g>
<defs>
<clipPath id="clip0_120_2832">
<rect width="3365" height="2034" fill="white"/>
</clipPath>
</defs>
</svg>
