<svg width="3535" height="2034" viewBox="0 0 3535 2034" fill="none" xmlns="http://www.w3.org/2000/svg">
<g clip-path="url(#clip0_120_2832)">
<defs>
    <filter id="inner-shadow" x="-50%" y="-50%" width="200%" height="200%">
      <!-- Step 1: Create a shadow using feFlood and feGaussianBlur -->
      <feFlood flood-color="black" result="flood" />
      <feComposite in="flood" in2="SourceAlpha" operator="in" result="shadow" />
      <feGaussianBlur in="shadow" stdDeviation="5" result="blurred-shadow" />
      
      <!-- Step 2: Invert the alpha to create the inner mask -->
      <feOffset dx="2" dy="2" result="offset-shadow" />
      <feComposite in="SourceAlpha" in2="offset-shadow" operator="arithmetic" k2="-1" k3="1" result="inverted-shadow" />
      
      <!-- Step 3: Combine the shadow with the original graphic -->
      <feComposite in="SourceGraphic" in2="inverted-shadow" operator="atop" result="inner-shadow" />
    </filter>
  </defs>
  <!-- <style>
    path[id^="right"] {
      filter: url(#inner-shadow);
    }
  </style> -->
<rect width="3535" height="2034" fill="white"/>
<path d="M3543.51 451.571C3543.51 430.277 3556.82 410.973 3576.73 403.404L3680.01 364.125C3692.96 359.199 3706.54 368.563 3706.54 382.42L3706.54 493.487C3706.54 514.788 3693.22 534.095 3673.31 541.66L3570.04 580.9C3557.09 585.82 3543.51 576.456 3543.51 562.602L3543.51 451.571Z" fill="#ddd" id="right"/>
<path d="M3540.51 975.571C3540.51 954.277 3553.82 934.973 3573.72 927.404L3677.01 888.124C3689.96 883.199 3703.54 892.563 3703.54 906.42L3703.54 1017.49C3703.54 1038.79 3690.22 1058.1 3670.31 1065.66L3567.03 1104.9C3554.08 1109.82 3540.51 1100.46 3540.51 1086.6L3540.51 975.571Z" fill="#ddd" id="right"/>
<path d="M3538.51 1499.57C3538.51 1478.28 3551.82 1458.97 3571.72 1451.41L3675.01 1412.13C3687.96 1407.2 3701.54 1416.56 3701.54 1430.42L3701.54 1541.49C3701.54 1562.79 3688.22 1582.1 3668.31 1589.66L3565.03 1628.9C3552.08 1633.82 3538.51 1624.46 3538.51 1610.6L3538.51 1499.57Z" fill="#ddd" id="right"/>
<path d="M3536.51 2023.57C3536.51 2002.28 3549.82 1982.97 3569.72 1975.4L3673.01 1936.12C3685.96 1931.2 3699.53 1940.56 3699.53 1954.42L3699.53 2065.49C3699.53 2086.79 3686.22 2106.09 3666.31 2113.66L3563.03 2152.9C3550.08 2157.82 3536.51 2148.46 3536.51 2134.6L3536.51 2023.57Z" fill="#ddd" id="right"/>
<path d="M1456.85 194.699C1437.59 186.8 1424.86 167.818 1424.86 146.984L1424.86 34.052C1424.86 19.9695 1438.82 10.5918 1451.85 15.9286L1549.9 56.1083C1569.17 64.0053 1581.91 82.9894 1581.91 103.827L1581.91 216.783C1581.91 230.867 1567.94 240.245 1554.91 234.905L1456.85 194.699Z" fill="#ddd" id="left"/>
<path d="M1596.93 108.571C1596.93 87.2767 1610.24 67.9731 1630.15 60.4041L1733.43 21.1243C1746.38 16.1988 1759.96 25.5627 1759.96 39.4201L1759.96 150.487C1759.96 171.787 1746.64 191.095 1726.73 198.66L1623.46 237.899C1610.51 242.82 1596.93 233.456 1596.93 219.601L1596.93 108.571Z" fill="#ddd" id="right"/>
<path d="M1613.63 50.4092C1601.32 55.0944 1587.61 54.9092 1575.45 49.8932L1469.4 6.173C1461.02 2.71826 1461.22 -8.91279 1469.71 -12.1138L1579.87 -53.6351C1592.09 -58.244 1605.67 -58.0606 1617.76 -53.1234L1723.91 -9.73994C1732.3 -6.3109 1732.15 5.3208 1723.66 8.5477L1613.63 50.4092Z" fill="#ddd" id="top"/>
<path d="M1632.91 456.699C1613.64 448.8 1600.91 429.818 1600.91 408.984L1600.91 296.052C1600.91 281.97 1614.88 272.592 1627.9 277.929L1725.95 318.108C1745.23 326.005 1757.96 344.989 1757.96 365.827L1757.96 478.783C1757.96 492.867 1743.99 502.245 1730.97 496.905L1632.91 456.699Z" fill="#ddd" id="left"/>
<path d="M1772.99 370.571C1772.99 349.277 1786.3 329.973 1806.2 322.404L1909.48 283.124C1922.43 278.199 1936.01 287.563 1936.01 301.42L1936.01 412.487C1936.01 433.787 1922.69 453.095 1902.78 460.66L1799.51 499.899C1786.56 504.82 1772.99 495.456 1772.99 481.601L1772.99 370.571Z" fill="#ddd" id="right"/>
<path d="M1789.68 312.409C1777.37 317.094 1763.66 316.909 1751.5 311.893L1645.45 268.173C1637.07 264.718 1637.27 253.087 1645.76 249.886L1755.92 208.365C1768.15 203.756 1781.73 203.939 1793.81 208.877L1899.97 252.26C1908.36 255.689 1908.2 267.321 1899.72 270.548L1789.68 312.409Z" fill="#ddd" id="top"/>
<path d="M1101.75 194.699C1082.48 186.8 1069.75 167.818 1069.75 146.984L1069.75 34.052C1069.75 19.9695 1083.72 10.5918 1096.74 15.9286L1194.8 56.1083C1214.07 64.0053 1226.8 82.9894 1226.8 103.827L1226.8 216.783C1226.8 230.867 1212.83 240.245 1199.81 234.905L1101.75 194.699Z" fill="#ddd" id="left"/>
<path d="M1241.83 108.571C1241.83 87.2767 1255.14 67.9731 1275.04 60.4041L1378.32 21.1243C1391.28 16.1988 1404.85 25.5627 1404.85 39.4201L1404.85 150.487C1404.85 171.787 1391.54 191.095 1371.63 198.66L1268.35 237.899C1255.4 242.82 1241.83 233.456 1241.83 219.601L1241.83 108.571Z" fill="#ddd" id="right"/>
<path d="M1258.53 50.4092C1246.21 55.0944 1232.51 54.9092 1220.34 49.8932L1114.3 6.173C1105.92 2.71826 1106.11 -8.91279 1114.61 -12.1138L1224.76 -53.6351C1236.99 -58.244 1250.57 -58.0606 1262.65 -53.1234L1368.81 -9.73994C1377.2 -6.3109 1377.04 5.3208 1368.56 8.5477L1258.53 50.4092Z" fill="#ddd" id="top"/>
<path d="M1278.8 456.699C1259.53 448.8 1246.81 429.818 1246.81 408.984L1246.81 296.052C1246.81 281.97 1260.77 272.592 1273.8 277.929L1371.85 318.108C1391.12 326.005 1403.85 344.989 1403.85 365.827L1403.85 478.783C1403.85 492.867 1389.88 502.245 1376.86 496.905L1278.8 456.699Z" fill="#ddd" id="left"/>
<path d="M1418.88 370.571C1418.88 349.277 1432.19 329.973 1452.09 322.404L1555.38 283.124C1568.33 278.199 1581.91 287.563 1581.91 301.42L1581.91 412.487C1581.91 433.787 1568.59 453.095 1548.68 460.66L1445.4 499.899C1432.45 504.82 1418.88 495.456 1418.88 481.601L1418.88 370.571Z" fill="#ddd" id="right"/>
<path d="M1435.58 312.409C1423.26 317.094 1409.56 316.909 1397.39 311.893L1291.35 268.173C1282.97 264.718 1283.17 253.087 1291.66 249.886L1401.81 208.365C1414.04 203.756 1427.62 203.939 1439.7 208.877L1545.86 252.26C1554.25 255.689 1554.09 267.321 1545.61 270.548L1435.58 312.409Z" fill="#ddd" id="top"/>
<path d="M1808.96 718.699C1789.69 710.8 1776.96 691.818 1776.96 670.984L1776.96 558.052C1776.96 543.97 1790.93 534.592 1803.95 539.929L1902.01 580.108C1921.28 588.005 1934.01 606.989 1934.01 627.827L1934.01 740.783C1934.01 754.867 1920.04 764.245 1907.02 758.905L1808.96 718.699Z" fill="#ddd" id="left"/>
<path d="M1949.04 632.571C1949.04 611.277 1962.35 591.973 1982.25 584.404L2085.53 545.124C2098.49 540.199 2112.06 549.563 2112.06 563.42L2112.06 674.487C2112.06 695.787 2098.75 715.095 2078.84 722.66L1975.56 761.899C1962.61 766.82 1949.04 757.456 1949.04 743.601L1949.04 632.571Z" fill="#ddd" id="right"/>
<path d="M1965.74 574.409C1953.42 579.094 1939.72 578.909 1927.55 573.893L1821.51 530.173C1813.13 526.718 1813.32 515.087 1821.82 511.886L1931.97 470.365C1944.2 465.756 1957.78 465.939 1969.86 470.877L2076.02 514.26C2084.41 517.689 2084.25 529.321 2075.77 532.548L1965.74 574.409Z" fill="#ddd" id="top"/>
<path d="M1454.85 718.699C1435.59 710.8 1422.86 691.818 1422.86 670.984L1422.86 558.052C1422.86 543.97 1436.82 534.592 1449.85 539.929L1547.9 580.108C1567.17 588.005 1579.9 606.989 1579.9 627.827L1579.9 740.783C1579.9 754.867 1565.94 764.245 1552.91 758.905L1454.85 718.699Z" fill="#ddd" id="left"/>
<path d="M1594.93 632.571C1594.93 611.277 1608.24 591.973 1628.15 584.404L1731.43 545.124C1744.38 540.199 1757.96 549.563 1757.96 563.42L1757.96 674.487C1757.96 695.787 1744.64 715.095 1724.73 722.66L1621.46 761.899C1608.51 766.82 1594.93 757.456 1594.93 743.601L1594.93 632.571Z" fill="#ddd" id="right"/>
<path d="M1611.63 574.409C1599.31 579.094 1585.61 578.909 1573.45 573.893L1467.4 530.173C1459.02 526.718 1459.22 515.087 1467.71 511.886L1577.87 470.365C1590.09 465.756 1603.67 465.939 1615.75 470.877L1721.91 514.26C1730.3 517.689 1730.14 529.321 1721.66 532.548L1611.63 574.409Z" fill="#ddd" id="top"/>
<path d="M1986.01 980.699C1966.74 972.8 1954.02 953.818 1954.02 932.984L1954.02 820.052C1954.02 805.97 1967.98 796.592 1981.01 801.929L2079.06 842.108C2098.33 850.005 2111.06 868.989 2111.06 889.827L2111.06 1002.78C2111.06 1016.87 2097.09 1026.24 2084.07 1020.9L1986.01 980.699Z" fill="#ddd" id="left"/>
<path d="M2126.09 894.571C2126.09 873.277 2139.4 853.973 2159.3 846.404L2262.59 807.124C2275.54 802.199 2289.12 811.563 2289.12 825.42L2289.12 936.487C2289.12 957.787 2275.8 977.095 2255.89 984.66L2152.61 1023.9C2139.66 1028.82 2126.09 1019.46 2126.09 1005.6L2126.09 894.571Z" fill="#ddd" id="right"/>
<path d="M2142.79 836.409C2130.47 841.094 2116.77 840.909 2104.6 835.893L1998.56 792.173C1990.18 788.718 1990.38 777.087 1998.87 773.886L2109.02 732.365C2121.25 727.756 2134.83 727.939 2146.91 732.877L2253.07 776.26C2261.46 779.689 2261.3 791.321 2252.82 794.548L2142.79 836.409Z" fill="#ddd" id="top"/>
<path d="M1631.91 980.699C1612.64 972.8 1599.91 953.818 1599.91 932.984L1599.91 820.052C1599.91 805.97 1613.88 796.592 1626.9 801.929L1724.95 842.108C1744.23 850.005 1756.96 868.989 1756.96 889.827L1756.96 1002.78C1756.96 1016.87 1742.99 1026.24 1729.96 1020.9L1631.91 980.699Z" fill="#ddd" id="left"/>
<path d="M1771.99 894.571C1771.99 873.277 1785.3 853.973 1805.2 846.404L1908.48 807.124C1921.43 802.199 1935.01 811.563 1935.01 825.42L1935.01 936.487C1935.01 957.787 1921.69 977.095 1901.78 984.66L1798.51 1023.9C1785.56 1028.82 1771.99 1019.46 1771.99 1005.6L1771.99 894.571Z" fill="#ddd" id="right"/>
<path d="M1788.68 836.409C1776.37 841.094 1762.66 840.909 1750.5 835.893L1644.45 792.173C1636.07 788.718 1636.27 777.087 1644.76 773.886L1754.92 732.365C1767.15 727.756 1780.73 727.939 1792.81 732.877L1898.97 776.26C1907.36 779.689 1907.2 791.321 1898.72 794.548L1788.68 836.409Z" fill="#ddd" id="top"/>
<path d="M2162.06 1242.7C2142.8 1234.8 2130.07 1215.82 2130.07 1194.98L2130.07 1082.05C2130.07 1067.97 2144.03 1058.59 2157.06 1063.93L2255.11 1104.11C2274.38 1112.01 2287.12 1130.99 2287.12 1151.83L2287.12 1264.78C2287.12 1278.87 2273.15 1288.24 2260.12 1282.9L2162.06 1242.7Z" fill="#ddd" id="left"/>
<path d="M2302.14 1156.57C2302.14 1135.28 2315.45 1115.97 2335.36 1108.4L2438.64 1069.12C2451.59 1064.2 2465.17 1073.56 2465.17 1087.42L2465.17 1198.49C2465.17 1219.79 2451.85 1239.1 2431.94 1246.66L2328.67 1285.9C2315.72 1290.82 2302.14 1281.46 2302.14 1267.6L2302.14 1156.57Z" fill="#ddd" id="right"/>
<path d="M2318.84 1098.41C2306.53 1103.09 2292.82 1102.91 2280.66 1097.89L2174.61 1054.17C2166.23 1050.72 2166.43 1039.09 2174.92 1035.89L2285.08 994.365C2297.3 989.756 2310.88 989.939 2322.96 994.877L2429.12 1038.26C2437.51 1041.69 2437.35 1053.32 2428.87 1056.55L2318.84 1098.41Z" fill="#ddd" id="top"/>
<path d="M1807.96 1242.7C1788.69 1234.8 1775.96 1215.82 1775.96 1194.98L1775.96 1082.05C1775.96 1067.97 1789.93 1058.59 1802.95 1063.93L1901.01 1104.11C1920.28 1112.01 1933.01 1130.99 1933.01 1151.83L1933.01 1264.78C1933.01 1278.87 1919.04 1288.24 1906.02 1282.9L1807.96 1242.7Z" fill="#ddd" id="left"/>
<path d="M1948.04 1156.57C1948.04 1135.28 1961.35 1115.97 1981.25 1108.4L2084.53 1069.12C2097.49 1064.2 2111.06 1073.56 2111.06 1087.42L2111.06 1198.49C2111.06 1219.79 2097.75 1239.1 2077.84 1246.66L1974.56 1285.9C1961.61 1290.82 1948.04 1281.46 1948.04 1267.6L1948.04 1156.57Z" fill="#ddd" id="right"/>
<path d="M1964.73 1098.41C1952.42 1103.09 1938.72 1102.91 1926.55 1097.89L1820.51 1054.17C1812.13 1050.72 1812.32 1039.09 1820.82 1035.89L1930.97 994.365C1943.2 989.756 1956.78 989.939 1968.86 994.877L2075.02 1038.26C2083.41 1041.69 2083.25 1053.32 2074.77 1056.55L1964.73 1098.41Z" fill="#ddd" id="top"/>
<path d="M2338.11 1504.7C2318.85 1496.8 2306.12 1477.82 2306.12 1456.98L2306.12 1344.05C2306.12 1329.97 2320.09 1320.59 2333.11 1325.93L2431.16 1366.11C2450.44 1374.01 2463.17 1392.99 2463.17 1413.83L2463.17 1526.78C2463.17 1540.87 2449.2 1550.24 2436.17 1544.9L2338.11 1504.7Z" fill="#ddd" id="left"/>
<path d="M2478.2 1418.57C2478.2 1397.28 2491.51 1377.97 2511.41 1370.4L2614.69 1331.12C2627.64 1326.2 2641.22 1335.56 2641.22 1349.42L2641.22 1460.49C2641.22 1481.79 2627.9 1501.1 2607.99 1508.66L2504.72 1547.9C2491.77 1552.82 2478.2 1543.46 2478.2 1529.6L2478.2 1418.57Z" fill="#ddd" id="right"/>
<path d="M2494.89 1360.41C2482.58 1365.09 2468.87 1364.91 2456.71 1359.89L2350.66 1316.17C2342.28 1312.72 2342.48 1301.09 2350.97 1297.89L2461.13 1256.36C2473.35 1251.76 2486.94 1251.94 2499.02 1256.88L2605.18 1300.26C2613.57 1303.69 2613.41 1315.32 2604.92 1318.55L2494.89 1360.41Z" fill="#ddd" id="top"/>
<path d="M1984.01 1504.7C1964.74 1496.8 1952.02 1477.82 1952.02 1456.98L1952.02 1344.05C1952.02 1329.97 1965.98 1320.59 1979 1325.93L2077.06 1366.11C2096.33 1374.01 2109.06 1392.99 2109.06 1413.83L2109.06 1526.78C2109.06 1540.87 2095.09 1550.24 2082.07 1544.9L1984.01 1504.7Z" fill="#ddd" id="left"/>
<path d="M2124.09 1418.57C2124.09 1397.28 2137.4 1377.97 2157.3 1370.4L2260.59 1331.12C2273.54 1326.2 2287.12 1335.56 2287.12 1349.42L2287.12 1460.49C2287.12 1481.79 2273.8 1501.1 2253.89 1508.66L2150.61 1547.9C2137.66 1552.82 2124.09 1543.46 2124.09 1529.6L2124.09 1418.57Z" fill="#ddd" id="right"/>
<path d="M2140.79 1360.41C2128.47 1365.09 2114.77 1364.91 2102.6 1359.89L1996.56 1316.17C1988.18 1312.72 1988.38 1301.09 1996.87 1297.89L2107.02 1256.36C2119.25 1251.76 2132.83 1251.94 2144.91 1256.88L2251.07 1300.26C2259.46 1303.69 2259.3 1315.32 2250.82 1318.55L2140.79 1360.41Z" fill="#ddd" id="top"/>
<path d="M2515.17 1766.7C2495.9 1758.8 2483.17 1739.82 2483.17 1718.98L2483.17 1606.05C2483.17 1591.97 2497.14 1582.59 2510.16 1587.93L2608.22 1628.11C2627.49 1636.01 2640.22 1654.99 2640.22 1675.83L2640.22 1788.78C2640.22 1802.87 2626.25 1812.24 2613.23 1806.9L2515.17 1766.7Z" fill="#ddd" id="left"/>
<path d="M2655.25 1680.57C2655.25 1659.28 2668.56 1639.97 2688.46 1632.4L2791.74 1593.12C2804.7 1588.2 2818.27 1597.56 2818.27 1611.42L2818.27 1722.49C2818.27 1743.79 2804.96 1763.1 2785.05 1770.66L2681.77 1809.9C2668.82 1814.82 2655.25 1805.46 2655.25 1791.6L2655.25 1680.57Z" fill="#ddd" id="right"/>
<path d="M2671.95 1622.41C2659.63 1627.09 2645.93 1626.91 2633.76 1621.89L2527.72 1578.17C2519.34 1574.72 2519.53 1563.09 2528.03 1559.89L2638.18 1518.36C2650.41 1513.76 2663.99 1513.94 2676.07 1518.88L2782.23 1562.26C2790.62 1565.69 2790.46 1577.32 2781.98 1580.55L2671.95 1622.41Z" fill="#ddd" id="top"/>
<path d="M2161.06 1766.7C2141.8 1758.8 2129.07 1739.82 2129.07 1718.98L2129.07 1606.05C2129.07 1591.97 2143.03 1582.59 2156.06 1587.93L2254.11 1628.11C2273.38 1636.01 2286.11 1654.99 2286.11 1675.83L2286.11 1788.78C2286.11 1802.87 2272.15 1812.24 2259.12 1806.9L2161.06 1766.7Z" fill="#ddd" id="left"/>
<path d="M2301.14 1680.57C2301.14 1659.28 2314.45 1639.97 2334.36 1632.4L2437.64 1593.12C2450.59 1588.2 2464.17 1597.56 2464.17 1611.42L2464.17 1722.49C2464.17 1743.79 2450.85 1763.1 2430.94 1770.66L2327.67 1809.9C2314.72 1814.82 2301.14 1805.46 2301.14 1791.6L2301.14 1680.57Z" fill="#ddd" id="right"/>
<path d="M2317.84 1622.41C2305.52 1627.09 2291.82 1626.91 2279.66 1621.89L2173.61 1578.17C2165.23 1574.72 2165.43 1563.09 2173.92 1559.89L2284.08 1518.36C2296.3 1513.76 2309.88 1513.94 2321.96 1518.88L2428.12 1562.26C2436.51 1565.69 2436.35 1577.32 2427.87 1580.55L2317.84 1622.41Z" fill="#ddd" id="top"/>
<path d="M2167.06 194.699C2147.8 186.8 2135.07 167.818 2135.07 146.984L2135.07 34.052C2135.07 19.9695 2149.04 10.5918 2162.06 15.9286L2260.11 56.1083C2279.38 64.0053 2292.12 82.9894 2292.12 103.827L2292.12 216.783C2292.12 230.867 2278.15 240.245 2265.12 234.905L2167.06 194.699Z" fill="#ddd" id="left"/>
<path d="M2307.15 108.571C2307.15 87.2767 2320.46 67.9731 2340.36 60.4041L2443.64 21.1243C2456.59 16.1988 2470.17 25.5627 2470.17 39.4201L2470.17 150.487C2470.17 171.787 2456.85 191.095 2436.94 198.66L2333.67 237.899C2320.72 242.82 2307.15 233.456 2307.15 219.601L2307.15 108.571Z" fill="#ddd" id="right"/>
<path d="M2323.84 50.4092C2311.53 55.0944 2297.82 54.9092 2285.66 49.8932L2179.61 6.173C2171.23 2.71826 2171.43 -8.91279 2179.92 -12.1138L2290.08 -53.6351C2302.3 -58.244 2315.89 -58.0606 2327.97 -53.1234L2434.12 -9.73994C2442.52 -6.3109 2442.36 5.3208 2433.87 8.5477L2323.84 50.4092Z" fill="#ddd" id="top"/>
<path d="M2343.12 456.699C2323.85 448.8 2311.12 429.818 2311.12 408.984L2311.12 296.052C2311.12 281.97 2325.09 272.592 2338.11 277.929L2436.17 318.108C2455.44 326.005 2468.17 344.989 2468.17 365.827L2468.17 478.783C2468.17 492.867 2454.2 502.245 2441.18 496.905L2343.12 456.699Z" fill="#ddd" id="left"/>
<path d="M2483.2 370.571C2483.2 349.277 2496.51 329.973 2516.41 322.404L2619.69 283.124C2632.64 278.199 2646.22 287.563 2646.22 301.42L2646.22 412.487C2646.22 433.787 2632.9 453.095 2612.99 460.66L2509.72 499.899C2496.77 504.82 2483.2 495.456 2483.2 481.601L2483.2 370.571Z" fill="#ddd" id="right"/>
<path d="M2499.89 312.409C2487.58 317.094 2473.88 316.909 2461.71 311.893L2355.67 268.173C2347.29 264.718 2347.48 253.087 2355.97 249.886L2466.13 208.365C2478.36 203.756 2491.94 203.939 2504.02 208.877L2610.18 252.26C2618.57 255.689 2618.41 267.321 2609.93 270.548L2499.89 312.409Z" fill="#ddd" id="top"/>
<path d="M1811.96 194.699C1792.69 186.8 1779.96 167.818 1779.96 146.984L1779.96 34.052C1779.96 19.9695 1793.93 10.5918 1806.95 15.9286L1905.01 56.1083C1924.28 64.0053 1937.01 82.9894 1937.01 103.827L1937.01 216.783C1937.01 230.867 1923.04 240.245 1910.02 234.905L1811.96 194.699Z" fill="#ddd" id="left"/>
<path d="M1952.04 108.571C1952.04 87.2767 1965.35 67.9731 1985.25 60.4041L2088.54 21.1243C2101.49 16.1988 2115.06 25.5627 2115.06 39.4201L2115.06 150.487C2115.06 171.787 2101.75 191.095 2081.84 198.66L1978.56 237.899C1965.61 242.82 1952.04 233.456 1952.04 219.601L1952.04 108.571Z" fill="#ddd" id="right"/>
<path d="M1968.74 50.4092C1956.42 55.0944 1942.72 54.9092 1930.55 49.8932L1824.51 6.173C1816.13 2.71826 1816.32 -8.91279 1824.82 -12.1138L1934.97 -53.6351C1947.2 -58.244 1960.78 -58.0606 1972.86 -53.1234L2079.02 -9.73994C2087.41 -6.3109 2087.25 5.3208 2078.77 8.5477L1968.74 50.4092Z" fill="#ddd" id="top"/>
<path d="M1989.01 456.699C1969.74 448.8 1957.02 429.818 1957.02 408.984L1957.02 296.052C1957.02 281.97 1970.98 272.592 1984.01 277.929L2082.06 318.108C2101.33 326.005 2114.06 344.989 2114.06 365.827L2114.06 478.783C2114.06 492.867 2100.1 502.245 2087.07 496.905L1989.01 456.699Z" fill="#ddd" id="left"/>
<path d="M2129.09 370.571C2129.09 349.277 2142.4 329.973 2162.3 322.404L2265.59 283.124C2278.54 278.199 2292.12 287.563 2292.12 301.42L2292.12 412.487C2292.12 433.787 2278.8 453.095 2258.89 460.66L2155.62 499.899C2142.67 504.82 2129.09 495.456 2129.09 481.601L2129.09 370.571Z" fill="#ddd" id="right"/>
<path d="M2145.79 312.409C2133.47 317.094 2119.77 316.909 2107.6 311.893L2001.56 268.173C1993.18 264.718 1993.38 253.087 2001.87 249.886L2112.02 208.365C2124.25 203.756 2137.83 203.939 2149.91 208.877L2256.07 252.26C2264.46 255.689 2264.3 267.321 2255.82 270.548L2145.79 312.409Z" fill="#ddd" id="top"/>
<path d="M2519.17 718.699C2499.9 710.8 2487.17 691.818 2487.17 670.984L2487.17 558.052C2487.17 543.97 2501.14 534.592 2514.16 539.929L2612.22 580.108C2631.49 588.005 2644.22 606.989 2644.22 627.827L2644.22 740.783C2644.22 754.867 2630.25 764.245 2617.23 758.905L2519.17 718.699Z" fill="#ddd" id="left"/>
<path d="M2659.25 632.571C2659.25 611.277 2672.56 591.973 2692.46 584.404L2795.75 545.124C2808.7 540.199 2822.27 549.563 2822.27 563.42L2822.27 674.487C2822.27 695.787 2808.96 715.095 2789.05 722.66L2685.77 761.899C2672.82 766.82 2659.25 757.456 2659.25 743.601L2659.25 632.571Z" fill="#ddd" id="right"/>
<path d="M2675.95 574.409C2663.63 579.094 2649.93 578.909 2637.76 573.893L2531.72 530.173C2523.34 526.718 2523.54 515.087 2532.03 511.886L2642.18 470.365C2654.41 465.756 2667.99 465.939 2680.07 470.877L2786.23 514.26C2794.62 517.689 2794.46 529.321 2785.98 532.548L2675.95 574.409Z" fill="#ddd" id="top"/>
<path d="M2165.06 718.699C2145.8 710.8 2133.07 691.818 2133.07 670.984L2133.07 558.052C2133.07 543.97 2147.03 534.592 2160.06 539.929L2258.11 580.108C2277.38 588.005 2290.12 606.989 2290.12 627.827L2290.12 740.783C2290.12 754.867 2276.15 764.245 2263.12 758.905L2165.06 718.699Z" fill="#ddd" id="left"/>
<path d="M2305.14 632.571C2305.14 611.277 2318.46 591.973 2338.36 584.404L2441.64 545.124C2454.59 540.199 2468.17 549.563 2468.17 563.42L2468.17 674.487C2468.17 695.787 2454.85 715.095 2434.94 722.66L2331.67 761.899C2318.72 766.82 2305.14 757.456 2305.14 743.601L2305.14 632.571Z" fill="#ddd" id="right"/>
<path d="M2321.84 574.409C2309.53 579.094 2295.82 578.909 2283.66 573.893L2177.61 530.173C2169.23 526.718 2169.43 515.087 2177.92 511.886L2288.08 470.365C2300.3 465.756 2313.88 465.939 2325.97 470.877L2432.12 514.26C2440.51 517.689 2440.36 529.321 2431.87 532.548L2321.84 574.409Z" fill="#ddd" id="top"/>
<path d="M2696.22 980.699C2676.95 972.8 2664.23 953.818 2664.23 932.984L2664.23 820.052C2664.23 805.97 2678.19 796.592 2691.22 801.929L2789.27 842.108C2808.54 850.005 2821.27 868.989 2821.27 889.827L2821.27 1002.78C2821.27 1016.87 2807.31 1026.24 2794.28 1020.9L2696.22 980.699Z" fill="#ddd" id="left"/>
<path d="M2836.3 894.571C2836.3 873.277 2849.61 853.973 2869.51 846.404L2972.8 807.124C2985.75 802.199 2999.33 811.563 2999.33 825.42L2999.33 936.487C2999.33 957.787 2986.01 977.095 2966.1 984.66L2862.83 1023.9C2849.88 1028.82 2836.3 1019.46 2836.3 1005.6L2836.3 894.571Z" fill="#ddd" id="right"/>
<path d="M2853 836.409C2840.68 841.094 2826.98 840.909 2814.81 835.893L2708.77 792.173C2700.39 788.718 2700.59 777.087 2709.08 773.886L2819.23 732.365C2831.46 727.756 2845.04 727.939 2857.12 732.877L2963.28 776.26C2971.67 779.689 2971.51 791.321 2963.03 794.548L2853 836.409Z" fill="#ddd" id="top"/>
<path d="M2342.12 980.699C2322.85 972.8 2310.12 953.818 2310.12 932.984L2310.12 820.052C2310.12 805.97 2324.09 796.592 2337.11 801.929L2435.16 842.108C2454.44 850.005 2467.17 868.989 2467.17 889.827L2467.17 1002.78C2467.17 1016.87 2453.2 1026.24 2440.18 1020.9L2342.12 980.699Z" fill="#ddd" id="left"/>
<path d="M2482.2 894.571C2482.2 873.277 2495.51 853.973 2515.41 846.404L2618.69 807.124C2631.64 802.199 2645.22 811.563 2645.22 825.42L2645.22 936.487C2645.22 957.787 2631.9 977.095 2611.99 984.66L2508.72 1023.9C2495.77 1028.82 2482.2 1019.46 2482.2 1005.6L2482.2 894.571Z" fill="#ddd" id="right"/>
<path d="M2498.89 836.409C2486.58 841.094 2472.88 840.909 2460.71 835.893L2354.67 792.173C2346.29 788.718 2346.48 777.087 2354.97 773.886L2465.13 732.365C2477.36 727.756 2490.94 727.939 2503.02 732.877L2609.18 776.26C2617.57 779.689 2617.41 791.321 2608.93 794.548L2498.89 836.409Z" fill="#ddd" id="top"/>
<path d="M2872.27 1242.7C2853.01 1234.8 2840.28 1215.82 2840.28 1194.98L2840.28 1082.05C2840.28 1067.97 2854.25 1058.59 2867.27 1063.93L2965.32 1104.11C2984.59 1112.01 2997.33 1130.99 2997.33 1151.83L2997.33 1264.78C2997.33 1278.87 2983.36 1288.24 2970.33 1282.9L2872.27 1242.7Z" fill="#ddd" id="left"/>
<path d="M3012.36 1156.57C3012.36 1135.28 3025.67 1115.97 3045.57 1108.4L3148.85 1069.12C3161.8 1064.2 3175.38 1073.56 3175.38 1087.42L3175.38 1198.49C3175.38 1219.79 3162.06 1239.1 3142.15 1246.66L3038.88 1285.9C3025.93 1290.82 3012.36 1281.46 3012.36 1267.6L3012.36 1156.57Z" fill="#ddd" id="right"/>
<path d="M3029.05 1098.41C3016.74 1103.09 3003.03 1102.91 2990.87 1097.89L2884.82 1054.17C2876.44 1050.72 2876.64 1039.09 2885.13 1035.89L2995.29 994.365C3007.51 989.756 3021.09 989.939 3033.18 994.877L3139.33 1038.26C3147.73 1041.69 3147.57 1053.32 3139.08 1056.55L3029.05 1098.41Z" fill="#ddd" id="top"/>
<path d="M2518.17 1242.7C2498.9 1234.8 2486.17 1215.82 2486.17 1194.98L2486.17 1082.05C2486.17 1067.97 2500.14 1058.59 2513.16 1063.93L2611.22 1104.11C2630.49 1112.01 2643.22 1130.99 2643.22 1151.83L2643.22 1264.78C2643.22 1278.87 2629.25 1288.24 2616.23 1282.9L2518.17 1242.7Z" fill="#ddd" id="left"/>
<path d="M2658.25 1156.57C2658.25 1135.28 2671.56 1115.97 2691.46 1108.4L2794.74 1069.12C2807.7 1064.2 2821.27 1073.56 2821.27 1087.42L2821.27 1198.49C2821.27 1219.79 2807.96 1239.1 2788.05 1246.66L2684.77 1285.9C2671.82 1290.82 2658.25 1281.46 2658.25 1267.6L2658.25 1156.57Z" fill="#ddd" id="right"/>
<path d="M2674.95 1098.41C2662.63 1103.09 2648.93 1102.91 2636.76 1097.89L2530.72 1054.17C2522.34 1050.72 2522.53 1039.09 2531.03 1035.89L2641.18 994.365C2653.41 989.756 2666.99 989.939 2679.07 994.877L2785.23 1038.26C2793.62 1041.69 2793.46 1053.32 2784.98 1056.55L2674.95 1098.41Z" fill="#ddd" id="top"/>
<path d="M3048.33 1504.7C3029.06 1496.8 3016.33 1477.82 3016.33 1456.98L3016.33 1344.05C3016.33 1329.97 3030.3 1320.59 3043.32 1325.93L3141.37 1366.11C3160.65 1374.01 3173.38 1392.99 3173.38 1413.83L3173.38 1526.78C3173.38 1540.87 3159.41 1550.24 3146.39 1544.9L3048.33 1504.7Z" fill="#ddd" id="left"/>
<path d="M3188.41 1418.57C3188.41 1397.28 3201.72 1377.97 3221.62 1370.4L3324.9 1331.12C3337.85 1326.2 3351.43 1335.56 3351.43 1349.42L3351.43 1460.49C3351.43 1481.79 3338.11 1501.1 3318.2 1508.66L3214.93 1547.9C3201.98 1552.82 3188.41 1543.46 3188.41 1529.6L3188.41 1418.57Z" fill="#ddd" id="right"/>
<path d="M3205.1 1360.41C3192.79 1365.09 3179.09 1364.91 3166.92 1359.89L3060.88 1316.17C3052.5 1312.72 3052.69 1301.09 3061.18 1297.89L3171.34 1256.36C3183.57 1251.76 3197.15 1251.94 3209.23 1256.88L3315.39 1300.26C3323.78 1303.69 3323.62 1315.32 3315.14 1318.55L3205.1 1360.41Z" fill="#ddd" id="top"/>
<path d="M2694.22 1504.7C2674.95 1496.8 2662.23 1477.82 2662.23 1456.98L2662.23 1344.05C2662.23 1329.97 2676.19 1320.59 2689.22 1325.93L2787.27 1366.11C2806.54 1374.01 2819.27 1392.99 2819.27 1413.83L2819.27 1526.78C2819.27 1540.87 2805.3 1550.24 2792.28 1544.9L2694.22 1504.7Z" fill="#ddd" id="left"/>
<path d="M2834.3 1418.57C2834.3 1397.28 2847.61 1377.97 2867.51 1370.4L2970.8 1331.12C2983.75 1326.2 2997.33 1335.56 2997.33 1349.42L2997.33 1460.49C2997.33 1481.79 2984.01 1501.1 2964.1 1508.66L2860.83 1547.9C2847.87 1552.82 2834.3 1543.46 2834.3 1529.6L2834.3 1418.57Z" fill="#ddd" id="right"/>
<path d="M2851 1360.41C2838.68 1365.09 2824.98 1364.91 2812.81 1359.89L2706.77 1316.17C2698.39 1312.72 2698.59 1301.09 2707.08 1297.89L2817.23 1256.36C2829.46 1251.76 2843.04 1251.94 2855.12 1256.88L2961.28 1300.26C2969.67 1303.69 2969.51 1315.32 2961.03 1318.55L2851 1360.41Z" fill="#ddd" id="top"/>
<path d="M2877.28 194.699C2858.01 186.8 2845.28 167.818 2845.28 146.984L2845.28 34.052C2845.28 19.9695 2859.25 10.5918 2872.27 15.9286L2970.32 56.1083C2989.6 64.0053 3002.33 82.9894 3002.33 103.827L3002.33 216.783C3002.33 230.867 2988.36 240.245 2975.33 234.905L2877.28 194.699Z" fill="#ddd" id="left"/>
<path d="M3017.36 108.571C3017.36 87.2767 3030.67 67.9731 3050.57 60.4041L3153.85 21.1243C3166.8 16.1988 3180.38 25.5627 3180.38 39.4201L3180.38 150.487C3180.38 171.787 3167.06 191.095 3147.15 198.66L3043.88 237.899C3030.93 242.82 3017.36 233.456 3017.36 219.601L3017.36 108.571Z" fill="#ddd" id="right"/>
<path d="M3034.05 50.4092C3021.74 55.0944 3008.03 54.9092 2995.87 49.8932L2889.82 6.173C2881.44 2.71826 2881.64 -8.91279 2890.13 -12.1138L3000.29 -53.6351C3012.52 -58.244 3026.1 -58.0606 3038.18 -53.1234L3144.34 -9.73994C3152.73 -6.3109 3152.57 5.3208 3144.09 8.5477L3034.05 50.4092Z" fill="#ddd" id="top"/>
<path d="M3053.33 456.699C3034.06 448.8 3021.33 429.818 3021.33 408.984L3021.33 296.052C3021.33 281.97 3035.3 272.592 3048.32 277.929L3146.38 318.108C3165.65 326.005 3178.38 344.989 3178.38 365.827L3178.38 478.783C3178.38 492.867 3164.41 502.245 3151.39 496.905L3053.33 456.699Z" fill="#ddd" id="left"/>
<path d="M3193.41 370.571C3193.41 349.277 3206.72 329.973 3226.62 322.404L3329.9 283.124C3342.86 278.199 3356.43 287.563 3356.43 301.42L3356.43 412.487C3356.43 433.787 3343.12 453.095 3323.21 460.66L3219.93 499.899C3206.98 504.82 3193.41 495.456 3193.41 481.601L3193.41 370.571Z" fill="#ddd" id="right"/>
<path d="M3210.11 312.409C3197.79 317.094 3184.09 316.909 3171.92 311.893L3065.88 268.173C3057.5 264.718 3057.69 253.087 3066.19 249.886L3176.34 208.365C3188.57 203.756 3202.15 203.939 3214.23 208.877L3320.39 252.26C3328.78 255.689 3328.62 267.321 3320.14 270.548L3210.11 312.409Z" fill="#ddd" id="top"/>
<path d="M2522.17 194.699C2502.9 186.8 2490.18 167.818 2490.18 146.984L2490.18 34.052C2490.18 19.9695 2504.14 10.5918 2517.16 15.9286L2615.22 56.1083C2634.49 64.0053 2647.22 82.9894 2647.22 103.827L2647.22 216.783C2647.22 230.867 2633.25 240.245 2620.23 234.905L2522.17 194.699Z" fill="#ddd" id="left"/>
<path d="M2662.25 108.571C2662.25 87.2767 2675.56 67.9731 2695.46 60.4041L2798.75 21.1243C2811.7 16.1988 2825.28 25.5627 2825.28 39.4201L2825.28 150.487C2825.28 171.787 2811.96 191.095 2792.05 198.66L2688.77 237.899C2675.82 242.82 2662.25 233.456 2662.25 219.601L2662.25 108.571Z" fill="#ddd" id="right"/>
<path d="M2678.95 50.4092C2666.63 55.0944 2652.93 54.9092 2640.76 49.8932L2534.72 6.173C2526.34 2.71826 2526.54 -8.91279 2535.03 -12.1138L2645.18 -53.6351C2657.41 -58.244 2670.99 -58.0606 2683.07 -53.1234L2789.23 -9.73994C2797.62 -6.3109 2797.46 5.3208 2788.98 8.5477L2678.95 50.4092Z" fill="#ddd" id="top"/>
<path d="M2699.22 456.699C2679.96 448.8 2667.23 429.818 2667.23 408.984L2667.23 296.052C2667.23 281.97 2681.19 272.592 2694.22 277.929L2792.27 318.108C2811.54 326.005 2824.27 344.989 2824.27 365.827L2824.27 478.783C2824.27 492.867 2810.31 502.245 2797.28 496.905L2699.22 456.699Z" fill="#ddd" id="left"/>
<path d="M2839.3 370.571C2839.3 349.277 2852.61 329.973 2872.52 322.404L2975.8 283.124C2988.75 278.199 3002.33 287.563 3002.33 301.42L3002.33 412.487C3002.33 433.787 2989.01 453.095 2969.1 460.66L2865.83 499.899C2852.88 504.82 2839.3 495.456 2839.3 481.601L2839.3 370.571Z" fill="#ddd" id="right"/>
<path d="M2856 312.409C2843.68 317.094 2829.98 316.909 2817.82 311.893L2711.77 268.173C2703.39 264.718 2703.59 253.087 2712.08 249.886L2822.24 208.365C2834.46 203.756 2848.04 203.939 2860.12 208.877L2966.28 252.26C2974.67 255.689 2974.51 267.321 2966.03 270.548L2856 312.409Z" fill="#ddd" id="top"/>
<path d="M3232.38 194.699C3213.11 186.8 3200.39 167.818 3200.39 146.984L3200.39 34.052C3200.39 19.9695 3214.35 10.5918 3227.38 15.9286L3325.43 56.1083C3344.7 64.0053 3357.43 82.9894 3357.43 103.827L3357.43 216.783C3357.43 230.867 3343.46 240.245 3330.44 234.905L3232.38 194.699Z" fill="#ddd" id="left"/>
<path d="M3372.46 108.571C3372.46 87.2767 3385.77 67.9731 3405.67 60.4041L3508.96 21.1243C3521.91 16.1988 3535.49 25.5627 3535.49 39.4201L3535.49 150.487C3535.49 171.787 3522.17 191.095 3502.26 198.66L3398.99 237.899C3386.03 242.82 3372.46 233.456 3372.46 219.601L3372.46 108.571Z" fill="#ddd" id="right"/>
<path d="M3389.16 50.4092C3376.84 55.0944 3363.14 54.9092 3350.97 49.8932L3244.93 6.173C3236.55 2.71826 3236.75 -8.91279 3245.24 -12.1138L3355.39 -53.6351C3367.62 -58.244 3381.2 -58.0606 3393.28 -53.1234L3499.44 -9.73994C3507.83 -6.3109 3507.67 5.3208 3499.19 8.5477L3389.16 50.4092Z" fill="#ddd" id="top"/>
<path d="M3409.43 456.699C3390.17 448.8 3377.44 429.818 3377.44 408.984L3377.44 296.052C3377.44 281.97 3391.4 272.592 3404.43 277.929L3502.48 318.108C3521.75 326.005 3534.49 344.99 3534.49 365.828L3534.49 478.783C3534.49 492.867 3520.52 502.245 3507.49 496.905L3409.43 456.699Z" fill="#ddd" id="left"/>
<path d="M3566.21 312.409C3553.9 317.095 3540.19 316.909 3528.03 311.893L3421.98 268.173C3413.6 264.718 3413.8 253.087 3422.29 249.886L3532.45 208.365C3544.67 203.756 3558.25 203.94 3570.34 208.877L3676.49 252.26C3684.88 255.689 3684.73 267.321 3676.24 270.548L3566.21 312.409Z" fill="#ddd" id="top"/>
<path d="M3229.38 718.699C3210.11 710.8 3197.39 691.818 3197.39 670.984L3197.39 558.052C3197.39 543.97 3211.35 534.592 3224.37 539.929L3322.43 580.108C3341.7 588.005 3354.43 606.99 3354.43 627.828L3354.43 740.783C3354.43 754.867 3340.46 764.245 3327.44 758.905L3229.38 718.699Z" fill="#ddd" id="left"/>
<path d="M3369.46 632.571C3369.46 611.277 3382.77 591.973 3402.67 584.404L3505.96 545.124C3518.91 540.199 3532.49 549.563 3532.49 563.42L3532.49 674.487C3532.49 695.788 3519.17 715.095 3499.26 722.66L3395.98 761.9C3383.03 766.82 3369.46 757.456 3369.46 743.601L3369.46 632.571Z" fill="#ddd" id="right"/>
<path d="M3386.16 574.409C3373.84 579.095 3360.14 578.909 3347.97 573.893L3241.93 530.173C3233.55 526.718 3233.75 515.087 3242.24 511.886L3352.39 470.365C3364.62 465.756 3378.2 465.94 3390.28 470.877L3496.44 514.26C3504.83 517.689 3504.67 529.321 3496.19 532.548L3386.16 574.409Z" fill="#ddd" id="top"/>
<path d="M2875.27 718.699C2856.01 710.8 2843.28 691.818 2843.28 670.984L2843.28 558.052C2843.28 543.97 2857.25 534.592 2870.27 539.929L2968.32 580.108C2987.59 588.005 3000.33 606.989 3000.33 627.827L3000.33 740.783C3000.33 754.867 2986.36 764.245 2973.33 758.905L2875.27 718.699Z" fill="#ddd" id="left"/>
<path d="M3015.36 632.571C3015.36 611.277 3028.67 591.973 3048.57 584.404L3151.85 545.124C3164.8 540.199 3178.38 549.563 3178.38 563.42L3178.38 674.487C3178.38 695.787 3165.06 715.095 3145.15 722.66L3041.88 761.899C3028.93 766.82 3015.36 757.456 3015.36 743.601L3015.36 632.571Z" fill="#ddd" id="right"/>
<path d="M3032.05 574.409C3019.74 579.094 3006.03 578.909 2993.87 573.893L2887.82 530.173C2879.44 526.718 2879.64 515.087 2888.13 511.886L2998.29 470.365C3010.51 465.756 3024.1 465.939 3036.18 470.877L3142.34 514.26C3150.73 517.689 3150.57 529.321 3142.08 532.548L3032.05 574.409Z" fill="#ddd" id="top"/>
<path d="M3406.43 980.699C3387.17 972.8 3374.44 953.818 3374.44 932.984L3374.44 820.052C3374.44 805.97 3388.4 796.592 3401.43 801.929L3499.48 842.108C3518.75 850.005 3531.49 868.99 3531.49 889.828L3531.49 1002.78C3531.49 1016.87 3517.52 1026.25 3504.49 1020.9L3406.43 980.699Z" fill="#ddd" id="left"/>
<path d="M3563.21 836.409C3550.89 841.095 3537.19 840.909 3525.03 835.893L3418.98 792.173C3410.6 788.718 3410.8 777.087 3419.29 773.886L3529.45 732.365C3541.67 727.756 3555.25 727.94 3567.33 732.877L3673.49 776.26C3681.88 779.689 3681.72 791.321 3673.24 794.548L3563.21 836.409Z" fill="#ddd" id="top"/>
<path d="M3052.33 980.699C3033.06 972.8 3020.33 953.818 3020.33 932.984L3020.33 820.052C3020.33 805.97 3034.3 796.592 3047.32 801.929L3145.38 842.108C3164.65 850.005 3177.38 868.989 3177.38 889.827L3177.38 1002.78C3177.38 1016.87 3163.41 1026.24 3150.39 1020.9L3052.33 980.699Z" fill="#ddd" id="left"/>
<path d="M3192.41 894.571C3192.41 873.277 3205.72 853.973 3225.62 846.404L3328.9 807.124C3341.86 802.199 3355.43 811.563 3355.43 825.42L3355.43 936.487C3355.43 957.787 3342.12 977.095 3322.21 984.66L3218.93 1023.9C3205.98 1028.82 3192.41 1019.46 3192.41 1005.6L3192.41 894.571Z" fill="#ddd" id="right"/>
<path d="M3209.1 836.409C3196.79 841.094 3183.09 840.909 3170.92 835.893L3064.88 792.173C3056.5 788.718 3056.69 777.087 3065.19 773.886L3175.34 732.365C3187.57 727.756 3201.15 727.939 3213.23 732.877L3319.39 776.26C3327.78 779.689 3327.62 791.321 3319.14 794.548L3209.1 836.409Z" fill="#ddd" id="top"/>
<path d="M3228.38 1242.7C3209.11 1234.8 3196.39 1215.82 3196.39 1194.98L3196.39 1082.05C3196.39 1067.97 3210.35 1058.59 3223.37 1063.93L3321.43 1104.11C3340.7 1112.01 3353.43 1130.99 3353.43 1151.83L3353.43 1264.78C3353.43 1278.87 3339.46 1288.24 3326.44 1282.9L3228.38 1242.7Z" fill="#ddd" id="left"/>
<path d="M3368.46 1156.57C3368.46 1135.28 3381.77 1115.97 3401.67 1108.4L3504.96 1069.12C3517.91 1064.2 3531.49 1073.56 3531.49 1087.42L3531.49 1198.49C3531.49 1219.79 3518.17 1239.1 3498.26 1246.66L3394.98 1285.9C3382.03 1290.82 3368.46 1281.46 3368.46 1267.6L3368.46 1156.57Z" fill="#ddd" id="right"/>
<path d="M3385.16 1098.41C3372.84 1103.09 3359.14 1102.91 3346.97 1097.89L3240.93 1054.17C3232.55 1050.72 3232.75 1039.09 3241.24 1035.89L3351.39 994.365C3363.62 989.756 3377.2 989.939 3389.28 994.877L3495.44 1038.26C3503.83 1041.69 3503.67 1053.32 3495.19 1056.55L3385.16 1098.41Z" fill="#ddd" id="top"/>
<path d="M3404.43 1504.7C3385.17 1496.8 3372.44 1477.82 3372.44 1456.98L3372.44 1344.05C3372.44 1329.97 3386.4 1320.59 3399.43 1325.93L3497.48 1366.11C3516.75 1374.01 3529.48 1392.99 3529.48 1413.83L3529.48 1526.78C3529.48 1540.87 3515.52 1550.25 3502.49 1544.91L3404.43 1504.7Z" fill="#ddd" id="left"/>
<path d="M3561.21 1360.41C3548.89 1365.1 3535.19 1364.91 3523.02 1359.89L3416.98 1316.17C3408.6 1312.72 3408.8 1301.09 3417.29 1297.89L3527.44 1256.37C3539.67 1251.76 3553.25 1251.94 3565.33 1256.88L3671.49 1300.26C3679.88 1303.69 3679.72 1315.32 3671.24 1318.55L3561.21 1360.41Z" fill="#ddd" id="top"/>
<path d="M3225.38 1766.7C3206.11 1758.8 3193.38 1739.82 3193.38 1718.98L3193.38 1606.05C3193.38 1591.97 3207.35 1582.59 3220.37 1587.93L3318.43 1628.11C3337.7 1636.01 3350.43 1654.99 3350.43 1675.83L3350.43 1788.78C3350.43 1802.87 3336.46 1812.25 3323.44 1806.91L3225.38 1766.7Z" fill="#ddd" id="left"/>
<path d="M3365.46 1680.57C3365.46 1659.28 3378.77 1639.97 3398.67 1632.4L3501.96 1593.12C3514.91 1588.2 3528.48 1597.56 3528.48 1611.42L3528.48 1722.49C3528.48 1743.79 3515.17 1763.1 3495.26 1770.66L3391.98 1809.9C3379.03 1814.82 3365.46 1805.46 3365.46 1791.6L3365.46 1680.57Z" fill="#ddd" id="right"/>
<path d="M3382.16 1622.41C3369.84 1627.1 3356.14 1626.91 3343.97 1621.89L3237.93 1578.17C3229.55 1574.72 3229.74 1563.09 3238.24 1559.89L3348.39 1518.37C3360.62 1513.76 3374.2 1513.94 3386.28 1518.88L3492.44 1562.26C3500.83 1565.69 3500.67 1577.32 3492.19 1580.55L3382.16 1622.41Z" fill="#ddd" id="top"/>
<path d="M2871.27 1766.7C2852.01 1758.8 2839.28 1739.82 2839.28 1718.98L2839.28 1606.05C2839.28 1591.97 2853.24 1582.59 2866.27 1587.93L2964.32 1628.11C2983.59 1636.01 2996.33 1654.99 2996.33 1675.83L2996.33 1788.78C2996.33 1802.87 2982.36 1812.24 2969.33 1806.9L2871.27 1766.7Z" fill="#ddd" id="left"/>
<path d="M3011.35 1680.57C3011.35 1659.28 3024.66 1639.97 3044.57 1632.4L3147.85 1593.12C3160.8 1588.2 3174.38 1597.56 3174.38 1611.42L3174.38 1722.49C3174.38 1743.79 3161.06 1763.1 3141.15 1770.66L3037.88 1809.9C3024.93 1814.82 3011.35 1805.46 3011.35 1791.6L3011.35 1680.57Z" fill="#ddd" id="right"/>
<path d="M3028.05 1622.41C3015.74 1627.09 3002.03 1626.91 2989.87 1621.89L2883.82 1578.17C2875.44 1574.72 2875.64 1563.09 2884.13 1559.89L2994.29 1518.36C3006.51 1513.76 3020.09 1513.94 3032.18 1518.88L3138.33 1562.26C3146.72 1565.69 3146.57 1577.32 3138.08 1580.55L3028.05 1622.41Z" fill="#ddd" id="top"/>
<path d="M746.642 194.699C727.375 186.8 714.648 167.818 714.648 146.984L714.648 34.052C714.648 19.9695 728.613 10.5918 741.637 15.9286L839.691 56.1083C858.962 64.0053 871.694 82.9894 871.694 103.827L871.694 216.783C871.694 230.867 857.726 240.245 844.702 234.905L746.642 194.699Z" fill="#ddd" id="left"/>
<path d="M886.723 108.571C886.723 87.2769 900.033 67.9732 919.935 60.4043L1023.22 21.1245C1036.17 16.1989 1049.75 25.5628 1049.75 39.4202L1049.75 150.487C1049.75 171.788 1036.43 191.095 1016.52 198.66L913.246 237.9C900.296 242.82 886.723 233.456 886.723 219.601L886.723 108.571Z" fill="#ddd" id="right"/>
<path d="M903.419 50.4092C891.104 55.0944 877.402 54.9092 865.235 49.8932L759.191 6.173C750.811 2.71826 751.008 -8.91279 759.5 -12.1138L869.655 -53.6351C881.882 -58.244 895.463 -58.0606 907.544 -53.1234L1013.7 -9.73994C1022.09 -6.3109 1021.93 5.3208 1013.45 8.5477L903.419 50.4092Z" fill="#ddd" id="top"/>
<path d="M922.694 456.699C903.428 448.8 890.7 429.818 890.7 408.984L890.7 296.052C890.7 281.97 904.666 272.592 917.689 277.929L1015.74 318.108C1035.01 326.005 1047.75 344.989 1047.75 365.827L1047.75 478.783C1047.75 492.867 1033.78 502.245 1020.75 496.905L922.694 456.699Z" fill="#ddd" id="left"/>
<path d="M1062.78 370.571C1062.78 349.277 1076.09 329.973 1095.99 322.404L1199.27 283.124C1212.22 278.199 1225.8 287.563 1225.8 301.42L1225.8 412.487C1225.8 433.787 1212.48 453.095 1192.57 460.66L1089.3 499.899C1076.35 504.82 1062.78 495.456 1062.78 481.601L1062.78 370.571Z" fill="#ddd" id="right"/>
<path d="M1079.47 312.409C1067.16 317.094 1053.45 316.909 1041.29 311.893L935.243 268.173C926.864 264.718 927.061 253.087 935.553 249.886L1045.71 208.365C1057.93 203.756 1071.52 203.939 1083.6 208.877L1189.75 252.26C1198.15 255.689 1197.99 267.321 1189.5 270.548L1079.47 312.409Z" fill="#ddd" id="top"/>
<path d="M391.537 194.699C372.27 186.8 359.542 167.818 359.542 146.984L359.543 34.052C359.543 19.9695 373.508 10.5918 386.532 15.9286L484.585 56.1083C503.857 64.0053 516.589 82.9894 516.589 103.827L516.589 216.783C516.589 230.867 502.621 240.245 489.596 234.905L391.537 194.699Z" fill="#ddd" id="left"/>
<path d="M531.617 108.571C531.617 87.2769 544.928 67.9732 564.83 60.4043L668.113 21.1245C681.064 16.1989 694.642 25.5628 694.642 39.4202L694.642 150.487C694.642 171.788 681.324 191.095 661.415 198.66L558.141 237.9C545.19 242.82 531.617 233.456 531.617 219.601L531.617 108.571Z" fill="#ddd" id="right"/>
<path d="M548.314 50.4093C535.999 55.0945 522.296 54.9094 510.13 49.8933L404.086 6.17313C395.706 2.71838 395.903 -8.91267 404.395 -12.1137L514.55 -53.635C526.777 -58.2439 540.358 -58.0605 552.439 -53.1232L658.597 -9.73982C666.988 -6.31078 666.829 5.32092 658.347 8.54782L548.314 50.4093Z" fill="#ddd" id="top"/>
<path d="M568.589 456.699C549.322 448.8 536.595 429.818 536.595 408.984L536.595 296.052C536.595 281.97 550.56 272.592 563.584 277.929L661.638 318.108C680.909 326.005 693.642 344.989 693.642 365.827L693.642 478.783C693.642 492.867 679.673 502.245 666.649 496.905L568.589 456.699Z" fill="#ddd" id="left"/>
<path d="M708.67 370.571C708.67 349.277 721.98 329.973 741.882 322.404L845.165 283.124C858.117 278.199 871.694 287.563 871.694 301.42L871.694 412.487C871.694 433.788 858.377 453.095 838.467 460.66L735.193 499.9C722.243 504.82 708.67 495.456 708.67 481.601L708.67 370.571Z" fill="#ddd" id="right"/>
<path d="M725.367 312.409C713.052 317.095 699.349 316.909 687.182 311.893L581.138 268.173C572.759 264.718 572.956 253.087 581.448 249.886L691.602 208.365C703.829 203.756 717.41 203.94 729.492 208.877L835.65 252.26C844.041 255.689 843.881 267.321 835.399 270.548L725.367 312.409Z" fill="#ddd" id="top"/>
<path d="M1098.75 718.699C1079.48 710.8 1066.75 691.818 1066.75 670.984L1066.75 558.052C1066.75 543.97 1080.72 534.592 1093.74 539.929L1191.8 580.108C1211.07 588.005 1223.8 606.989 1223.8 627.827L1223.8 740.783C1223.8 754.867 1209.83 764.245 1196.81 758.905L1098.75 718.699Z" fill="#ddd" id="left"/>
<path d="M1238.83 632.571C1238.83 611.277 1252.14 591.973 1272.04 584.404L1375.32 545.124C1388.27 540.199 1401.85 549.563 1401.85 563.42L1401.85 674.487C1401.85 695.787 1388.53 715.095 1368.63 722.66L1265.35 761.899C1252.4 766.82 1238.83 757.456 1238.83 743.601L1238.83 632.571Z" fill="#ddd" id="right"/>
<path d="M1255.52 574.409C1243.21 579.094 1229.51 578.909 1217.34 573.893L1111.3 530.173C1102.92 526.718 1103.11 515.087 1111.61 511.886L1221.76 470.365C1233.99 465.756 1247.57 465.939 1259.65 470.877L1365.81 514.26C1374.2 517.689 1374.04 529.321 1365.56 532.548L1255.52 574.409Z" fill="#ddd" id="top"/>
<path d="M744.641 718.699C725.375 710.8 712.647 691.818 712.647 670.984L712.647 558.052C712.647 543.97 726.613 534.592 739.636 539.929L837.69 580.108C856.962 588.005 869.694 606.989 869.694 627.827L869.694 740.783C869.694 754.867 855.726 764.245 842.701 758.905L744.641 718.699Z" fill="#ddd" id="left"/>
<path d="M884.722 632.571C884.722 611.277 898.033 591.973 917.935 584.404L1021.22 545.124C1034.17 540.199 1047.75 549.563 1047.75 563.42L1047.75 674.487C1047.75 695.788 1034.43 715.095 1014.52 722.66L911.245 761.9C898.295 766.82 884.722 757.456 884.722 743.601L884.722 632.571Z" fill="#ddd" id="right"/>
<path d="M901.419 574.409C889.104 579.094 875.401 578.909 863.234 573.893L757.19 530.173C748.811 526.718 749.008 515.087 757.5 511.886L867.654 470.365C879.882 465.756 893.462 465.939 905.544 470.877L1011.7 514.26C1020.09 517.689 1019.93 529.321 1011.45 532.548L901.419 574.409Z" fill="#ddd" id="top"/>
<path d="M1275.8 980.699C1256.53 972.8 1243.81 953.818 1243.81 932.984L1243.81 820.052C1243.81 805.97 1257.77 796.592 1270.79 801.929L1368.85 842.108C1388.12 850.005 1400.85 868.989 1400.85 889.827L1400.85 1002.78C1400.85 1016.87 1386.88 1026.24 1373.86 1020.9L1275.8 980.699Z" fill="#ddd" id="left"/>
<path d="M1415.88 894.571C1415.88 873.277 1429.19 853.973 1449.09 846.404L1552.38 807.124C1565.33 802.199 1578.9 811.563 1578.9 825.42L1578.9 936.487C1578.9 957.787 1565.59 977.095 1545.68 984.66L1442.4 1023.9C1429.45 1028.82 1415.88 1019.46 1415.88 1005.6L1415.88 894.571Z" fill="#ddd" id="right"/>
<path d="M1432.58 836.409C1420.26 841.094 1406.56 840.909 1394.39 835.893L1288.35 792.173C1279.97 788.718 1280.17 777.087 1288.66 773.886L1398.81 732.365C1411.04 727.756 1424.62 727.939 1436.7 732.877L1542.86 776.26C1551.25 779.689 1551.09 791.321 1542.61 794.548L1432.58 836.409Z" fill="#ddd" id="top"/>
<path d="M921.694 980.699C902.427 972.8 889.7 953.818 889.7 932.984L889.7 820.052C889.7 805.97 903.665 796.592 916.689 801.929L1014.74 842.108C1034.01 850.005 1046.75 868.989 1046.75 889.827L1046.75 1002.78C1046.75 1016.87 1032.78 1026.24 1019.75 1020.9L921.694 980.699Z" fill="#ddd" id="left"/>
<path d="M1061.78 894.571C1061.78 873.277 1075.09 853.973 1094.99 846.404L1198.27 807.124C1211.22 802.199 1224.8 811.563 1224.8 825.42L1224.8 936.487C1224.8 957.787 1211.48 977.095 1191.57 984.66L1088.3 1023.9C1075.35 1028.82 1061.78 1019.46 1061.78 1005.6L1061.78 894.571Z" fill="#ddd" id="right"/>
<path d="M1078.47 836.409C1066.16 841.094 1052.45 840.909 1040.29 835.893L934.243 792.173C925.863 788.718 926.06 777.087 934.552 773.886L1044.71 732.365C1056.93 727.756 1070.52 727.939 1082.6 732.877L1188.75 776.26C1197.15 779.689 1196.99 791.321 1188.5 794.548L1078.47 836.409Z" fill="#ddd" id="top"/>
<path d="M1451.85 1242.7C1432.59 1234.8 1419.86 1215.82 1419.86 1194.98L1419.86 1082.05C1419.86 1067.97 1433.82 1058.59 1446.85 1063.93L1544.9 1104.11C1564.17 1112.01 1576.9 1130.99 1576.9 1151.83L1576.9 1264.78C1576.9 1278.87 1562.94 1288.24 1549.91 1282.9L1451.85 1242.7Z" fill="#ddd" id="left"/>
<path d="M1591.93 1156.57C1591.93 1135.28 1605.24 1115.97 1625.15 1108.4L1728.43 1069.12C1741.38 1064.2 1754.96 1073.56 1754.96 1087.42L1754.96 1198.49C1754.96 1219.79 1741.64 1239.1 1721.73 1246.66L1618.46 1285.9C1605.51 1290.82 1591.93 1281.46 1591.93 1267.6L1591.93 1156.57Z" fill="#ddd" id="right"/>
<path d="M1608.63 1098.41C1596.31 1103.09 1582.61 1102.91 1570.44 1097.89L1464.4 1054.17C1456.02 1050.72 1456.22 1039.09 1464.71 1035.89L1574.86 994.365C1587.09 989.756 1600.67 989.939 1612.75 994.877L1718.91 1038.26C1727.3 1041.69 1727.14 1053.32 1718.66 1056.55L1608.63 1098.41Z" fill="#ddd" id="top"/>
<path d="M1097.75 1242.7C1078.48 1234.8 1065.75 1215.82 1065.75 1194.98L1065.75 1082.05C1065.75 1067.97 1079.72 1058.59 1092.74 1063.93L1190.8 1104.11C1210.07 1112.01 1222.8 1130.99 1222.8 1151.83L1222.8 1264.78C1222.8 1278.87 1208.83 1288.24 1195.81 1282.9L1097.75 1242.7Z" fill="#ddd" id="left"/>
<path d="M1237.83 1156.57C1237.83 1135.28 1251.14 1115.97 1271.04 1108.4L1374.32 1069.12C1387.27 1064.2 1400.85 1073.56 1400.85 1087.42L1400.85 1198.49C1400.85 1219.79 1387.53 1239.1 1367.62 1246.66L1264.35 1285.9C1251.4 1290.82 1237.83 1281.46 1237.83 1267.6L1237.83 1156.57Z" fill="#ddd" id="right"/>
<path d="M1254.52 1098.41C1242.21 1103.09 1228.51 1102.91 1216.34 1097.89L1110.3 1054.17C1101.92 1050.72 1102.11 1039.09 1110.6 1035.89L1220.76 994.365C1232.99 989.756 1246.57 989.939 1258.65 994.877L1364.81 1038.26C1373.2 1041.69 1373.04 1053.32 1364.56 1056.55L1254.52 1098.41Z" fill="#ddd" id="top"/>
<path d="M1627.9 1504.7C1608.64 1496.8 1595.91 1477.82 1595.91 1456.98L1595.91 1344.05C1595.91 1329.97 1609.88 1320.59 1622.9 1325.93L1720.95 1366.11C1740.22 1374.01 1752.96 1392.99 1752.96 1413.83L1752.96 1526.78C1752.96 1540.87 1738.99 1550.24 1725.96 1544.9L1627.9 1504.7Z" fill="#ddd" id="left"/>
<path d="M1767.99 1418.57C1767.99 1397.28 1781.3 1377.97 1801.2 1370.4L1904.48 1331.12C1917.43 1326.2 1931.01 1335.56 1931.01 1349.42L1931.01 1460.49C1931.01 1481.79 1917.69 1501.1 1897.78 1508.66L1794.51 1547.9C1781.56 1552.82 1767.99 1543.46 1767.99 1529.6L1767.99 1418.57Z" fill="#ddd" id="right"/>
<path d="M1784.68 1360.41C1772.37 1365.09 1758.66 1364.91 1746.5 1359.89L1640.45 1316.17C1632.07 1312.72 1632.27 1301.09 1640.76 1297.89L1750.92 1256.36C1763.14 1251.76 1776.72 1251.94 1788.81 1256.88L1894.96 1300.26C1903.36 1303.69 1903.2 1315.32 1894.71 1318.55L1784.68 1360.41Z" fill="#ddd" id="top"/>
<path d="M1273.8 1504.7C1254.53 1496.8 1241.8 1477.82 1241.8 1456.98L1241.8 1344.05C1241.8 1329.97 1255.77 1320.59 1268.79 1325.93L1366.85 1366.11C1386.12 1374.01 1398.85 1392.99 1398.85 1413.83L1398.85 1526.78C1398.85 1540.87 1384.88 1550.24 1371.86 1544.9L1273.8 1504.7Z" fill="#ddd" id="left"/>
<path d="M1413.88 1418.57C1413.88 1397.28 1427.19 1377.97 1447.09 1370.4L1550.38 1331.12C1563.33 1326.2 1576.9 1335.56 1576.9 1349.42L1576.9 1460.49C1576.9 1481.79 1563.59 1501.1 1543.68 1508.66L1440.4 1547.9C1427.45 1552.82 1413.88 1543.46 1413.88 1529.6L1413.88 1418.57Z" fill="#ddd" id="right"/>
<path d="M1430.58 1360.41C1418.26 1365.09 1404.56 1364.91 1392.39 1359.89L1286.35 1316.17C1277.97 1312.72 1278.16 1301.09 1286.66 1297.89L1396.81 1256.36C1409.04 1251.76 1422.62 1251.94 1434.7 1256.88L1540.86 1300.26C1549.25 1303.69 1549.09 1315.32 1540.61 1318.55L1430.58 1360.41Z" fill="#ddd" id="top"/>
<path d="M1804.96 1766.7C1785.69 1758.8 1772.96 1739.82 1772.96 1718.98L1772.96 1606.05C1772.96 1591.97 1786.93 1582.59 1799.95 1587.93L1898.01 1628.11C1917.28 1636.01 1930.01 1654.99 1930.01 1675.83L1930.01 1788.78C1930.01 1802.87 1916.04 1812.24 1903.02 1806.9L1804.96 1766.7Z" fill="#ddd" id="left"/>
<path d="M1945.04 1680.57C1945.04 1659.28 1958.35 1639.97 1978.25 1632.4L2081.53 1593.12C2094.48 1588.2 2108.06 1597.56 2108.06 1611.42L2108.06 1722.49C2108.06 1743.79 2094.74 1763.1 2074.84 1770.66L1971.56 1809.9C1958.61 1814.82 1945.04 1805.46 1945.04 1791.6L1945.04 1680.57Z" fill="#ddd" id="right"/>
<path d="M1961.73 1622.41C1949.42 1627.09 1935.72 1626.91 1923.55 1621.89L1817.51 1578.17C1809.13 1574.72 1809.32 1563.09 1817.82 1559.89L1927.97 1518.36C1940.2 1513.76 1953.78 1513.94 1965.86 1518.88L2072.02 1562.26C2080.41 1565.69 2080.25 1577.32 2071.77 1580.55L1961.73 1622.41Z" fill="#ddd" id="top"/>
<path d="M1450.85 1766.7C1431.58 1758.8 1418.86 1739.82 1418.86 1718.98L1418.86 1606.05C1418.86 1591.97 1432.82 1582.59 1445.85 1587.93L1543.9 1628.11C1563.17 1636.01 1575.9 1654.99 1575.9 1675.83L1575.9 1788.78C1575.9 1802.87 1561.94 1812.24 1548.91 1806.9L1450.85 1766.7Z" fill="#ddd" id="left"/>
<path d="M1590.93 1680.57C1590.93 1659.28 1604.24 1639.97 1624.15 1632.4L1727.43 1593.12C1740.38 1588.2 1753.96 1597.56 1753.96 1611.42L1753.96 1722.49C1753.96 1743.79 1740.64 1763.1 1720.73 1770.66L1617.46 1809.9C1604.51 1814.82 1590.93 1805.46 1590.93 1791.6L1590.93 1680.57Z" fill="#ddd" id="right"/>
<path d="M1607.63 1622.41C1595.31 1627.09 1581.61 1626.91 1569.44 1621.89L1463.4 1578.17C1455.02 1574.72 1455.22 1563.09 1463.71 1559.89L1573.86 1518.36C1586.09 1513.76 1599.67 1513.94 1611.75 1518.88L1717.91 1562.26C1726.3 1565.69 1726.14 1577.32 1717.66 1580.55L1607.63 1622.41Z" fill="#ddd" id="top"/>
<path d="M37.4313 194.699C18.1646 186.8 5.43716 167.818 5.43717 146.984L5.43728 34.052C5.43729 19.9695 19.4024 10.5918 32.4263 15.9286L130.48 56.1083C149.752 64.0053 162.484 82.9894 162.484 103.827L162.484 216.783C162.484 230.867 148.515 240.245 135.491 234.905L37.4313 194.699Z" fill="#ddd" id="left"/>
<path d="M177.512 108.571C177.512 87.2769 190.823 67.9732 210.725 60.4043L314.008 21.1245C326.959 16.1989 340.537 25.5628 340.537 39.4202L340.537 150.487C340.537 171.788 327.219 191.095 307.309 198.66L204.035 237.9C191.085 242.82 177.512 233.456 177.512 219.601L177.512 108.571Z" fill="#ddd" id="right"/>
<path d="M194.209 50.4093C181.894 55.0945 168.191 54.9094 156.025 49.8933L49.9805 6.17313C41.601 2.71838 41.7977 -8.91267 50.2898 -12.1137L160.444 -53.635C172.672 -58.2439 186.253 -58.0605 198.334 -53.1232L304.492 -9.73982C312.883 -6.31078 312.724 5.32092 304.242 8.54782L194.209 50.4093Z" fill="#ddd" id="top"/>
<path d="M213.484 456.699C194.217 448.8 181.489 429.818 181.489 408.984L181.49 296.052C181.49 281.97 195.455 272.592 208.479 277.929L306.532 318.108C325.804 326.005 338.536 344.989 338.536 365.827L338.536 478.783C338.536 492.867 324.568 502.245 311.543 496.905L213.484 456.699Z" fill="#ddd" id="left"/>
<path d="M353.565 370.571C353.565 349.277 366.875 329.973 386.777 322.404L490.06 283.124C503.011 278.199 516.589 287.563 516.589 301.42L516.589 412.487C516.589 433.788 503.271 453.095 483.362 460.66L380.088 499.9C367.137 504.82 353.565 495.456 353.565 481.601L353.565 370.571Z" fill="#ddd" id="right"/>
<path d="M370.261 312.409C357.946 317.095 344.243 316.909 332.077 311.893L226.033 268.173C217.653 264.718 217.85 253.087 226.342 249.886L336.497 208.365C348.724 203.756 362.305 203.94 374.386 208.877L480.544 252.26C488.935 255.689 488.776 267.321 480.294 270.548L370.261 312.409Z" fill="#ddd" id="top"/>
<path d="M389.536 718.699C370.269 710.8 357.542 691.818 357.542 670.984L357.542 558.052C357.542 543.97 371.507 534.592 384.531 539.929L482.585 580.108C501.856 588.005 514.588 606.989 514.588 627.827L514.588 740.783C514.588 754.867 500.62 764.245 487.596 758.905L389.536 718.699Z" fill="#ddd" id="left"/>
<path d="M529.617 632.571C529.617 611.277 542.927 591.973 562.829 584.404L666.112 545.124C679.063 540.199 692.641 549.563 692.641 563.42L692.641 674.487C692.641 695.788 679.324 715.095 659.414 722.66L556.14 761.9C543.19 766.82 529.617 757.456 529.617 743.601L529.617 632.571Z" fill="#ddd" id="right"/>
<path d="M546.314 574.409C533.999 579.095 520.296 578.909 508.129 573.893L402.085 530.173C393.706 526.718 393.902 515.087 402.394 511.886L512.549 470.365C524.776 465.756 538.357 465.94 550.438 470.877L656.597 514.26C664.987 517.689 664.828 529.321 656.346 532.548L546.314 574.409Z" fill="#ddd" id="top"/>
<path d="M35.4307 718.699C16.164 710.8 3.43655 691.818 3.43656 670.984L3.43666 558.052C3.43668 543.97 17.4018 534.592 30.4257 539.929L128.479 580.108C147.751 588.005 160.483 606.989 160.483 627.827L160.483 740.783C160.483 754.867 146.515 764.245 133.49 758.905L35.4307 718.699Z" fill="#ddd" id="left"/>
<path d="M175.512 632.571C175.512 611.277 188.822 591.973 208.724 584.404L312.007 545.124C324.958 540.199 338.536 549.563 338.536 563.42L338.536 674.487C338.536 695.788 325.218 715.095 305.309 722.66L202.035 761.9C189.084 766.82 175.512 757.456 175.512 743.601L175.512 632.571Z" fill="#ddd" id="right"/>
<path d="M192.208 574.409C179.893 579.095 166.19 578.909 154.024 573.893L47.9799 530.173C39.6003 526.718 39.7971 515.087 48.2892 511.886L158.444 470.365C170.671 465.756 184.252 465.94 196.333 470.877L302.491 514.26C310.882 517.689 310.723 529.321 302.241 532.548L192.208 574.409Z" fill="#ddd" id="top"/>
<path d="M566.589 980.699C547.322 972.8 534.594 953.818 534.594 932.984L534.595 820.052C534.595 805.97 548.56 796.592 561.584 801.929L659.637 842.108C678.909 850.005 691.641 868.989 691.641 889.827L691.641 1002.78C691.641 1016.87 677.673 1026.24 664.648 1020.9L566.589 980.699Z" fill="#ddd" id="left"/>
<path d="M706.669 894.571C706.67 873.277 719.98 853.973 739.882 846.404L843.165 807.124C856.116 802.199 869.694 811.563 869.694 825.42L869.694 936.487C869.694 957.788 856.376 977.095 836.467 984.66L733.193 1023.9C720.242 1028.82 706.669 1019.46 706.669 1005.6L706.669 894.571Z" fill="#ddd" id="right"/>
<path d="M723.366 836.409C711.051 841.095 697.348 840.909 685.182 835.893L579.138 792.173C570.758 788.718 570.955 777.087 579.447 773.886L689.602 732.365C701.829 727.756 715.41 727.94 727.491 732.877L833.649 776.26C842.04 779.689 841.881 791.321 833.399 794.548L723.366 836.409Z" fill="#ddd" id="top"/>
<path d="M212.483 980.699C193.217 972.8 180.489 953.818 180.489 932.984L180.489 820.052C180.489 805.97 194.454 796.592 207.478 801.929L305.532 842.108C324.804 850.005 337.536 868.989 337.536 889.827L337.536 1002.78C337.536 1016.87 323.567 1026.24 310.543 1020.9L212.483 980.699Z" fill="#ddd" id="left"/>
<path d="M352.564 894.571C352.564 873.277 365.875 853.973 385.777 846.404L489.06 807.124C502.011 802.199 515.589 811.563 515.589 825.42L515.589 936.487C515.589 957.788 502.271 977.095 482.361 984.66L379.087 1023.9C366.137 1028.82 352.564 1019.46 352.564 1005.6L352.564 894.571Z" fill="#ddd" id="right"/>
<path d="M369.261 836.409C356.946 841.095 343.243 840.909 331.077 835.893L225.033 792.173C216.653 788.718 216.85 777.087 225.342 773.886L335.496 732.365C347.724 727.756 361.305 727.94 373.386 732.877L479.544 776.26C487.935 779.689 487.776 791.321 479.294 794.548L369.261 836.409Z" fill="#ddd" id="top"/>
<path d="M33.4301 1242.7C14.1635 1234.8 1.43597 1215.82 1.43598 1194.98L1.43609 1082.05C1.4361 1067.97 15.4013 1058.59 28.4251 1063.93L126.479 1104.11C145.751 1112.01 158.483 1130.99 158.483 1151.83L158.483 1264.78C158.483 1278.87 144.514 1288.24 131.49 1282.9L33.4301 1242.7Z" fill="#ddd" id="left"/>
<path d="M173.511 1156.57C173.511 1135.28 186.821 1115.97 206.723 1108.4L310.006 1069.12C322.958 1064.2 336.535 1073.56 336.535 1087.42L336.535 1198.49C336.535 1219.79 323.218 1239.1 303.308 1246.66L200.034 1285.9C187.084 1290.82 173.511 1281.46 173.511 1267.6L173.511 1156.57Z" fill="#ddd" id="right"/>
<path d="M190.208 1098.41C177.893 1103.09 164.19 1102.91 152.023 1097.89L45.9793 1054.17C37.5998 1050.72 37.7965 1039.09 46.2886 1035.89L156.443 994.365C168.67 989.756 182.251 989.94 194.333 994.877L300.491 1038.26C308.882 1041.69 308.722 1053.32 300.24 1056.55L190.208 1098.41Z" fill="#ddd" id="top"/>
<path d="M742.641 1242.7C723.374 1234.8 710.647 1215.82 710.647 1194.98L710.647 1082.05C710.647 1067.97 724.612 1058.59 737.636 1063.93L835.69 1104.11C854.961 1112.01 867.693 1130.99 867.693 1151.83L867.693 1264.78C867.693 1278.87 853.725 1288.24 840.7 1282.9L742.641 1242.7Z" fill="#ddd" id="left"/>
<path d="M882.722 1156.57C882.722 1135.28 896.032 1115.97 915.934 1108.4L1019.22 1069.12C1032.17 1064.2 1045.75 1073.56 1045.75 1087.42L1045.75 1198.49C1045.75 1219.79 1032.43 1239.1 1012.52 1246.66L909.245 1285.9C896.295 1290.82 882.722 1281.46 882.722 1267.6L882.722 1156.57Z" fill="#ddd" id="right"/>
<path d="M899.418 1098.41C887.103 1103.09 873.4 1102.91 861.234 1097.89L755.19 1054.17C746.81 1050.72 747.007 1039.09 755.499 1035.89L865.654 994.365C877.881 989.756 891.462 989.939 903.543 994.877L1009.7 1038.26C1018.09 1041.69 1017.93 1053.32 1009.45 1056.55L899.418 1098.41Z" fill="#ddd" id="top"/>
<path d="M388.536 1242.7C369.269 1234.8 356.541 1215.82 356.542 1194.98L356.542 1082.05C356.542 1067.97 370.507 1058.59 383.531 1063.93L481.584 1104.11C500.856 1112.01 513.588 1130.99 513.588 1151.83L513.588 1264.78C513.588 1278.87 499.62 1288.24 486.595 1282.9L388.536 1242.7Z" fill="#ddd" id="left"/>
<path d="M528.617 1156.57C528.617 1135.28 541.927 1115.97 561.829 1108.4L665.112 1069.12C678.063 1064.2 691.641 1073.56 691.641 1087.42L691.641 1198.49C691.641 1219.79 678.323 1239.1 658.414 1246.66L555.14 1285.9C542.189 1290.82 528.617 1281.46 528.617 1267.6L528.617 1156.57Z" fill="#ddd" id="right"/>
<path d="M545.313 1098.41C532.998 1103.09 519.295 1102.91 507.129 1097.89L401.085 1054.17C392.705 1050.72 392.902 1039.09 401.394 1035.89L511.549 994.365C523.776 989.756 537.357 989.94 549.438 994.877L655.596 1038.26C663.987 1041.69 663.828 1053.32 655.346 1056.55L545.313 1098.41Z" fill="#ddd" id="top"/>
<path d="M918.693 1504.7C899.427 1496.8 886.699 1477.82 886.699 1456.98L886.699 1344.05C886.699 1329.97 900.664 1320.59 913.688 1325.93L1011.74 1366.11C1031.01 1374.01 1043.75 1392.99 1043.75 1413.83L1043.75 1526.78C1043.75 1540.87 1029.78 1550.24 1016.75 1544.9L918.693 1504.7Z" fill="#ddd" id="left"/>
<path d="M1058.77 1418.57C1058.77 1397.28 1072.08 1377.97 1091.99 1370.4L1195.27 1331.12C1208.22 1326.2 1221.8 1335.56 1221.8 1349.42L1221.8 1460.49C1221.8 1481.79 1208.48 1501.1 1188.57 1508.66L1085.3 1547.9C1072.35 1552.82 1058.77 1543.46 1058.77 1529.6L1058.77 1418.57Z" fill="#ddd" id="right"/>
<path d="M1075.47 1360.41C1063.16 1365.09 1049.45 1364.91 1037.29 1359.89L931.242 1316.17C922.863 1312.72 923.059 1301.09 931.551 1297.89L1041.71 1256.36C1053.93 1251.76 1067.51 1251.94 1079.6 1256.88L1185.75 1300.26C1194.14 1303.69 1193.99 1315.32 1185.5 1318.55L1075.47 1360.41Z" fill="#ddd" id="top"/>
<path d="M564.588 1504.7C545.321 1496.8 532.594 1477.82 532.594 1456.98L532.594 1344.05C532.594 1329.97 546.559 1320.59 559.583 1325.93L657.637 1366.11C676.908 1374.01 689.64 1392.99 689.64 1413.83L689.64 1526.78C689.64 1540.87 675.672 1550.24 662.648 1544.9L564.588 1504.7Z" fill="#ddd" id="left"/>
<path d="M704.669 1418.57C704.669 1397.28 717.979 1377.97 737.881 1370.4L841.164 1331.12C854.115 1326.2 867.693 1335.56 867.693 1349.42L867.693 1460.49C867.693 1481.79 854.376 1501.1 834.466 1508.66L731.192 1547.9C718.242 1552.82 704.669 1543.46 704.669 1529.6L704.669 1418.57Z" fill="#ddd" id="right"/>
<path d="M721.366 1360.41C709.051 1365.09 695.348 1364.91 683.181 1359.89L577.137 1316.17C568.758 1312.72 568.954 1301.09 577.446 1297.89L687.601 1256.37C699.828 1251.76 713.409 1251.94 725.49 1256.88L831.649 1300.26C840.039 1303.69 839.88 1315.32 831.398 1318.55L721.366 1360.41Z" fill="#ddd" id="top"/>
<path d="M1095.75 1766.7C1076.48 1758.8 1063.75 1739.82 1063.75 1718.98L1063.75 1606.05C1063.75 1591.97 1077.72 1582.59 1090.74 1587.93L1188.79 1628.11C1208.07 1636.01 1220.8 1654.99 1220.8 1675.83L1220.8 1788.78C1220.8 1802.87 1206.83 1812.24 1193.81 1806.9L1095.75 1766.7Z" fill="#ddd" id="left"/>
<path d="M1235.83 1680.57C1235.83 1659.28 1249.14 1639.97 1269.04 1632.4L1372.32 1593.12C1385.27 1588.2 1398.85 1597.56 1398.85 1611.42L1398.85 1722.49C1398.85 1743.79 1385.53 1763.1 1365.62 1770.66L1262.35 1809.9C1249.4 1814.82 1235.83 1805.46 1235.83 1791.6L1235.83 1680.57Z" fill="#ddd" id="right"/>
<path d="M1252.52 1622.41C1240.21 1627.09 1226.51 1626.91 1214.34 1621.89L1108.29 1578.17C1099.92 1574.72 1100.11 1563.09 1108.6 1559.89L1218.76 1518.36C1230.99 1513.76 1244.57 1513.94 1256.65 1518.88L1362.81 1562.26C1371.2 1565.69 1371.04 1577.32 1362.56 1580.55L1252.52 1622.41Z" fill="#ddd" id="top"/>
<path d="M741.641 1766.7C722.374 1758.8 709.646 1739.82 709.646 1718.98L709.647 1606.05C709.647 1591.97 723.612 1582.59 736.636 1587.93L834.689 1628.11C853.961 1636.01 866.693 1654.99 866.693 1675.83L866.693 1788.78C866.693 1802.87 852.725 1812.24 839.7 1806.9L741.641 1766.7Z" fill="#ddd" id="left"/>
<path d="M881.722 1680.57C881.722 1659.28 895.032 1639.97 914.934 1632.4L1018.22 1593.12C1031.17 1588.2 1044.75 1597.56 1044.75 1611.42L1044.75 1722.49C1044.75 1743.79 1031.43 1763.1 1011.52 1770.66L908.245 1809.9C895.294 1814.82 881.721 1805.46 881.722 1791.6L881.722 1680.57Z" fill="#ddd" id="right"/>
<path d="M898.418 1622.41C886.103 1627.09 872.4 1626.91 860.234 1621.89L754.19 1578.17C745.81 1574.72 746.007 1563.09 754.499 1559.89L864.653 1518.36C876.881 1513.76 890.462 1513.94 902.543 1518.88L1008.7 1562.26C1017.09 1565.69 1016.93 1577.32 1008.45 1580.55L898.418 1622.41Z" fill="#ddd" id="top"/>
<path d="M209.482 1504.7C190.216 1496.8 177.488 1477.82 177.488 1456.98L177.488 1344.05C177.488 1329.97 191.454 1320.59 204.477 1325.93L302.531 1366.11C321.803 1374.01 334.535 1392.99 334.535 1413.83L334.535 1526.78C334.535 1540.87 320.567 1550.24 307.542 1544.9L209.482 1504.7Z" fill="#ddd" id="left"/>
<path d="M349.563 1418.57C349.563 1397.28 362.874 1377.97 382.776 1370.4L486.059 1331.12C499.01 1326.2 512.588 1335.56 512.588 1349.42L512.588 1460.49C512.588 1481.79 499.27 1501.1 479.361 1508.66L376.086 1547.9C363.136 1552.82 349.563 1543.46 349.563 1529.6L349.563 1418.57Z" fill="#ddd" id="right"/>
<path d="M366.26 1360.41C353.945 1365.09 340.242 1364.91 328.076 1359.89L222.032 1316.17C213.652 1312.72 213.849 1301.09 222.341 1297.89L332.495 1256.37C344.723 1251.76 358.304 1251.94 370.385 1256.88L476.543 1300.26C484.934 1303.69 484.775 1315.32 476.293 1318.55L366.26 1360.41Z" fill="#ddd" id="top"/>
<path d="M386.535 1766.7C367.268 1758.8 354.541 1739.82 354.541 1718.98L354.541 1606.05C354.541 1591.97 368.506 1582.59 381.53 1587.93L479.584 1628.11C498.855 1636.01 511.587 1654.99 511.587 1675.83L511.587 1788.78C511.587 1802.87 497.619 1812.24 484.595 1806.9L386.535 1766.7Z" fill="#ddd" id="left"/>
<path d="M526.616 1680.57C526.616 1659.28 539.926 1639.97 559.828 1632.4L663.111 1593.12C676.063 1588.2 689.64 1597.56 689.64 1611.42L689.64 1722.49C689.64 1743.79 676.323 1763.1 656.413 1770.66L553.139 1809.9C540.189 1814.82 526.616 1805.46 526.616 1791.6L526.616 1680.57Z" fill="#ddd" id="right"/>
<path d="M543.313 1622.41C530.998 1627.09 517.295 1626.91 505.128 1621.89L399.084 1578.17C390.705 1574.72 390.901 1563.09 399.394 1559.89L509.548 1518.37C521.775 1513.76 535.356 1513.94 547.438 1518.88L653.596 1562.26C661.986 1565.69 661.827 1577.32 653.345 1580.55L543.313 1622.41Z" fill="#ddd" id="top"/>
<path d="M32.4298 1766.7C13.1631 1758.8 0.435661 1739.82 0.435679 1718.98L0.43578 1606.05C0.43579 1591.97 14.4009 1582.59 27.4248 1587.93L125.479 1628.11C144.75 1636.01 157.482 1654.99 157.482 1675.83L157.482 1788.78C157.482 1802.87 143.514 1812.24 130.489 1806.9L32.4298 1766.7Z" fill="#ddd" id="left"/>
<path d="M172.511 1680.57C172.511 1659.28 185.821 1639.97 205.723 1632.4L309.006 1593.12C321.957 1588.2 335.535 1597.56 335.535 1611.42L335.535 1722.49C335.535 1743.79 322.218 1763.1 302.308 1770.66L199.034 1809.9C186.084 1814.82 172.511 1805.46 172.511 1791.6L172.511 1680.57Z" fill="#ddd" id="right"/>
<path d="M189.207 1622.41C176.892 1627.09 163.19 1626.91 151.023 1621.89L44.979 1578.17C36.5994 1574.72 36.7962 1563.09 45.2883 1559.89L155.443 1518.37C167.67 1513.76 181.251 1513.94 193.332 1518.88L299.49 1562.26C307.881 1565.69 307.722 1577.32 299.24 1580.55L189.207 1622.41Z" fill="#ddd" id="top"/>
<path d="M-138.507 456.699C-157.774 448.8 -170.501 429.818 -170.501 408.984L-170.501 296.052C-170.501 281.969 -156.536 272.592 -143.512 277.928L-45.4581 318.108C-26.1865 326.005 -13.4544 344.989 -13.4544 365.827L-13.4544 478.783C-13.4544 492.867 -27.4228 502.245 -40.4473 496.905L-138.507 456.699Z" fill="#ddd" id="left"/>
<path d="M1.57406 370.571C1.57406 349.277 14.8844 329.973 34.7864 322.404L138.069 283.124C151.021 278.199 164.598 287.563 164.598 301.42L164.598 412.487C164.598 433.787 151.281 453.095 131.371 460.66L28.0971 499.899C15.1469 504.82 1.57405 495.456 1.57405 481.601L1.57406 370.571Z" fill="#ddd" id="right"/>
<path d="M18.2708 312.409C5.95576 317.094 -7.74709 316.909 -19.9137 311.893L-125.958 268.173C-134.337 264.718 -134.14 253.087 -125.648 249.886L-15.4939 208.365C-3.26658 203.756 10.3144 203.939 22.3956 208.877L128.554 252.26C136.945 255.689 136.785 267.321 128.303 270.548L18.2708 312.409Z" fill="#ddd" id="top"/>
<path d="M-140.507 980.699C-159.774 972.8 -172.502 953.818 -172.502 932.984L-172.502 820.052C-172.501 805.969 -158.536 796.592 -145.512 801.928L-47.4587 842.108C-28.1871 850.005 -15.455 868.989 -15.455 889.827L-15.455 1002.78C-15.455 1016.87 -29.4234 1026.24 -42.4479 1020.9L-140.507 980.699Z" fill="#ddd" id="left"/>
<path d="M-0.426554 894.571C-0.426554 873.277 12.8838 853.973 32.7858 846.404L136.069 807.124C149.02 802.199 162.598 811.563 162.598 825.42L162.598 936.487C162.598 957.787 149.28 977.095 129.371 984.66L26.0965 1023.9C13.1463 1028.82 -0.426557 1019.46 -0.426556 1005.6L-0.426554 894.571Z" fill="#ddd" id="right"/>
<path d="M16.2702 836.409C3.95515 841.094 -9.7477 840.909 -21.9143 835.893L-127.958 792.173C-136.338 788.718 -136.141 777.087 -127.649 773.886L-17.4945 732.365C-5.26719 727.756 8.31374 727.939 20.395 732.877L126.553 776.26C134.944 779.689 134.785 791.321 126.303 794.548L16.2702 836.409Z" fill="#ddd" id="top"/>
<path d="M-142.508 1504.7C-161.775 1496.8 -174.502 1477.82 -174.502 1456.98L-174.502 1344.05C-174.502 1329.97 -160.537 1320.59 -147.513 1325.93L-49.4593 1366.11C-30.1877 1374.01 -17.4556 1392.99 -17.4556 1413.83L-17.4556 1526.78C-17.4556 1540.87 -31.424 1550.24 -44.4485 1544.9L-142.508 1504.7Z" fill="#ddd" id="left"/>
<path d="M-2.42713 1418.57C-2.42713 1397.28 10.8832 1377.97 30.7852 1370.4L134.068 1331.12C147.019 1326.2 160.597 1335.56 160.597 1349.42L160.597 1460.49C160.597 1481.79 147.28 1501.1 127.37 1508.66L24.096 1547.9C11.1457 1552.82 -2.42714 1543.46 -2.42714 1529.6L-2.42713 1418.57Z" fill="#ddd" id="right"/>
<path d="M14.2696 1360.41C1.95457 1365.09 -11.7483 1364.91 -23.9149 1359.89L-129.959 1316.17C-138.338 1312.72 -138.142 1301.09 -129.65 1297.89L-19.4951 1256.36C-7.26777 1251.76 6.31316 1251.94 18.3944 1256.88L124.553 1300.26C132.943 1303.69 132.784 1315.32 124.302 1318.55L14.2696 1360.41Z" fill="#ddd" id="top"/>
<path d="M-143.508 2028.7C-162.775 2020.8 -175.503 2001.82 -175.502 1980.98L-175.502 1868.05C-175.502 1853.97 -161.537 1844.59 -148.513 1849.93L-50.4596 1890.11C-31.188 1898.01 -18.4559 1916.99 -18.4559 1937.83L-18.4559 2050.78C-18.4559 2064.87 -32.4243 2074.24 -45.4488 2068.9L-143.508 2028.7Z" fill="#ddd" id="left"/>
<path d="M-3.42745 1942.57C-3.42745 1921.28 9.88289 1901.97 29.7849 1894.4L133.068 1855.12C146.019 1850.2 159.597 1859.56 159.597 1873.42L159.597 1984.49C159.597 2005.79 146.279 2025.1 126.37 2032.66L23.0956 2071.9C10.1454 2076.82 -3.42746 2067.46 -3.42746 2053.6L-3.42745 1942.57Z" fill="#ddd" id="right"/>
<path d="M13.2693 1884.41C0.954251 1889.09 -12.7486 1888.91 -24.9152 1883.89L-130.959 1840.17C-139.339 1836.72 -139.142 1825.09 -130.65 1821.89L-20.4954 1780.36C-8.26809 1775.76 5.31284 1775.94 17.3941 1780.88L123.552 1824.26C131.943 1827.69 131.784 1839.32 123.302 1842.55L13.2693 1884.41Z" fill="#ddd" id="top"/>
<path d="M2692.22 2028.7C2672.95 2020.8 2660.23 2001.82 2660.23 1980.98L2660.23 1868.05C2660.23 1853.97 2674.19 1844.59 2687.22 1849.93L2785.27 1890.11C2804.54 1898 2817.27 1916.99 2817.27 1937.83L2817.27 2050.78C2817.27 2064.87 2803.3 2074.24 2790.28 2068.9L2692.22 2028.7Z" fill="#ddd" id="left"/>
<path d="M2832.3 1942.57C2832.3 1921.28 2845.61 1901.97 2865.51 1894.4L2968.8 1855.12C2981.75 1850.2 2995.33 1859.56 2995.33 1873.42L2995.33 1984.49C2995.33 2005.79 2982.01 2025.1 2962.1 2032.66L2858.82 2071.9C2845.87 2076.82 2832.3 2067.46 2832.3 2053.6L2832.3 1942.57Z" fill="#ddd" id="right"/>
<path d="M2849 1884.41C2836.68 1889.09 2822.98 1888.91 2810.81 1883.89L2704.77 1840.17C2696.39 1836.72 2696.59 1825.09 2705.08 1821.89L2815.23 1780.36C2827.46 1775.76 2841.04 1775.94 2853.12 1780.88L2959.28 1824.26C2967.67 1827.69 2967.51 1839.32 2959.03 1842.55L2849 1884.41Z" fill="#ddd" id="top"/>
<path d="M2338.11 2028.7C2318.85 2020.8 2306.12 2001.82 2306.12 1980.98L2306.12 1868.05C2306.12 1853.97 2320.09 1844.59 2333.11 1849.93L2431.16 1890.11C2450.44 1898 2463.17 1916.99 2463.17 1937.83L2463.17 2050.78C2463.17 2064.87 2449.2 2074.24 2436.17 2068.9L2338.11 2028.7Z" fill="#ddd" id="left"/>
<path d="M2478.2 1942.57C2478.2 1921.28 2491.51 1901.97 2511.41 1894.4L2614.69 1855.12C2627.64 1850.2 2641.22 1859.56 2641.22 1873.42L2641.22 1984.49C2641.22 2005.79 2627.9 2025.1 2607.99 2032.66L2504.72 2071.9C2491.77 2076.82 2478.2 2067.46 2478.2 2053.6L2478.2 1942.57Z" fill="#ddd" id="right"/>
<path d="M2494.89 1884.41C2482.58 1889.09 2468.87 1888.91 2456.71 1883.89L2350.66 1840.17C2342.28 1836.72 2342.48 1825.09 2350.97 1821.89L2461.13 1780.36C2473.35 1775.76 2486.94 1775.94 2499.02 1780.88L2605.18 1824.26C2613.57 1827.69 2613.41 1839.32 2604.92 1842.55L2494.89 1884.41Z" fill="#ddd" id="top"/>
<path d="M3402.43 2028.7C3383.16 2020.8 3370.44 2001.82 3370.44 1980.98L3370.44 1868.05C3370.44 1853.97 3384.4 1844.59 3397.43 1849.93L3495.48 1890.11C3514.75 1898 3527.48 1916.99 3527.48 1937.83L3527.48 2050.78C3527.48 2064.87 3513.52 2074.24 3500.49 2068.9L3402.43 2028.7Z" fill="#ddd" id="left"/>
<path d="M3559.21 1884.41C3546.89 1889.09 3533.19 1888.91 3521.02 1883.89L3414.98 1840.17C3406.6 1836.72 3406.8 1825.09 3415.29 1821.89L3525.44 1780.36C3537.67 1775.76 3551.25 1775.94 3563.33 1780.88L3669.49 1824.26C3677.88 1827.69 3677.72 1839.32 3669.24 1842.55L3559.21 1884.41Z" fill="#ddd" id="top"/>
<path d="M3048.33 2028.7C3029.06 2020.8 3016.33 2001.82 3016.33 1980.98L3016.33 1868.05C3016.33 1853.97 3030.3 1844.59 3043.32 1849.93L3141.37 1890.11C3160.65 1898 3173.38 1916.99 3173.38 1937.83L3173.38 2050.78C3173.38 2064.87 3159.41 2074.24 3146.39 2068.9L3048.33 2028.7Z" fill="#ddd" id="left"/>
<path d="M3188.41 1942.57C3188.41 1921.28 3201.72 1901.97 3221.62 1894.4L3324.9 1855.12C3337.85 1850.2 3351.43 1859.56 3351.43 1873.42L3351.43 1984.49C3351.43 2005.79 3338.11 2025.1 3318.2 2032.66L3214.93 2071.9C3201.98 2076.82 3188.41 2067.46 3188.41 2053.6L3188.41 1942.57Z" fill="#ddd" id="right"/>
<path d="M3205.1 1884.41C3192.79 1889.09 3179.09 1888.91 3166.92 1883.89L3060.88 1840.17C3052.5 1836.72 3052.69 1825.09 3061.18 1821.89L3171.34 1780.36C3183.57 1775.76 3197.15 1775.94 3209.23 1780.88L3315.39 1824.26C3323.78 1827.69 3323.62 1839.32 3315.14 1842.55L3205.1 1884.41Z" fill="#ddd" id="top"/>
<path d="M1982.01 2028.7C1962.74 2020.8 1950.02 2001.82 1950.02 1980.98L1950.02 1868.05C1950.02 1853.97 1963.98 1844.59 1977 1849.93L2075.06 1890.11C2094.33 1898 2107.06 1916.99 2107.06 1937.83L2107.06 2050.78C2107.06 2064.87 2093.09 2074.24 2080.07 2068.9L1982.01 2028.7Z" fill="#ddd" id="left"/>
<path d="M2122.09 1942.57C2122.09 1921.28 2135.4 1901.97 2155.3 1894.4L2258.59 1855.12C2271.54 1850.2 2285.11 1859.56 2285.11 1873.42L2285.11 1984.49C2285.11 2005.79 2271.8 2025.1 2251.89 2032.66L2148.61 2071.9C2135.66 2076.82 2122.09 2067.46 2122.09 2053.6L2122.09 1942.57Z" fill="#ddd" id="right"/>
<path d="M2138.79 1884.41C2126.47 1889.09 2112.77 1888.91 2100.6 1883.89L1994.56 1840.17C1986.18 1836.72 1986.38 1825.09 1994.87 1821.89L2105.02 1780.36C2117.25 1775.76 2130.83 1775.94 2142.91 1780.88L2249.07 1824.26C2257.46 1827.69 2257.3 1839.32 2248.82 1842.55L2138.79 1884.41Z" fill="#ddd" id="top"/>
<path d="M1627.9 2028.7C1608.64 2020.8 1595.91 2001.82 1595.91 1980.98L1595.91 1868.05C1595.91 1853.97 1609.88 1844.59 1622.9 1849.93L1720.95 1890.11C1740.22 1898 1752.96 1916.99 1752.96 1937.83L1752.96 2050.78C1752.96 2064.87 1738.99 2074.24 1725.96 2068.9L1627.9 2028.7Z" fill="#ddd" id="left"/>
<path d="M1767.99 1942.57C1767.99 1921.28 1781.3 1901.97 1801.2 1894.4L1904.48 1855.12C1917.43 1850.2 1931.01 1859.56 1931.01 1873.42L1931.01 1984.49C1931.01 2005.79 1917.69 2025.1 1897.78 2032.66L1794.51 2071.9C1781.56 2076.82 1767.99 2067.46 1767.99 2053.6L1767.99 1942.57Z" fill="#ddd" id="right"/>
<path d="M1784.68 1884.41C1772.37 1889.09 1758.66 1888.91 1746.5 1883.89L1640.45 1840.17C1632.07 1836.72 1632.27 1825.09 1640.76 1821.89L1750.92 1780.36C1763.14 1775.76 1776.72 1775.94 1788.81 1780.88L1894.96 1824.26C1903.36 1827.69 1903.2 1839.32 1894.71 1842.55L1784.68 1884.41Z" fill="#ddd" id="top"/>
<path d="M1272.8 2028.7C1253.53 2020.8 1240.8 2001.82 1240.8 1980.98L1240.8 1868.05C1240.8 1853.97 1254.77 1844.59 1267.79 1849.93L1365.85 1890.11C1385.12 1898 1397.85 1916.99 1397.85 1937.83L1397.85 2050.78C1397.85 2064.87 1383.88 2074.24 1370.86 2068.9L1272.8 2028.7Z" fill="#ddd" id="left"/>
<path d="M1412.88 1942.57C1412.88 1921.28 1426.19 1901.97 1446.09 1894.4L1549.37 1855.12C1562.33 1850.2 1575.9 1859.56 1575.9 1873.42L1575.9 1984.49C1575.9 2005.79 1562.59 2025.1 1542.68 2032.66L1439.4 2071.9C1426.45 2076.82 1412.88 2067.46 1412.88 2053.6L1412.88 1942.57Z" fill="#ddd" id="right"/>
<path d="M1429.58 1884.41C1417.26 1889.09 1403.56 1888.91 1391.39 1883.89L1285.35 1840.17C1276.97 1836.72 1277.16 1825.09 1285.66 1821.89L1395.81 1780.36C1408.04 1775.76 1421.62 1775.94 1433.7 1780.88L1539.86 1824.26C1548.25 1827.69 1548.09 1839.32 1539.61 1842.55L1429.58 1884.41Z" fill="#ddd" id="top"/>
<path d="M918.693 2028.7C899.427 2020.8 886.699 2001.82 886.699 1980.98L886.699 1868.05C886.699 1853.97 900.664 1844.59 913.688 1849.93L1011.74 1890.11C1031.01 1898 1043.75 1916.99 1043.75 1937.83L1043.75 2050.78C1043.75 2064.87 1029.78 2074.24 1016.75 2068.9L918.693 2028.7Z" fill="#ddd" id="left"/>
<path d="M1058.77 1942.57C1058.77 1921.28 1072.08 1901.97 1091.99 1894.4L1195.27 1855.12C1208.22 1850.2 1221.8 1859.56 1221.8 1873.42L1221.8 1984.49C1221.8 2005.79 1208.48 2025.1 1188.57 2032.66L1085.3 2071.9C1072.35 2076.82 1058.77 2067.46 1058.77 2053.6L1058.77 1942.57Z" fill="#ddd" id="right"/>
<path d="M1075.47 1884.41C1063.16 1889.09 1049.45 1888.91 1037.29 1883.89L931.242 1840.17C922.863 1836.72 923.059 1825.09 931.551 1821.89L1041.71 1780.36C1053.93 1775.76 1067.51 1775.94 1079.6 1780.88L1185.75 1824.26C1194.14 1827.69 1193.99 1839.32 1185.5 1842.55L1075.47 1884.41Z" fill="#ddd" id="top"/>
<path d="M563.588 2028.7C544.321 2020.8 531.593 2001.82 531.594 1980.98L531.594 1868.05C531.594 1853.97 545.559 1844.59 558.583 1849.93L656.636 1890.11C675.908 1898 688.64 1916.99 688.64 1937.83L688.64 2050.78C688.64 2064.87 674.672 2074.24 661.647 2068.9L563.588 2028.7Z" fill="#ddd" id="left"/>
<path d="M703.669 1942.57C703.669 1921.28 716.979 1901.97 736.881 1894.4L840.164 1855.12C853.115 1850.2 866.693 1859.56 866.693 1873.42L866.693 1984.49C866.693 2005.79 853.375 2025.1 833.466 2032.66L730.192 2071.9C717.241 2076.82 703.669 2067.46 703.669 2053.6L703.669 1942.57Z" fill="#ddd" id="right"/>
<path d="M720.365 1884.41C708.05 1889.09 694.347 1888.91 682.181 1883.89L576.137 1840.17C567.757 1836.72 567.954 1825.09 576.446 1821.89L686.601 1780.37C698.828 1775.76 712.409 1775.94 724.49 1780.88L830.648 1824.26C839.039 1827.69 838.88 1839.32 830.398 1842.55L720.365 1884.41Z" fill="#ddd" id="top"/>
<path d="M209.482 2028.7C190.216 2020.8 177.488 2001.82 177.488 1980.98L177.488 1868.05C177.488 1853.97 191.454 1844.59 204.477 1849.93L302.531 1890.11C321.803 1898 334.535 1916.99 334.535 1937.83L334.535 2050.78C334.535 2064.87 320.567 2074.24 307.542 2068.9L209.482 2028.7Z" fill="#ddd" id="left"/>
<path d="M349.563 1942.57C349.563 1921.28 362.874 1901.97 382.776 1894.4L486.059 1855.12C499.01 1850.2 512.588 1859.56 512.588 1873.42L512.588 1984.49C512.588 2005.79 499.27 2025.1 479.361 2032.66L376.086 2071.9C363.136 2076.82 349.563 2067.46 349.563 2053.6L349.563 1942.57Z" fill="#ddd" id="right"/>
<path d="M366.26 1884.41C353.945 1889.09 340.242 1888.91 328.076 1883.89L222.032 1840.17C213.652 1836.72 213.849 1825.09 222.341 1821.89L332.495 1780.37C344.723 1775.76 358.304 1775.94 370.385 1780.88L476.543 1824.26C484.934 1827.69 484.775 1839.32 476.293 1842.55L366.26 1884.41Z" fill="#ddd" id="top"/>
</g>
<defs>
<clipPath id="clip0_120_2832">
<rect width="3535" height="2034" fill="white"/>
</clipPath>
</defs>
</svg>
