<svg width="3840" height="2160" viewBox="0 0 3840 2160" fill="none" xmlns="http://www.w3.org/2000/svg">
<g clip-path="url(#clip0_128_2)">
<rect width="3840" height="2160" fill="white"/>
<path d="M3715.18 503.989C3695.9 496.162 3683.17 477.242 3683.17 456.426L3683.17 347.203C3683.17 333.128 3697.15 323.707 3710.18 328.996L3806.37 368.027C3825.65 375.851 3838.39 394.774 3838.39 415.594L3838.39 524.839C3838.39 538.915 3824.41 548.337 3811.37 543.044L3715.18 503.989Z" fill="#43BCD8"/>
<path d="M3869.89 362.552C3857.61 367.176 3843.97 367.035 3831.82 362.16L3727.13 320.162C3718.68 316.771 3718.82 305.174 3727.36 301.955L3835.99 260.99C3848.31 256.341 3862.03 256.501 3874.22 261.435L3978.37 303.584C3986.79 306.995 3986.63 318.568 3978.11 321.78L3869.89 362.552Z" fill="#1B7488"/>
<path d="M3712.24 1016.86C3692.97 1009.03 3680.23 990.109 3680.23 969.293L3680.23 860.069C3680.23 845.995 3694.21 836.574 3707.25 841.863L3803.43 880.894C3822.71 888.718 3835.45 907.641 3835.45 928.461L3835.45 1037.71C3835.45 1051.78 3821.47 1061.2 3808.43 1055.91L3712.24 1016.86Z" fill="#43BCD8"/>
<path d="M3867.12 875.355C3854.75 880.017 3840.98 879.833 3828.76 874.843L3724.63 832.33C3716.22 828.893 3716.42 817.321 3724.95 814.135L3833.12 773.757C3845.41 769.171 3859.05 769.353 3871.19 774.264L3975.43 816.451C3983.86 819.862 3983.7 831.436 3975.17 834.647L3867.12 875.355Z" fill="#1B7488"/>
<path d="M3710.29 1529.72C3691.01 1521.9 3678.28 1502.98 3678.28 1482.16L3678.28 1372.94C3678.28 1358.86 3692.26 1349.44 3705.29 1354.73L3801.47 1393.76C3820.76 1401.59 3833.49 1420.51 3833.49 1441.33L3833.49 1550.57C3833.49 1564.65 3819.51 1574.07 3806.48 1568.78L3710.29 1529.72Z" fill="#43BCD8"/>
<path d="M3865.17 1388.22C3852.79 1392.88 3839.03 1392.7 3826.8 1387.71L3722.68 1345.2C3714.26 1341.76 3714.46 1330.19 3722.99 1327L3831.17 1286.62C3843.45 1282.04 3857.1 1282.22 3869.23 1287.13L3973.47 1329.32C3981.9 1332.73 3981.74 1344.3 3973.22 1347.51L3865.17 1388.22Z" fill="#1B7488"/>
<path d="M3708.33 2041.61C3689.05 2033.78 3676.32 2014.86 3676.32 1994.05L3676.32 1884.83C3676.32 1870.75 3690.3 1861.33 3703.33 1866.62L3799.52 1905.65C3818.8 1913.47 3831.54 1932.4 3831.54 1953.22L3831.54 2062.46C3831.54 2076.54 3817.56 2085.96 3804.52 2080.67L3708.33 2041.61Z" fill="#43BCD8"/>
<path d="M3863.21 1900.11C3850.84 1904.77 3837.07 1904.59 3824.85 1899.6L3720.72 1857.09C3712.3 1853.65 3712.5 1842.08 3721.04 1838.89L3829.21 1798.51C3841.49 1793.93 3855.14 1794.11 3867.28 1799.02L3971.52 1841.21C3979.95 1844.62 3979.78 1856.19 3971.26 1859.4L3863.21 1900.11Z" fill="#1B7488"/>
<path d="M3502.65 419.253C3502.65 397.971 3515.97 378.722 3535.88 371.222L3637.23 333.053C3650.19 328.172 3663.77 337.576 3663.77 351.426L3663.77 458.811C3663.77 480.098 3650.45 499.351 3630.53 506.847L3529.19 544.977C3516.23 549.853 3502.65 540.449 3502.65 526.602L3502.65 419.253Z" fill="#2E93AB"/>
<path d="M3499.68 932.12C3499.68 910.838 3513 891.589 3532.91 884.089L3634.26 845.92C3647.22 841.039 3660.81 850.442 3660.81 864.293L3660.81 971.677C3660.81 992.965 3647.48 1012.22 3627.56 1019.71L3526.22 1057.84C3513.26 1062.72 3499.68 1053.32 3499.68 1039.47L3499.68 932.12Z" fill="#2E93AB"/>
<path d="M3497.7 1444.99C3497.7 1423.71 3511.02 1404.46 3530.94 1396.96L3632.28 1358.79C3645.24 1353.91 3658.83 1363.31 3658.83 1377.16L3658.83 1484.55C3658.83 1505.83 3645.51 1525.09 3625.58 1532.58L3524.25 1570.71C3511.29 1575.59 3497.7 1566.18 3497.7 1552.34L3497.7 1444.99Z" fill="#2E93AB"/>
<path d="M3495.73 1957.86C3495.73 1936.57 3509.05 1917.32 3528.96 1909.82L3630.31 1871.66C3643.27 1866.77 3656.85 1876.18 3656.85 1890.03L3656.85 1997.41C3656.85 2018.7 3643.53 2037.95 3623.61 2045.45L3522.27 2083.58C3509.31 2088.45 3495.73 2079.05 3495.73 2065.2L3495.73 1957.86Z" fill="#2E93AB"/>
<path d="M1434.97 246.576C1415.69 238.749 1402.96 219.829 1402.96 199.013L1402.96 89.7897C1402.96 75.7153 1416.94 66.2937 1429.97 71.5831L1526.16 110.614C1545.44 118.438 1558.18 137.361 1558.18 158.181L1558.18 267.426C1558.18 281.503 1544.19 290.924 1531.16 285.632L1434.97 246.576Z" fill="#43BCD8"/>
<path d="M1573.03 162.854C1573.03 141.572 1586.35 122.323 1606.26 114.823L1707.61 76.6537C1720.57 71.7729 1734.16 81.1763 1734.16 95.0264L1734.16 202.411C1734.16 223.699 1720.83 242.951 1700.91 250.447L1599.57 288.577C1586.61 293.453 1573.03 284.05 1573.03 270.202L1573.03 162.854Z" fill="#2E93AB"/>
<path d="M1589.85 105.074C1577.47 109.736 1563.71 109.553 1551.48 104.563L1447.36 62.0501C1438.94 58.6132 1439.14 47.0403 1447.67 43.8549L1555.85 3.47702C1568.13 -1.10923 1581.78 -0.927434 1593.91 3.9842L1698.15 46.1705C1706.58 49.5819 1706.42 61.1554 1697.9 64.3666L1589.85 105.074Z" fill="#1B7488"/>
<path d="M1608.97 503.009C1589.69 495.182 1576.96 476.262 1576.96 455.446L1576.96 346.223C1576.96 332.148 1590.94 322.727 1603.97 328.016L1700.16 367.047C1719.44 374.871 1732.18 393.794 1732.18 414.614L1732.18 523.86C1732.18 537.936 1718.2 547.357 1705.16 542.065L1608.97 503.009Z" fill="#43BCD8"/>
<path d="M1747.03 419.287C1747.03 398.005 1760.35 378.756 1780.26 371.256L1881.61 333.087C1894.57 328.206 1908.16 337.609 1908.16 351.46L1908.16 458.844C1908.16 480.132 1894.83 499.385 1874.91 506.88L1773.57 545.01C1760.61 549.886 1747.03 540.483 1747.03 526.635L1747.03 419.287Z" fill="#2E93AB"/>
<path d="M1763.85 361.507C1751.48 366.17 1737.71 365.986 1725.49 360.996L1621.36 318.483C1612.94 315.046 1613.14 303.473 1621.68 300.288L1729.85 259.91C1742.13 255.324 1755.78 255.506 1767.92 260.417L1872.16 302.604C1880.59 306.015 1880.42 317.589 1871.9 320.8L1763.85 361.507Z" fill="#1B7488"/>
<path d="M1084 246.576C1064.72 238.749 1051.99 219.829 1051.99 199.013L1051.99 89.7899C1051.99 75.7155 1065.97 66.294 1079 71.5834L1175.19 110.614C1194.47 118.438 1207.21 137.361 1207.21 158.181L1207.21 267.427C1207.21 281.503 1193.22 290.924 1180.19 285.632L1084 246.576Z" fill="#43BCD8"/>
<path d="M1222.06 162.854C1222.06 141.572 1235.38 122.323 1255.29 114.823L1356.64 76.6537C1369.6 71.7729 1383.18 81.1763 1383.18 95.0264L1383.18 202.411C1383.18 223.699 1369.86 242.951 1349.94 250.447L1248.6 288.577C1235.64 293.453 1222.06 284.05 1222.06 270.202L1222.06 162.854Z" fill="#2E93AB"/>
<path d="M1238.88 105.074C1226.5 109.736 1212.74 109.553 1200.51 104.563L1096.39 62.0501C1087.97 58.6132 1088.17 47.0403 1096.7 43.8549L1204.88 3.47702C1217.16 -1.10923 1230.81 -0.927434 1242.94 3.9842L1347.19 46.1705C1355.61 49.5819 1355.45 61.1554 1346.93 64.3666L1238.88 105.074Z" fill="#1B7488"/>
<path d="M1258.99 503.009C1239.71 495.182 1226.98 476.262 1226.98 455.446L1226.98 346.223C1226.98 332.148 1240.96 322.727 1253.99 328.016L1350.18 367.047C1369.46 374.871 1382.2 393.794 1382.2 414.614L1382.2 523.86C1382.2 537.936 1368.21 547.357 1355.18 542.065L1258.99 503.009Z" fill="#43BCD8"/>
<path d="M1397.05 419.287C1397.05 398.005 1410.37 378.756 1430.28 371.256L1531.63 333.087C1544.59 328.206 1558.18 337.61 1558.18 351.46L1558.18 458.844C1558.18 480.132 1544.85 499.385 1524.93 506.88L1423.59 545.011C1410.63 549.887 1397.05 540.483 1397.05 526.636L1397.05 419.287Z" fill="#2E93AB"/>
<path d="M1413.87 361.507C1401.49 366.17 1387.73 365.986 1375.5 360.996L1271.38 318.483C1262.96 315.046 1263.16 303.473 1271.7 300.288L1379.87 259.91C1392.15 255.324 1405.8 255.506 1417.93 260.417L1522.18 302.604C1530.61 306.015 1530.44 317.589 1521.92 320.8L1413.87 361.507Z" fill="#1B7488"/>
<path d="M1782.97 759.444C1763.69 751.617 1750.96 732.697 1750.96 711.88L1750.96 602.657C1750.96 588.583 1764.94 579.161 1777.98 584.451L1874.16 623.481C1893.44 631.306 1906.18 650.228 1906.18 671.048L1906.18 780.294C1906.18 794.37 1892.2 803.792 1879.16 798.499L1782.97 759.444Z" fill="#43BCD8"/>
<path d="M1921.03 675.721C1921.03 654.439 1934.35 635.19 1954.26 627.69L2055.61 589.521C2068.57 584.64 2082.16 594.044 2082.16 607.894L2082.16 715.279C2082.16 736.566 2068.83 755.819 2048.91 763.315L1947.57 801.445C1934.62 806.321 1921.03 796.917 1921.03 783.07L1921.03 675.721Z" fill="#2E93AB"/>
<path d="M1937.85 617.941C1925.48 622.604 1911.71 622.42 1899.49 617.43L1795.36 574.917C1786.94 571.48 1787.14 559.907 1795.68 556.722L1903.85 516.344C1916.14 511.758 1929.78 511.94 1941.92 516.851L2046.16 559.038C2054.59 562.449 2054.42 574.023 2045.9 577.234L1937.85 617.941Z" fill="#1B7488"/>
<path d="M1432.99 759.444C1413.71 751.617 1400.98 732.697 1400.98 711.88L1400.98 602.657C1400.98 588.583 1414.96 579.161 1427.99 584.451L1524.18 623.481C1543.46 631.306 1556.2 650.228 1556.2 671.048L1556.2 780.294C1556.2 794.37 1542.22 803.792 1529.18 798.499L1432.99 759.444Z" fill="#43BCD8"/>
<path d="M1571.05 675.721C1571.05 654.439 1584.37 635.19 1604.28 627.69L1705.63 589.521C1718.59 584.64 1732.18 594.044 1732.18 607.894L1732.18 715.279C1732.18 736.566 1718.85 755.819 1698.93 763.315L1597.59 801.445C1584.63 806.321 1571.05 796.917 1571.05 783.07L1571.05 675.721Z" fill="#2E93AB"/>
<path d="M1587.87 617.941C1575.5 622.604 1561.73 622.42 1549.51 617.43L1445.38 574.917C1436.96 571.48 1437.16 559.907 1445.7 556.722L1553.87 516.344C1566.15 511.758 1579.8 511.94 1591.94 516.851L1696.18 559.038C1704.61 562.449 1704.44 574.023 1695.92 577.234L1587.87 617.941Z" fill="#1B7488"/>
<path d="M1957.96 1015.88C1938.69 1008.05 1925.95 989.13 1925.95 968.314L1925.95 859.091C1925.95 845.017 1939.93 835.595 1952.97 840.884L2049.15 879.915C2068.43 887.74 2081.17 906.662 2081.17 927.482L2081.17 1036.73C2081.17 1050.8 2067.19 1060.23 2054.15 1054.93L1957.96 1015.88Z" fill="#43BCD8"/>
<path d="M2096.02 932.155C2096.02 910.873 2109.34 891.624 2129.25 884.124L2230.6 845.955C2243.56 841.074 2257.15 850.478 2257.15 864.328L2257.15 971.712C2257.15 993 2243.82 1012.25 2223.9 1019.75L2122.56 1057.88C2109.6 1062.75 2096.02 1053.35 2096.02 1039.5L2096.02 932.155Z" fill="#2E93AB"/>
<path d="M2112.84 874.376C2100.47 879.038 2086.7 878.854 2074.48 873.864L1970.35 831.351C1961.93 827.914 1962.13 816.342 1970.67 813.156L2078.84 772.778C2091.13 768.192 2104.77 768.374 2116.91 773.285L2221.15 815.472C2229.58 818.883 2229.41 830.457 2220.89 833.668L2112.84 874.376Z" fill="#1B7488"/>
<path d="M1607.98 1015.88C1588.7 1008.05 1575.97 989.13 1575.97 968.314L1575.97 859.091C1575.97 845.017 1589.95 835.595 1602.99 840.884L1699.17 879.915C1718.45 887.74 1731.19 906.662 1731.19 927.482L1731.19 1036.73C1731.19 1050.8 1717.21 1060.23 1704.17 1054.93L1607.98 1015.88Z" fill="#43BCD8"/>
<path d="M1746.04 932.155C1746.04 910.873 1759.36 891.624 1779.27 884.124L1880.62 845.955C1893.58 841.074 1907.17 850.478 1907.17 864.328L1907.17 971.712C1907.17 993 1893.84 1012.25 1873.92 1019.75L1772.58 1057.88C1759.62 1062.75 1746.04 1053.35 1746.04 1039.5L1746.04 932.155Z" fill="#2E93AB"/>
<path d="M1762.86 874.376C1750.49 879.038 1736.72 878.854 1724.5 873.864L1620.37 831.351C1611.95 827.914 1612.15 816.342 1620.69 813.156L1728.86 772.778C1741.14 768.192 1754.79 768.374 1766.93 773.285L1871.17 815.472C1879.6 818.883 1879.43 830.457 1870.91 833.668L1762.86 874.376Z" fill="#1B7488"/>
<path d="M2131.96 1272.31C2112.69 1264.48 2099.95 1245.56 2099.95 1224.75L2099.95 1115.53C2099.95 1101.45 2113.93 1092.03 2126.97 1097.32L2223.15 1136.35C2242.43 1144.17 2255.17 1163.1 2255.17 1183.92L2255.17 1293.16C2255.17 1307.24 2241.19 1316.66 2228.15 1311.37L2131.96 1272.31Z" fill="#43BCD8"/>
<path d="M2270.03 1188.59C2270.03 1167.31 2283.34 1148.06 2303.26 1140.56L2404.6 1102.39C2417.56 1097.51 2431.15 1106.91 2431.15 1120.76L2431.15 1228.15C2431.15 1249.43 2417.83 1268.69 2397.9 1276.18L2296.57 1314.31C2283.61 1319.19 2270.03 1309.79 2270.03 1295.94L2270.03 1188.59Z" fill="#2E93AB"/>
<path d="M2286.84 1130.81C2274.47 1135.47 2260.7 1135.29 2248.48 1130.3L2144.35 1087.79C2135.94 1084.35 2136.14 1072.78 2144.67 1069.59L2252.84 1029.21C2265.13 1024.63 2278.77 1024.81 2290.91 1029.72L2395.15 1071.91C2403.58 1075.32 2403.42 1086.89 2394.89 1090.1L2286.84 1130.81Z" fill="#1B7488"/>
<path d="M1781.98 1272.31C1762.71 1264.48 1749.97 1245.56 1749.97 1224.75L1749.97 1115.53C1749.97 1101.45 1763.95 1092.03 1776.99 1097.32L1873.17 1136.35C1892.45 1144.17 1905.19 1163.1 1905.19 1183.92L1905.19 1293.16C1905.19 1307.24 1891.21 1316.66 1878.17 1311.37L1781.98 1272.31Z" fill="#43BCD8"/>
<path d="M1920.05 1188.59C1920.05 1167.31 1933.36 1148.06 1953.28 1140.56L2054.62 1102.39C2067.58 1097.51 2081.17 1106.91 2081.17 1120.76L2081.17 1228.15C2081.17 1249.43 2067.85 1268.69 2047.92 1276.18L1946.59 1314.31C1933.63 1319.19 1920.05 1309.79 1920.05 1295.94L1920.05 1188.59Z" fill="#2E93AB"/>
<path d="M1936.86 1130.81C1924.49 1135.47 1910.72 1135.29 1898.5 1130.3L1794.37 1087.79C1785.95 1084.35 1786.16 1072.78 1794.69 1069.59L1902.86 1029.21C1915.15 1024.63 1928.79 1024.81 1940.93 1029.72L2045.17 1071.91C2053.6 1075.32 2053.44 1086.89 2044.91 1090.1L1936.86 1130.81Z" fill="#1B7488"/>
<path d="M2305.97 1528.74C2286.69 1520.92 2273.96 1502 2273.96 1481.18L2273.96 1371.96C2273.96 1357.88 2287.93 1348.46 2300.97 1353.75L2397.15 1392.78C2416.44 1400.61 2429.17 1419.53 2429.17 1440.35L2429.17 1549.59C2429.17 1563.67 2415.19 1573.09 2402.16 1567.8L2305.97 1528.74Z" fill="#43BCD8"/>
<path d="M2444.03 1445.02C2444.03 1423.74 2457.34 1404.49 2477.26 1396.99L2578.61 1358.82C2591.57 1353.94 2605.15 1363.34 2605.15 1377.19L2605.15 1484.58C2605.15 1505.87 2591.83 1525.12 2571.91 1532.62L2470.57 1570.75C2457.61 1575.62 2444.03 1566.22 2444.03 1552.37L2444.03 1445.02Z" fill="#2E93AB"/>
<path d="M2460.85 1387.24C2448.47 1391.9 2434.7 1391.72 2422.48 1386.73L2318.35 1344.22C2309.94 1340.78 2310.14 1329.21 2318.67 1326.02L2426.84 1285.65C2439.13 1281.06 2452.77 1281.24 2464.91 1286.15L2569.15 1328.34C2577.58 1331.75 2577.42 1343.32 2568.89 1346.54L2460.85 1387.24Z" fill="#1B7488"/>
<path d="M1955.99 1528.74C1936.71 1520.92 1923.97 1502 1923.97 1481.18L1923.97 1371.96C1923.98 1357.88 1937.95 1348.46 1950.99 1353.75L2047.17 1392.78C2066.45 1400.61 2079.19 1419.53 2079.19 1440.35L2079.19 1549.59C2079.19 1563.67 2065.21 1573.09 2052.17 1567.8L1955.99 1528.74Z" fill="#43BCD8"/>
<path d="M2094.05 1445.02C2094.05 1423.74 2107.36 1404.49 2127.28 1396.99L2228.63 1358.82C2241.58 1353.94 2255.17 1363.34 2255.17 1377.19L2255.17 1484.58C2255.17 1505.87 2241.85 1525.12 2221.93 1532.62L2120.59 1570.75C2107.63 1575.62 2094.05 1566.22 2094.05 1552.37L2094.05 1445.02Z" fill="#2E93AB"/>
<path d="M2110.86 1387.24C2098.49 1391.9 2084.72 1391.72 2072.5 1386.73L1968.37 1344.22C1959.96 1340.78 1960.16 1329.21 1968.69 1326.02L2076.86 1285.65C2089.15 1281.06 2102.79 1281.24 2114.93 1286.15L2219.17 1328.34C2227.6 1331.75 2227.44 1343.32 2218.91 1346.54L2110.86 1387.24Z" fill="#1B7488"/>
<path d="M2480.96 1785.18C2461.68 1777.35 2448.95 1758.43 2448.95 1737.61L2448.95 1628.39C2448.95 1614.32 2462.92 1604.9 2475.96 1610.18L2572.14 1649.22C2591.43 1657.04 2604.16 1675.96 2604.16 1696.78L2604.16 1806.03C2604.16 1820.1 2590.18 1829.53 2577.15 1824.23L2480.96 1785.18Z" fill="#43BCD8"/>
<path d="M2619.02 1701.46C2619.02 1680.17 2632.33 1660.92 2652.25 1653.42L2753.6 1615.26C2766.56 1610.37 2780.14 1619.78 2780.14 1633.63L2780.14 1741.01C2780.14 1762.3 2766.82 1781.55 2746.9 1789.05L2645.56 1827.18C2632.6 1832.05 2619.02 1822.65 2619.02 1808.8L2619.02 1701.46Z" fill="#2E93AB"/>
<path d="M2635.84 1643.68C2623.46 1648.34 2609.69 1648.15 2597.47 1643.16L2493.34 1600.65C2484.93 1597.22 2485.13 1585.64 2493.66 1582.46L2601.83 1542.08C2614.12 1537.49 2627.76 1537.67 2639.9 1542.59L2744.14 1584.77C2752.57 1588.18 2752.41 1599.76 2743.88 1602.97L2635.84 1643.68Z" fill="#1B7488"/>
<path d="M2130.98 1785.18C2111.7 1777.35 2098.97 1758.43 2098.97 1737.61L2098.97 1628.39C2098.97 1614.32 2112.94 1604.9 2125.98 1610.18L2222.16 1649.22C2241.44 1657.04 2254.18 1675.96 2254.18 1696.78L2254.18 1806.03C2254.18 1820.1 2240.2 1829.53 2227.16 1824.23L2130.98 1785.18Z" fill="#43BCD8"/>
<path d="M2269.04 1701.46C2269.04 1680.17 2282.35 1660.92 2302.27 1653.42L2403.62 1615.26C2416.58 1610.37 2430.16 1619.78 2430.16 1633.63L2430.16 1741.01C2430.16 1762.3 2416.84 1781.55 2396.92 1789.05L2295.58 1827.18C2282.62 1832.05 2269.04 1822.65 2269.04 1808.8L2269.04 1701.46Z" fill="#2E93AB"/>
<path d="M2285.86 1643.68C2273.48 1648.34 2259.71 1648.15 2247.49 1643.16L2143.36 1600.65C2134.95 1597.22 2135.15 1585.64 2143.68 1582.46L2251.85 1542.08C2264.14 1537.49 2277.78 1537.67 2289.92 1542.59L2394.16 1584.77C2402.59 1588.18 2402.43 1599.76 2393.9 1602.97L2285.86 1643.68Z" fill="#1B7488"/>
<path d="M2136.91 246.576C2117.63 238.749 2104.9 219.829 2104.9 199.013L2104.9 89.7897C2104.9 75.7153 2118.88 66.2937 2131.91 71.5831L2228.09 110.614C2247.38 118.438 2260.11 137.361 2260.11 158.181L2260.11 267.426C2260.11 281.503 2246.13 290.924 2233.1 285.632L2136.91 246.576Z" fill="#43BCD8"/>
<path d="M2274.97 162.854C2274.97 141.572 2288.29 122.323 2308.2 114.823L2409.55 76.6539C2422.51 71.7731 2436.09 81.1766 2436.09 95.0267L2436.09 202.411C2436.09 223.699 2422.77 242.952 2402.85 250.447L2301.51 288.578C2288.55 293.453 2274.97 284.05 2274.97 270.203L2274.97 162.854Z" fill="#2E93AB"/>
<path d="M2291.79 105.074C2279.41 109.736 2265.64 109.553 2253.42 104.563L2149.3 62.0501C2140.88 58.6132 2141.08 47.0403 2149.61 43.8549L2257.78 3.47702C2270.07 -1.10923 2283.71 -0.927434 2295.85 3.9842L2400.09 46.1705C2408.52 49.5819 2408.36 61.1554 2399.84 64.3666L2291.79 105.074Z" fill="#1B7488"/>
<path d="M2310.91 503.009C2291.63 495.182 2278.9 476.262 2278.9 455.446L2278.9 346.223C2278.9 332.148 2292.88 322.727 2305.91 328.016L2402.1 367.047C2421.38 374.871 2434.12 393.794 2434.12 414.614L2434.12 523.86C2434.12 537.936 2420.13 547.357 2407.1 542.065L2310.91 503.009Z" fill="#43BCD8"/>
<path d="M2448.97 419.287C2448.97 398.005 2462.29 378.756 2482.2 371.256L2583.55 333.087C2596.51 328.206 2610.1 337.609 2610.1 351.46L2610.1 458.844C2610.1 480.132 2596.77 499.385 2576.85 506.88L2475.51 545.01C2462.55 549.886 2448.97 540.483 2448.97 526.635L2448.97 419.287Z" fill="#2E93AB"/>
<path d="M2465.79 361.508C2453.41 366.17 2439.65 365.986 2427.42 360.996L2323.3 318.483C2314.88 315.047 2315.08 303.474 2323.61 300.288L2431.79 259.91C2444.07 255.324 2457.72 255.506 2469.85 260.418L2574.1 302.604C2582.52 306.015 2582.36 317.589 2573.84 320.8L2465.79 361.508Z" fill="#1B7488"/>
<path d="M1785.94 246.576C1766.66 238.749 1753.93 219.829 1753.93 199.013L1753.93 89.7899C1753.93 75.7155 1767.91 66.294 1780.94 71.5834L1877.13 110.614C1896.41 118.438 1909.15 137.361 1909.15 158.181L1909.15 267.427C1909.15 281.503 1895.16 290.924 1882.13 285.632L1785.94 246.576Z" fill="#43BCD8"/>
<path d="M1924 162.854C1924 141.572 1937.32 122.323 1957.23 114.823L2058.58 76.6537C2071.54 71.7729 2085.12 81.1763 2085.12 95.0264L2085.12 202.411C2085.12 223.699 2071.8 242.951 2051.88 250.447L1950.54 288.577C1937.58 293.453 1924 284.05 1924 270.202L1924 162.854Z" fill="#2E93AB"/>
<path d="M1940.82 105.074C1928.44 109.736 1914.68 109.553 1902.45 104.563L1798.33 62.0501C1789.91 58.6132 1790.11 47.0403 1798.64 43.8549L1906.81 3.47702C1919.1 -1.10923 1932.75 -0.927434 1944.88 3.9842L2049.12 46.1705C2057.55 49.5819 2057.39 61.1554 2048.87 64.3666L1940.82 105.074Z" fill="#1B7488"/>
<path d="M1960.93 503.009C1941.65 495.182 1928.92 476.262 1928.92 455.446L1928.92 346.223C1928.92 332.148 1942.9 322.727 1955.93 328.016L2052.12 367.047C2071.4 374.871 2084.14 393.794 2084.14 414.614L2084.14 523.86C2084.14 537.936 2070.15 547.357 2057.12 542.065L1960.93 503.009Z" fill="#43BCD8"/>
<path d="M2098.99 419.287C2098.99 398.005 2112.31 378.756 2132.22 371.256L2233.57 333.087C2246.53 328.206 2260.12 337.609 2260.12 351.46L2260.12 458.844C2260.12 480.132 2246.79 499.385 2226.87 506.88L2125.53 545.01C2112.57 549.886 2098.99 540.483 2098.99 526.635L2098.99 419.287Z" fill="#2E93AB"/>
<path d="M2115.81 361.507C2103.43 366.17 2089.67 365.986 2077.44 360.996L1973.32 318.483C1964.9 315.046 1965.1 303.473 1973.63 300.288L2081.81 259.91C2094.09 255.324 2107.74 255.506 2119.87 260.417L2224.11 302.604C2232.54 306.015 2232.38 317.589 2223.86 320.8L2115.81 361.507Z" fill="#1B7488"/>
<path d="M2484.91 759.444C2465.63 751.617 2452.9 732.697 2452.9 711.88L2452.9 602.657C2452.9 588.583 2466.88 579.161 2479.91 584.451L2576.1 623.481C2595.38 631.306 2608.12 650.228 2608.12 671.048L2608.12 780.294C2608.12 794.37 2594.14 803.792 2581.1 798.499L2484.91 759.444Z" fill="#43BCD8"/>
<path d="M2622.97 675.721C2622.97 654.439 2636.29 635.19 2656.2 627.69L2757.55 589.521C2770.51 584.64 2784.1 594.044 2784.1 607.894L2784.1 715.278C2784.1 736.566 2770.77 755.819 2750.85 763.314L2649.51 801.445C2636.55 806.32 2622.97 796.917 2622.97 783.07L2622.97 675.721Z" fill="#2E93AB"/>
<path d="M2639.79 617.942C2627.42 622.604 2613.65 622.42 2601.43 617.43L2497.3 574.918C2488.88 571.481 2489.08 559.908 2497.62 556.722L2605.79 516.344C2618.07 511.758 2631.72 511.94 2643.86 516.852L2748.1 559.038C2756.53 562.449 2756.36 574.023 2747.84 577.234L2639.79 617.942Z" fill="#1B7488"/>
<path d="M2134.93 759.444C2115.65 751.617 2102.92 732.697 2102.92 711.88L2102.92 602.657C2102.92 588.583 2116.9 579.161 2129.93 584.451L2226.12 623.481C2245.4 631.306 2258.14 650.228 2258.14 671.048L2258.14 780.294C2258.14 794.37 2244.15 803.792 2231.12 798.499L2134.93 759.444Z" fill="#43BCD8"/>
<path d="M2272.99 675.721C2272.99 654.439 2286.31 635.19 2306.22 627.69L2407.57 589.521C2420.53 584.64 2434.12 594.044 2434.12 607.894L2434.12 715.279C2434.12 736.566 2420.79 755.819 2400.87 763.315L2299.53 801.445C2286.57 806.321 2272.99 796.917 2272.99 783.07L2272.99 675.721Z" fill="#2E93AB"/>
<path d="M2289.81 617.941C2277.43 622.604 2263.67 622.42 2251.45 617.43L2147.32 574.917C2138.9 571.48 2139.1 559.907 2147.64 556.722L2255.81 516.344C2268.09 511.758 2281.74 511.94 2293.87 516.851L2398.12 559.038C2406.55 562.449 2406.38 574.023 2397.86 577.234L2289.81 617.941Z" fill="#1B7488"/>
<path d="M2659.9 1015.88C2640.62 1008.05 2627.89 989.13 2627.89 968.314L2627.89 859.091C2627.89 845.017 2641.87 835.595 2654.91 840.884L2751.09 879.915C2770.37 887.74 2783.11 906.662 2783.11 927.482L2783.11 1036.73C2783.11 1050.8 2769.13 1060.23 2756.09 1054.93L2659.9 1015.88Z" fill="#43BCD8"/>
<path d="M2797.96 932.155C2797.96 910.873 2811.28 891.624 2831.19 884.124L2932.54 845.955C2945.5 841.074 2959.09 850.478 2959.09 864.328L2959.09 971.712C2959.09 993 2945.76 1012.25 2925.84 1019.75L2824.5 1057.88C2811.54 1062.75 2797.96 1053.35 2797.96 1039.5L2797.96 932.155Z" fill="#2E93AB"/>
<path d="M2814.78 874.376C2802.41 879.038 2788.64 878.854 2776.42 873.864L2672.29 831.351C2663.87 827.914 2664.07 816.342 2672.61 813.156L2780.78 772.778C2793.06 768.192 2806.71 768.374 2818.85 773.285L2923.09 815.472C2931.52 818.883 2931.35 830.457 2922.83 833.668L2814.78 874.376Z" fill="#1B7488"/>
<path d="M2309.92 1015.88C2290.64 1008.05 2277.91 989.13 2277.91 968.314L2277.91 859.091C2277.91 845.017 2291.89 835.595 2304.92 840.884L2401.11 879.915C2420.39 887.74 2433.13 906.662 2433.13 927.482L2433.13 1036.73C2433.13 1050.8 2419.15 1060.23 2406.11 1054.93L2309.92 1015.88Z" fill="#43BCD8"/>
<path d="M2447.98 932.155C2447.98 910.873 2461.3 891.624 2481.21 884.124L2582.56 845.955C2595.52 841.074 2609.11 850.478 2609.11 864.328L2609.11 971.712C2609.11 993 2595.78 1012.25 2575.86 1019.75L2474.52 1057.88C2461.56 1062.75 2447.98 1053.35 2447.98 1039.5L2447.98 932.155Z" fill="#2E93AB"/>
<path d="M2464.8 874.376C2452.43 879.038 2438.66 878.854 2426.44 873.864L2322.31 831.351C2313.89 827.914 2314.09 816.342 2322.63 813.156L2430.8 772.778C2443.08 768.192 2456.73 768.374 2468.87 773.285L2573.11 815.472C2581.54 818.883 2581.37 830.457 2572.85 833.668L2464.8 874.376Z" fill="#1B7488"/>
<path d="M2833.9 1272.31C2814.63 1264.48 2801.89 1245.56 2801.89 1224.75L2801.89 1115.53C2801.89 1101.45 2815.87 1092.03 2828.91 1097.32L2925.09 1136.35C2944.37 1144.17 2957.11 1163.1 2957.11 1183.92L2957.11 1293.16C2957.11 1307.24 2943.13 1316.66 2930.09 1311.37L2833.9 1272.31Z" fill="#43BCD8"/>
<path d="M2971.96 1188.59C2971.96 1167.31 2985.28 1148.06 3005.2 1140.56L3106.54 1102.39C3119.5 1097.51 3133.09 1106.91 3133.09 1120.76L3133.09 1228.15C3133.09 1249.43 3119.76 1268.69 3099.84 1276.18L2998.5 1314.31C2985.55 1319.19 2971.96 1309.79 2971.96 1295.94L2971.96 1188.59Z" fill="#2E93AB"/>
<path d="M2988.78 1130.81C2976.41 1135.47 2962.64 1135.29 2950.42 1130.3L2846.29 1087.79C2837.87 1084.35 2838.08 1072.78 2846.61 1069.59L2954.78 1029.21C2967.07 1024.63 2980.71 1024.81 2992.85 1029.72L3097.09 1071.91C3105.52 1075.32 3105.35 1086.89 3096.83 1090.1L2988.78 1130.81Z" fill="#1B7488"/>
<path d="M2483.92 1272.31C2464.65 1264.48 2451.91 1245.56 2451.91 1224.75L2451.91 1115.53C2451.91 1101.45 2465.89 1092.03 2478.93 1097.32L2575.11 1136.35C2594.39 1144.17 2607.13 1163.1 2607.13 1183.92L2607.13 1293.16C2607.13 1307.24 2593.15 1316.66 2580.11 1311.37L2483.92 1272.31Z" fill="#43BCD8"/>
<path d="M2621.98 1188.59C2621.98 1167.31 2635.3 1148.06 2655.21 1140.56L2756.56 1102.39C2769.52 1097.51 2783.11 1106.91 2783.11 1120.76L2783.11 1228.15C2783.11 1249.43 2769.78 1268.69 2749.86 1276.18L2648.52 1314.31C2635.57 1319.19 2621.98 1309.79 2621.98 1295.94L2621.98 1188.59Z" fill="#2E93AB"/>
<path d="M2638.8 1130.81C2626.43 1135.47 2612.66 1135.29 2600.44 1130.3L2496.31 1087.79C2487.89 1084.35 2488.09 1072.78 2496.63 1069.59L2604.8 1029.21C2617.09 1024.63 2630.73 1024.81 2642.87 1029.72L2747.11 1071.91C2755.54 1075.32 2755.37 1086.89 2746.85 1090.1L2638.8 1130.81Z" fill="#1B7488"/>
<path d="M3007.9 1528.74C2988.63 1520.92 2975.89 1502 2975.89 1481.18L2975.89 1371.96C2975.89 1357.88 2989.87 1348.46 3002.91 1353.75L3099.09 1392.78C3118.37 1400.61 3131.11 1419.53 3131.11 1440.35L3131.11 1549.59C3131.11 1563.67 3117.13 1573.09 3104.09 1567.8L3007.9 1528.74Z" fill="#43BCD8"/>
<path d="M3145.97 1445.02C3145.97 1423.74 3159.28 1404.49 3179.2 1396.99L3280.54 1358.82C3293.5 1353.94 3307.09 1363.34 3307.09 1377.19L3307.09 1484.58C3307.09 1505.87 3293.77 1525.12 3273.84 1532.62L3172.51 1570.75C3159.55 1575.62 3145.97 1566.22 3145.97 1552.37L3145.97 1445.02Z" fill="#2E93AB"/>
<path d="M3162.78 1387.24C3150.41 1391.9 3136.64 1391.72 3124.42 1386.73L3020.29 1344.22C3011.88 1340.78 3012.08 1329.21 3020.61 1326.02L3128.78 1285.65C3141.07 1281.06 3154.71 1281.24 3166.85 1286.15L3271.09 1328.34C3279.52 1331.75 3279.36 1343.32 3270.83 1346.54L3162.78 1387.24Z" fill="#1B7488"/>
<path d="M2657.92 1528.74C2638.65 1520.92 2625.91 1502 2625.91 1481.18L2625.91 1371.96C2625.91 1357.88 2639.89 1348.46 2652.93 1353.75L2749.11 1392.78C2768.39 1400.61 2781.13 1419.53 2781.13 1440.35L2781.13 1549.59C2781.13 1563.67 2767.15 1573.09 2754.11 1567.8L2657.92 1528.74Z" fill="#43BCD8"/>
<path d="M2795.99 1445.02C2795.99 1423.74 2809.3 1404.49 2829.22 1396.99L2930.56 1358.82C2943.52 1353.94 2957.11 1363.34 2957.11 1377.19L2957.11 1484.58C2957.11 1505.87 2943.79 1525.12 2923.86 1532.62L2822.53 1570.75C2809.57 1575.62 2795.99 1566.22 2795.99 1552.37L2795.99 1445.02Z" fill="#2E93AB"/>
<path d="M2812.8 1387.24C2800.43 1391.9 2786.66 1391.72 2774.44 1386.73L2670.31 1344.22C2661.89 1340.78 2662.1 1329.21 2670.63 1326.02L2778.8 1285.65C2791.09 1281.06 2804.73 1281.24 2816.87 1286.15L2921.11 1328.34C2929.54 1331.75 2929.38 1343.32 2920.85 1346.54L2812.8 1387.24Z" fill="#1B7488"/>
<path d="M2838.85 246.576C2819.57 238.749 2806.84 219.829 2806.84 199.013L2806.84 89.7899C2806.84 75.7155 2820.82 66.294 2833.85 71.5834L2930.03 110.614C2949.32 118.438 2962.05 137.361 2962.05 158.181L2962.05 267.427C2962.05 281.503 2948.07 290.924 2935.04 285.632L2838.85 246.576Z" fill="#43BCD8"/>
<path d="M2976.91 162.854C2976.91 141.572 2990.23 122.323 3010.14 114.823L3111.49 76.6537C3124.45 71.7729 3138.03 81.1763 3138.03 95.0264L3138.03 202.411C3138.03 223.699 3124.71 242.951 3104.79 250.447L3003.45 288.577C2990.49 293.453 2976.91 284.05 2976.91 270.202L2976.91 162.854Z" fill="#2E93AB"/>
<path d="M2993.73 105.074C2981.35 109.736 2967.58 109.553 2955.36 104.563L2851.24 62.0501C2842.82 58.6132 2843.02 47.0403 2851.55 43.8549L2959.72 3.47702C2972.01 -1.10923 2985.65 -0.927434 2997.79 3.9842L3102.03 46.1705C3110.46 49.5819 3110.3 61.1554 3101.78 64.3666L2993.73 105.074Z" fill="#1B7488"/>
<path d="M3540.96 246.576C3521.69 238.749 3508.95 219.829 3508.95 199.013L3508.95 89.7899C3508.95 75.7155 3522.93 66.294 3535.97 71.5834L3632.15 110.614C3651.43 118.438 3664.17 137.361 3664.17 158.181L3664.17 267.427C3664.17 281.503 3650.19 290.924 3637.15 285.632L3540.96 246.576Z" fill="#43BCD8"/>
<path d="M3679.02 162.854C3679.02 141.572 3692.34 122.323 3712.26 114.823L3813.6 76.6537C3826.56 71.7729 3840.15 81.1763 3840.15 95.0264L3840.15 202.411C3840.15 223.699 3826.82 242.951 3806.9 250.447L3705.56 288.577C3692.61 293.453 3679.02 284.05 3679.02 270.202L3679.02 162.854Z" fill="#2E93AB"/>
<path d="M3695.84 105.074C3683.47 109.736 3669.7 109.553 3657.48 104.563L3553.35 62.0501C3544.93 58.6132 3545.14 47.0403 3553.67 43.8549L3661.84 3.47702C3674.13 -1.10923 3687.77 -0.927434 3699.91 3.9842L3804.15 46.1705C3812.58 49.5819 3812.42 61.1554 3803.89 64.3666L3695.84 105.074Z" fill="#1B7488"/>
<path d="M3538.03 760.423C3518.75 752.596 3506.02 733.676 3506.02 712.859L3506.02 603.636C3506.02 589.562 3520 580.14 3533.03 585.43L3629.21 624.46C3648.5 632.285 3661.23 651.207 3661.23 672.027L3661.23 781.273C3661.23 795.349 3647.25 804.771 3634.22 799.478L3538.03 760.423Z" fill="#43BCD8"/>
<path d="M3676.09 676.7C3676.09 655.418 3689.41 636.169 3709.32 628.669L3810.67 590.5C3823.63 585.619 3837.21 595.023 3837.21 608.873L3837.21 716.258C3837.21 737.545 3823.89 756.798 3803.97 764.294L3702.63 802.424C3689.67 807.3 3676.09 797.896 3676.09 784.049L3676.09 676.7Z" fill="#2E93AB"/>
<path d="M3692.91 618.921C3680.53 623.583 3666.76 623.4 3654.54 618.409L3550.41 575.897C3542 572.46 3542.2 560.887 3550.73 557.702L3658.9 517.324C3671.19 512.737 3684.83 512.919 3696.97 517.831L3801.21 560.017C3809.64 563.429 3809.48 575.002 3800.95 578.213L3692.91 618.921Z" fill="#1B7488"/>
<path d="M3537.05 1272.31C3517.77 1264.48 3505.04 1245.56 3505.04 1224.75L3505.04 1115.53C3505.04 1101.45 3519.02 1092.03 3532.05 1097.32L3628.24 1136.35C3647.52 1144.17 3660.26 1163.1 3660.26 1183.92L3660.26 1293.16C3660.26 1307.24 3646.27 1316.66 3633.24 1311.37L3537.05 1272.31Z" fill="#43BCD8"/>
<path d="M3675.11 1188.59C3675.11 1167.31 3688.43 1148.06 3708.34 1140.56L3809.69 1102.39C3822.65 1097.51 3836.24 1106.91 3836.24 1120.76L3836.24 1228.15C3836.24 1249.43 3822.91 1268.69 3802.99 1276.18L3701.65 1314.31C3688.69 1319.19 3675.11 1309.79 3675.11 1295.94L3675.11 1188.59Z" fill="#2E93AB"/>
<path d="M3691.93 1130.81C3679.55 1135.47 3665.79 1135.29 3653.56 1130.3L3549.44 1087.79C3541.02 1084.35 3541.22 1072.78 3549.75 1069.59L3657.93 1029.21C3670.21 1024.63 3683.86 1024.81 3695.99 1029.72L3800.23 1071.91C3808.66 1075.32 3808.5 1086.89 3799.98 1090.1L3691.93 1130.81Z" fill="#1B7488"/>
<path d="M3534.11 1785.18C3514.84 1777.35 3502.1 1758.43 3502.1 1737.61L3502.1 1628.39C3502.1 1614.32 3516.08 1604.9 3529.12 1610.18L3625.3 1649.22C3644.58 1657.04 3657.32 1675.96 3657.32 1696.78L3657.32 1806.03C3657.32 1820.1 3643.34 1829.53 3630.3 1824.23L3534.11 1785.18Z" fill="#43BCD8"/>
<path d="M3672.17 1701.46C3672.17 1680.17 3685.49 1660.92 3705.4 1653.42L3806.75 1615.26C3819.71 1610.37 3833.3 1619.78 3833.3 1633.63L3833.3 1741.01C3833.3 1762.3 3819.97 1781.55 3800.05 1789.05L3698.71 1827.18C3685.75 1832.05 3672.17 1822.65 3672.17 1808.8L3672.17 1701.46Z" fill="#2E93AB"/>
<path d="M3688.99 1643.68C3676.62 1648.34 3662.85 1648.15 3650.63 1643.16L3546.5 1600.65C3538.08 1597.22 3538.28 1585.64 3546.82 1582.46L3654.99 1542.08C3667.28 1537.49 3680.92 1537.67 3693.06 1542.59L3797.3 1584.77C3805.73 1588.18 3805.56 1599.76 3797.04 1602.97L3688.99 1643.68Z" fill="#1B7488"/>
<path d="M3012.85 503.009C2993.57 495.182 2980.84 476.262 2980.84 455.446L2980.84 346.223C2980.84 332.148 2994.82 322.727 3007.85 328.016L3104.04 367.047C3123.32 374.871 3136.06 393.794 3136.06 414.614L3136.06 523.86C3136.06 537.936 3122.07 547.357 3109.04 542.065L3012.85 503.009Z" fill="#43BCD8"/>
<path d="M3150.91 419.287C3150.91 398.005 3164.23 378.756 3184.14 371.256L3285.49 333.087C3298.45 328.206 3312.04 337.609 3312.04 351.46L3312.04 458.844C3312.04 480.132 3298.71 499.385 3278.79 506.88L3177.45 545.01C3164.49 549.886 3150.91 540.483 3150.91 526.635L3150.91 419.287Z" fill="#2E93AB"/>
<path d="M3167.73 361.507C3155.35 366.17 3141.59 365.986 3129.36 360.996L3025.24 318.483C3016.82 315.046 3017.02 303.473 3025.55 300.288L3133.73 259.91C3146.01 255.324 3159.66 255.506 3171.79 260.417L3276.03 302.604C3284.46 306.015 3284.3 317.589 3275.78 320.8L3167.73 361.507Z" fill="#1B7488"/>
<path d="M2487.88 246.576C2468.6 238.749 2455.87 219.829 2455.87 199.013L2455.87 89.7899C2455.87 75.7155 2469.85 66.294 2482.88 71.5834L2579.06 110.614C2598.35 118.438 2611.08 137.361 2611.08 158.181L2611.08 267.427C2611.08 281.503 2597.1 290.924 2584.07 285.632L2487.88 246.576Z" fill="#43BCD8"/>
<path d="M2625.94 162.854C2625.94 141.572 2639.26 122.323 2659.17 114.823L2760.52 76.6537C2773.48 71.7729 2787.06 81.1763 2787.06 95.0264L2787.06 202.411C2787.06 223.699 2773.74 242.951 2753.82 250.447L2652.48 288.577C2639.52 293.453 2625.94 284.05 2625.94 270.202L2625.94 162.854Z" fill="#2E93AB"/>
<path d="M2642.76 105.074C2630.38 109.736 2616.61 109.553 2604.39 104.563L2500.27 62.0501C2491.85 58.6132 2492.05 47.0403 2500.58 43.8549L2608.75 3.47702C2621.04 -1.10923 2634.69 -0.927434 2646.82 3.9842L2751.06 46.1705C2759.49 49.5819 2759.33 61.1554 2750.81 64.3666L2642.76 105.074Z" fill="#1B7488"/>
<path d="M2662.87 503.009C2643.59 495.182 2630.86 476.262 2630.86 455.446L2630.86 346.223C2630.86 332.148 2644.84 322.727 2657.87 328.016L2754.05 367.047C2773.34 374.871 2786.07 393.794 2786.07 414.614L2786.07 523.86C2786.07 537.936 2772.09 547.357 2759.06 542.065L2662.87 503.009Z" fill="#43BCD8"/>
<path d="M2800.93 419.287C2800.93 398.005 2814.25 378.756 2834.16 371.256L2935.51 333.087C2948.47 328.206 2962.05 337.609 2962.05 351.46L2962.05 458.844C2962.05 480.132 2948.73 499.385 2928.81 506.88L2827.47 545.01C2814.51 549.886 2800.93 540.483 2800.93 526.635L2800.93 419.287Z" fill="#2E93AB"/>
<path d="M2817.75 361.507C2805.37 366.17 2791.6 365.986 2779.38 360.996L2675.26 318.483C2666.84 315.046 2667.04 303.473 2675.57 300.288L2783.74 259.91C2796.03 255.324 2809.68 255.506 2821.81 260.417L2926.05 302.604C2934.48 306.015 2934.32 317.589 2925.8 320.8L2817.75 361.507Z" fill="#1B7488"/>
<path d="M3189.82 246.576C3170.54 238.749 3157.8 219.829 3157.8 199.013L3157.81 89.7899C3157.81 75.7155 3171.78 66.294 3184.82 71.5834L3281 110.614C3300.28 118.438 3313.02 137.361 3313.02 158.181L3313.02 267.427C3313.02 281.503 3299.04 290.924 3286 285.632L3189.82 246.576Z" fill="#43BCD8"/>
<path d="M3327.88 162.854C3327.88 141.572 3341.19 122.323 3361.11 114.823L3462.46 76.6537C3475.42 71.7729 3489 81.1763 3489 95.0264L3489 202.411C3489 223.699 3475.68 242.951 3455.76 250.447L3354.42 288.577C3341.46 293.453 3327.88 284.05 3327.88 270.202L3327.88 162.854Z" fill="#2E93AB"/>
<path d="M3344.7 105.074C3332.32 109.736 3318.55 109.553 3306.33 104.563L3202.2 62.0501C3193.79 58.6132 3193.99 47.0403 3202.52 43.8549L3310.69 3.47702C3322.98 -1.10923 3336.62 -0.927434 3348.76 3.9842L3453 46.1705C3461.43 49.5819 3461.27 61.1554 3452.74 64.3666L3344.7 105.074Z" fill="#1B7488"/>
<path d="M3189.82 246.576C3170.54 238.749 3157.8 219.829 3157.8 199.013L3157.81 89.7899C3157.81 75.7155 3171.78 66.294 3184.82 71.5834L3281 110.614C3300.28 118.438 3313.02 137.361 3313.02 158.181L3313.02 267.427C3313.02 281.503 3299.04 290.924 3286 285.632L3189.82 246.576Z" fill="#43BCD8"/>
<path d="M3327.88 162.854C3327.88 141.572 3341.19 122.323 3361.11 114.823L3462.46 76.6537C3475.42 71.7729 3489 81.1763 3489 95.0264L3489 202.411C3489 223.699 3475.68 242.951 3455.76 250.447L3354.42 288.577C3341.46 293.453 3327.88 284.05 3327.88 270.202L3327.88 162.854Z" fill="#2E93AB"/>
<path d="M3344.7 105.074C3332.32 109.736 3318.55 109.553 3306.33 104.563L3202.2 62.0501C3193.79 58.6132 3193.99 47.0403 3202.52 43.8549L3310.69 3.47702C3322.98 -1.10923 3336.62 -0.927434 3348.76 3.9842L3453 46.1705C3461.43 49.5819 3461.27 61.1554 3452.74 64.3666L3344.7 105.074Z" fill="#1B7488"/>
<path d="M3364.81 503.01C3345.53 495.183 3332.8 476.263 3332.8 455.446L3332.8 346.223C3332.8 332.149 3346.78 322.727 3359.81 328.017L3455.99 367.047C3475.28 374.872 3488.01 393.794 3488.01 414.614L3488.01 523.86C3488.01 537.936 3474.03 547.358 3461 542.065L3364.81 503.01Z" fill="#43BCD8"/>
<path d="M3519.69 361.508C3507.31 366.17 3493.54 365.987 3481.32 360.997L3377.2 318.484C3368.78 315.047 3368.98 303.474 3377.51 300.289L3485.68 259.911C3497.97 255.325 3511.61 255.506 3523.75 260.418L3627.99 302.604C3636.42 306.016 3636.26 317.589 3627.73 320.8L3519.69 361.508Z" fill="#1B7488"/>
<path d="M3186.85 759.443C3167.57 751.616 3154.84 732.696 3154.84 711.88L3154.84 602.657C3154.84 588.582 3168.82 579.161 3181.85 584.45L3278.04 623.481C3297.32 631.305 3310.06 650.228 3310.06 671.048L3310.06 780.294C3310.06 794.37 3296.08 803.791 3283.04 798.499L3186.85 759.443Z" fill="#43BCD8"/>
<path d="M3324.91 675.721C3324.91 654.439 3338.23 635.19 3358.14 627.69L3459.49 589.521C3472.45 584.64 3486.04 594.044 3486.04 607.894L3486.04 715.279C3486.04 736.566 3472.71 755.819 3452.79 763.315L3351.45 801.445C3338.49 806.321 3324.91 796.917 3324.91 783.07L3324.91 675.721Z" fill="#2E93AB"/>
<path d="M3341.73 617.941C3329.36 622.604 3315.59 622.42 3303.37 617.43L3199.24 574.917C3190.82 571.48 3191.02 559.907 3199.56 556.722L3307.73 516.344C3320.01 511.758 3333.66 511.94 3345.8 516.851L3450.04 559.038C3458.47 562.449 3458.3 574.023 3449.78 577.234L3341.73 617.941Z" fill="#1B7488"/>
<path d="M2836.87 759.444C2817.59 751.617 2804.86 732.697 2804.86 711.88L2804.86 602.657C2804.86 588.583 2818.84 579.161 2831.87 584.451L2928.06 623.481C2947.34 631.306 2960.08 650.228 2960.08 671.048L2960.08 780.294C2960.08 794.37 2946.09 803.792 2933.06 798.499L2836.87 759.444Z" fill="#43BCD8"/>
<path d="M2974.93 675.721C2974.93 654.439 2988.25 635.19 3008.16 627.69L3109.51 589.521C3122.47 584.64 3136.06 594.044 3136.06 607.894L3136.06 715.279C3136.06 736.566 3122.73 755.819 3102.81 763.315L3001.47 801.445C2988.51 806.321 2974.93 796.917 2974.93 783.07L2974.93 675.721Z" fill="#2E93AB"/>
<path d="M2991.75 617.941C2979.37 622.604 2965.61 622.42 2953.38 617.43L2849.26 574.917C2840.84 571.48 2841.04 559.907 2849.57 556.722L2957.75 516.344C2970.03 511.758 2983.68 511.94 2995.81 516.851L3100.05 559.038C3108.48 562.449 3108.32 574.023 3099.8 577.234L2991.75 617.941Z" fill="#1B7488"/>
<path d="M3361.84 1015.88C3342.56 1008.05 3329.83 989.13 3329.83 968.314L3329.83 859.091C3329.83 845.017 3343.81 835.595 3356.84 840.884L3453.03 879.915C3472.31 887.74 3485.05 906.662 3485.05 927.482L3485.05 1036.73C3485.05 1050.8 3471.07 1060.23 3458.03 1054.93L3361.84 1015.88Z" fill="#43BCD8"/>
<path d="M3516.72 874.376C3504.35 879.038 3490.58 878.854 3478.36 873.864L3374.23 831.351C3365.81 827.914 3366.01 816.342 3374.55 813.156L3482.72 772.778C3495 768.192 3508.65 768.374 3520.79 773.285L3625.03 815.472C3633.46 818.883 3633.29 830.457 3624.77 833.668L3516.72 874.376Z" fill="#1B7488"/>
<path d="M3011.86 1015.88C2992.58 1008.05 2979.85 989.13 2979.85 968.314L2979.85 859.091C2979.85 845.017 2993.83 835.595 3006.86 840.884L3103.05 879.915C3122.33 887.74 3135.07 906.662 3135.07 927.482L3135.07 1036.73C3135.07 1050.8 3121.08 1060.23 3108.05 1054.93L3011.86 1015.88Z" fill="#43BCD8"/>
<path d="M3149.92 932.155C3149.92 910.873 3163.24 891.624 3183.15 884.124L3284.5 845.955C3297.46 841.074 3311.05 850.478 3311.05 864.328L3311.05 971.712C3311.05 993 3297.72 1012.25 3277.8 1019.75L3176.46 1057.88C3163.5 1062.75 3149.92 1053.35 3149.92 1039.5L3149.92 932.155Z" fill="#2E93AB"/>
<path d="M3166.74 874.376C3154.36 879.038 3140.6 878.854 3128.37 873.864L3024.25 831.351C3015.83 827.914 3016.03 816.342 3024.56 813.156L3132.74 772.778C3145.02 768.192 3158.67 768.374 3170.8 773.285L3275.05 815.472C3283.47 818.883 3283.31 830.457 3274.79 833.668L3166.74 874.376Z" fill="#1B7488"/>
<path d="M3185.86 1272.31C3166.58 1264.48 3153.85 1245.56 3153.85 1224.75L3153.85 1115.53C3153.85 1101.45 3167.83 1092.03 3180.86 1097.32L3277.05 1136.35C3296.33 1144.17 3309.07 1163.1 3309.07 1183.92L3309.07 1293.16C3309.07 1307.24 3295.09 1316.66 3282.05 1311.37L3185.86 1272.31Z" fill="#43BCD8"/>
<path d="M3323.92 1188.59C3323.92 1167.31 3337.24 1148.06 3357.15 1140.56L3458.5 1102.39C3471.46 1097.51 3485.05 1106.91 3485.05 1120.76L3485.05 1228.15C3485.05 1249.43 3471.72 1268.69 3451.8 1276.18L3350.46 1314.31C3337.5 1319.19 3323.92 1309.79 3323.92 1295.94L3323.92 1188.59Z" fill="#2E93AB"/>
<path d="M3340.74 1130.81C3328.37 1135.47 3314.6 1135.29 3302.38 1130.3L3198.25 1087.79C3189.83 1084.35 3190.03 1072.78 3198.57 1069.59L3306.74 1029.21C3319.02 1024.63 3332.67 1024.81 3344.81 1029.72L3449.05 1071.91C3457.48 1075.32 3457.31 1086.89 3448.79 1090.1L3340.74 1130.81Z" fill="#1B7488"/>
<path d="M3359.86 1528.74C3340.59 1520.92 3327.85 1502 3327.85 1481.18L3327.85 1371.96C3327.85 1357.88 3341.83 1348.46 3354.87 1353.75L3451.05 1392.78C3470.33 1400.61 3483.07 1419.53 3483.07 1440.35L3483.07 1549.59C3483.07 1563.67 3469.09 1573.09 3456.05 1567.8L3359.86 1528.74Z" fill="#43BCD8"/>
<path d="M3514.74 1387.24C3502.37 1391.91 3488.6 1391.72 3476.38 1386.73L3372.25 1344.22C3363.83 1340.78 3364.04 1329.21 3372.57 1326.02L3480.74 1285.65C3493.03 1281.06 3506.67 1281.24 3518.81 1286.15L3623.05 1328.34C3631.48 1331.75 3631.31 1343.32 3622.79 1346.54L3514.74 1387.24Z" fill="#1B7488"/>
<path d="M3182.9 1785.18C3163.62 1777.35 3150.89 1758.43 3150.89 1737.62L3150.89 1628.39C3150.89 1614.32 3164.86 1604.9 3177.9 1610.19L3274.08 1649.22C3293.36 1657.04 3306.1 1675.96 3306.1 1696.78L3306.1 1806.03C3306.1 1820.11 3292.12 1829.53 3279.08 1824.23L3182.9 1785.18Z" fill="#43BCD8"/>
<path d="M3320.96 1701.46C3320.96 1680.17 3334.27 1660.93 3354.19 1653.43L3455.53 1615.26C3468.49 1610.38 3482.08 1619.78 3482.08 1633.63L3482.08 1741.01C3482.08 1762.3 3468.76 1781.55 3448.84 1789.05L3347.5 1827.18C3334.54 1832.06 3320.96 1822.65 3320.96 1808.8L3320.96 1701.46Z" fill="#2E93AB"/>
<path d="M3337.77 1643.68C3325.4 1648.34 3311.63 1648.15 3299.41 1643.16L3195.28 1600.65C3186.87 1597.22 3187.07 1585.64 3195.6 1582.46L3303.77 1542.08C3316.06 1537.49 3329.7 1537.67 3341.84 1542.59L3446.08 1584.77C3454.51 1588.18 3454.35 1599.76 3445.82 1602.97L3337.77 1643.68Z" fill="#1B7488"/>
<path d="M2832.91 1785.18C2813.64 1777.35 2800.9 1758.43 2800.9 1737.61L2800.9 1628.39C2800.9 1614.32 2814.88 1604.9 2827.92 1610.18L2924.1 1649.22C2943.38 1657.04 2956.12 1675.96 2956.12 1696.78L2956.12 1806.03C2956.12 1820.1 2942.14 1829.53 2929.1 1824.23L2832.91 1785.18Z" fill="#43BCD8"/>
<path d="M2970.98 1701.46C2970.98 1680.17 2984.29 1660.92 3004.21 1653.42L3105.55 1615.26C3118.51 1610.37 3132.1 1619.78 3132.1 1633.63L3132.1 1741.01C3132.1 1762.3 3118.78 1781.55 3098.86 1789.05L2997.52 1827.18C2984.56 1832.05 2970.98 1822.65 2970.98 1808.8L2970.98 1701.46Z" fill="#2E93AB"/>
<path d="M2987.79 1643.68C2975.42 1648.34 2961.65 1648.15 2949.43 1643.16L2845.3 1600.65C2836.89 1597.22 2837.09 1585.64 2845.62 1582.46L2953.79 1542.08C2966.08 1537.49 2979.72 1537.67 2991.86 1542.59L3096.1 1584.77C3104.53 1588.18 3104.37 1599.76 3095.84 1602.97L2987.79 1643.68Z" fill="#1B7488"/>
<path d="M733.029 246.576C713.752 238.749 701.018 219.829 701.018 199.013L701.018 89.7902C701.018 75.7158 714.998 66.2942 728.032 71.5836L824.216 110.614C843.498 118.439 856.236 137.361 856.236 158.181L856.236 267.427C856.236 281.503 842.253 290.925 829.218 285.632L733.029 246.576Z" fill="#43BCD8"/>
<path d="M871.09 162.854C871.09 141.572 884.407 122.323 904.321 114.824L1005.67 76.6542C1018.63 71.7733 1032.22 81.1768 1032.22 95.0269L1032.22 202.412C1032.22 223.699 1018.89 242.952 998.969 250.448L897.63 288.578C884.672 293.454 871.09 284.05 871.09 270.203L871.09 162.854Z" fill="#2E93AB"/>
<path d="M887.908 105.074C875.534 109.737 861.767 109.553 849.544 104.563L745.418 62.0504C737 58.6134 737.201 47.0405 745.735 43.8552L853.906 3.47726C866.193 -1.10898 879.838 -0.92719 891.974 3.98445L996.215 46.1708C1004.64 49.5821 1004.48 61.1557 995.958 64.3668L887.908 105.074Z" fill="#1B7488"/>
<path d="M907.031 503.01C887.754 495.183 875.021 476.263 875.021 455.446L875.021 346.223C875.021 332.149 889 322.727 902.035 328.017L998.219 367.047C1017.5 374.872 1030.24 393.794 1030.24 414.614L1030.24 523.86C1030.24 537.936 1016.26 547.358 1003.22 542.065L907.031 503.01Z" fill="#43BCD8"/>
<path d="M1045.09 419.287C1045.09 398.005 1058.41 378.757 1078.32 371.257L1179.67 333.088C1192.63 328.207 1206.22 337.61 1206.22 351.46L1206.22 458.845C1206.22 480.133 1192.89 499.385 1172.97 506.881L1071.63 545.011C1058.67 549.887 1045.09 540.484 1045.09 526.636L1045.09 419.287Z" fill="#2E93AB"/>
<path d="M1061.91 361.508C1049.54 366.17 1035.77 365.986 1023.55 360.996L919.419 318.483C911.001 315.047 911.203 303.474 919.736 300.288L1027.91 259.91C1040.19 255.324 1053.84 255.506 1065.98 260.418L1170.22 302.604C1178.65 306.015 1178.48 317.589 1169.96 320.8L1061.91 361.508Z" fill="#1B7488"/>
<path d="M382.061 246.576C362.784 238.749 350.051 219.829 350.051 199.013L350.051 89.7902C350.051 75.7158 364.03 66.2942 377.065 71.5836L473.248 110.614C492.53 118.439 505.268 137.361 505.268 158.181L505.268 267.427C505.268 281.503 491.286 290.925 478.25 285.632L382.061 246.576Z" fill="#43BCD8"/>
<path d="M520.121 162.854C520.121 141.572 533.439 122.323 553.352 114.823L654.7 76.6539C667.659 71.7731 681.246 81.1766 681.246 95.0267L681.246 202.411C681.246 223.699 667.921 242.952 648 250.447L546.662 288.578C533.703 293.453 520.121 284.05 520.121 270.203L520.121 162.854Z" fill="#2E93AB"/>
<path d="M536.94 105.074C524.565 109.737 510.798 109.553 498.576 104.563L394.449 62.0504C386.031 58.6134 386.233 47.0405 394.766 43.8552L502.938 3.47726C515.224 -1.10898 528.869 -0.92719 541.005 3.98445L645.247 46.1708C653.676 49.5821 653.512 61.1557 644.989 64.3668L536.94 105.074Z" fill="#1B7488"/>
<path d="M557.051 503.01C537.774 495.183 525.041 476.263 525.041 455.446L525.041 346.223C525.041 332.149 539.02 322.727 552.055 328.017L648.239 367.047C667.521 374.872 680.258 393.794 680.258 414.614L680.258 523.86C680.258 537.936 666.276 547.358 653.24 542.065L557.051 503.01Z" fill="#43BCD8"/>
<path d="M695.112 419.287C695.112 398.005 708.43 378.757 728.344 371.257L829.691 333.088C842.651 328.207 856.238 337.61 856.238 351.46L856.238 458.845C856.238 480.133 842.913 499.385 822.991 506.881L721.653 545.011C708.694 549.887 695.112 540.484 695.112 526.636L695.112 419.287Z" fill="#2E93AB"/>
<path d="M711.93 361.508C699.555 366.17 685.788 365.986 673.566 360.996L569.439 318.483C561.021 315.047 561.223 303.474 569.756 300.288L677.928 259.91C690.214 255.324 703.859 255.506 715.996 260.418L820.237 302.604C828.666 306.015 828.502 317.589 819.979 320.8L711.93 361.508Z" fill="#1B7488"/>
<path d="M1081.03 759.444C1061.76 751.617 1049.02 732.697 1049.02 711.88L1049.02 602.657C1049.02 588.583 1063 579.161 1076.04 584.451L1172.22 623.481C1191.5 631.306 1204.24 650.228 1204.24 671.048L1204.24 780.294C1204.24 794.37 1190.26 803.792 1177.22 798.499L1081.03 759.444Z" fill="#43BCD8"/>
<path d="M1219.09 675.721C1219.09 654.439 1232.41 635.19 1252.33 627.69L1353.67 589.521C1366.63 584.64 1380.22 594.044 1380.22 607.894L1380.22 715.279C1380.22 736.566 1366.89 755.819 1346.97 763.315L1245.63 801.445C1232.68 806.321 1219.09 796.917 1219.09 783.07L1219.09 675.721Z" fill="#2E93AB"/>
<path d="M1235.91 617.941C1223.54 622.604 1209.77 622.42 1197.55 617.43L1093.42 574.917C1085 571.48 1085.21 559.907 1093.74 556.722L1201.91 516.344C1214.2 511.758 1227.84 511.94 1239.98 516.851L1344.22 559.038C1352.65 562.449 1352.48 574.023 1343.96 577.234L1235.91 617.941Z" fill="#1B7488"/>
<path d="M731.052 759.443C711.775 751.616 699.042 732.696 699.042 711.88L699.042 602.657C699.042 588.582 713.021 579.161 726.056 584.45L822.24 623.481C841.522 631.305 854.259 650.228 854.259 671.048L854.259 780.294C854.259 794.37 840.277 803.791 827.241 798.499L731.052 759.443Z" fill="#43BCD8"/>
<path d="M869.112 675.721C869.112 654.439 882.43 635.191 902.344 627.691L1003.69 589.521C1016.65 584.641 1030.24 594.044 1030.24 607.894L1030.24 715.279C1030.24 736.566 1016.91 755.819 996.991 763.315L895.653 801.445C882.694 806.321 869.112 796.918 869.112 783.07L869.112 675.721Z" fill="#2E93AB"/>
<path d="M885.932 617.942C873.557 622.604 859.79 622.421 847.568 617.43L743.441 574.918C735.023 571.481 735.225 559.908 743.758 556.723L851.93 516.345C864.216 511.758 877.861 511.94 889.997 516.852L994.239 559.038C1002.67 562.45 1002.5 574.023 993.981 577.234L885.932 617.942Z" fill="#1B7488"/>
<path d="M1256.02 1015.88C1236.75 1008.05 1224.01 989.13 1224.01 968.314L1224.01 859.091C1224.01 845.017 1237.99 835.595 1251.03 840.884L1347.21 879.915C1366.49 887.74 1379.23 906.662 1379.23 927.482L1379.23 1036.73C1379.23 1050.8 1365.25 1060.23 1352.21 1054.93L1256.02 1015.88Z" fill="#43BCD8"/>
<path d="M1394.08 932.155C1394.08 910.873 1407.4 891.624 1427.32 884.124L1528.66 845.955C1541.62 841.074 1555.21 850.478 1555.21 864.328L1555.21 971.712C1555.21 993 1541.88 1012.25 1521.96 1019.75L1420.62 1057.88C1407.67 1062.75 1394.08 1053.35 1394.08 1039.5L1394.08 932.155Z" fill="#2E93AB"/>
<path d="M1410.9 874.376C1398.53 879.038 1384.76 878.854 1372.54 873.864L1268.41 831.351C1259.99 827.914 1260.2 816.342 1268.73 813.156L1376.9 772.778C1389.19 768.192 1402.83 768.374 1414.97 773.285L1519.21 815.472C1527.64 818.883 1527.47 830.457 1518.95 833.668L1410.9 874.376Z" fill="#1B7488"/>
<path d="M906.042 1015.88C886.765 1008.05 874.032 989.131 874.032 968.315L874.032 859.091C874.032 845.017 888.011 835.596 901.046 840.885L997.229 879.916C1016.51 887.74 1029.25 906.663 1029.25 927.482L1029.25 1036.73C1029.25 1050.8 1015.27 1060.23 1002.23 1054.93L906.042 1015.88Z" fill="#43BCD8"/>
<path d="M1044.1 932.155C1044.1 910.873 1057.42 891.625 1077.33 884.125L1178.68 845.955C1191.64 841.075 1205.23 850.478 1205.23 864.328L1205.23 971.713C1205.23 993.001 1191.9 1012.25 1171.98 1019.75L1070.64 1057.88C1057.68 1062.75 1044.1 1053.35 1044.1 1039.5L1044.1 932.155Z" fill="#2E93AB"/>
<path d="M1060.92 874.376C1048.55 879.038 1034.78 878.854 1022.56 873.864L918.431 831.351C910.012 827.914 910.214 816.342 918.747 813.156L1026.92 772.778C1039.21 768.192 1052.85 768.374 1064.99 773.285L1169.23 815.472C1177.66 818.883 1177.49 830.457 1168.97 833.668L1060.92 874.376Z" fill="#1B7488"/>
<path d="M1430.02 1272.31C1410.75 1264.48 1398.01 1245.56 1398.01 1224.75L1398.01 1115.53C1398.01 1101.45 1411.99 1092.03 1425.03 1097.32L1521.21 1136.35C1540.49 1144.17 1553.23 1163.1 1553.23 1183.92L1553.23 1293.16C1553.23 1307.24 1539.25 1316.66 1526.21 1311.37L1430.02 1272.31Z" fill="#43BCD8"/>
<path d="M1568.09 1188.59C1568.09 1167.31 1581.4 1148.06 1601.32 1140.56L1702.67 1102.39C1715.62 1097.51 1729.21 1106.91 1729.21 1120.76L1729.21 1228.15C1729.21 1249.43 1715.89 1268.69 1695.97 1276.18L1594.63 1314.31C1581.67 1319.19 1568.09 1309.79 1568.09 1295.94L1568.09 1188.59Z" fill="#2E93AB"/>
<path d="M1584.9 1130.81C1572.53 1135.47 1558.76 1135.29 1546.54 1130.3L1442.41 1087.79C1434 1084.35 1434.2 1072.78 1442.73 1069.59L1550.9 1029.21C1563.19 1024.63 1576.83 1024.81 1588.97 1029.72L1693.21 1071.91C1701.64 1075.32 1701.48 1086.89 1692.95 1090.1L1584.9 1130.81Z" fill="#1B7488"/>
<path d="M1080.04 1272.31C1060.77 1264.48 1048.03 1245.56 1048.03 1224.75L1048.03 1115.53C1048.03 1101.45 1062.01 1092.03 1075.05 1097.32L1171.23 1136.35C1190.51 1144.17 1203.25 1163.1 1203.25 1183.92L1203.25 1293.16C1203.25 1307.24 1189.27 1316.66 1176.23 1311.37L1080.04 1272.31Z" fill="#43BCD8"/>
<path d="M1218.11 1188.59C1218.11 1167.31 1231.42 1148.06 1251.34 1140.56L1352.68 1102.39C1365.64 1097.51 1379.23 1106.91 1379.23 1120.76L1379.23 1228.15C1379.23 1249.43 1365.91 1268.69 1345.99 1276.18L1244.65 1314.31C1231.69 1319.19 1218.11 1309.79 1218.11 1295.94L1218.11 1188.59Z" fill="#2E93AB"/>
<path d="M1234.92 1130.81C1222.55 1135.47 1208.78 1135.29 1196.56 1130.3L1092.43 1087.79C1084.02 1084.35 1084.22 1072.78 1092.75 1069.59L1200.92 1029.21C1213.21 1024.63 1226.85 1024.81 1238.99 1029.72L1343.23 1071.91C1351.66 1075.32 1351.5 1086.89 1342.97 1090.1L1234.92 1130.81Z" fill="#1B7488"/>
<path d="M1604.03 1528.74C1584.75 1520.92 1572.02 1502 1572.02 1481.18L1572.02 1371.96C1572.02 1357.88 1586 1348.46 1599.03 1353.75L1695.21 1392.78C1714.5 1400.61 1727.23 1419.53 1727.23 1440.35L1727.23 1549.6C1727.23 1563.67 1713.25 1573.09 1700.22 1567.8L1604.03 1528.74Z" fill="#43BCD8"/>
<path d="M1742.09 1445.02C1742.09 1423.74 1755.41 1404.49 1775.32 1396.99L1876.67 1358.82C1889.63 1353.94 1903.21 1363.35 1903.21 1377.2L1903.21 1484.58C1903.21 1505.87 1889.89 1525.12 1869.97 1532.62L1768.63 1570.75C1755.67 1575.62 1742.09 1566.22 1742.09 1552.37L1742.09 1445.02Z" fill="#2E93AB"/>
<path d="M1758.91 1387.24C1746.53 1391.91 1732.76 1391.72 1720.54 1386.73L1616.42 1344.22C1608 1340.78 1608.2 1329.21 1616.73 1326.02L1724.9 1285.65C1737.19 1281.06 1750.84 1281.24 1762.97 1286.15L1867.21 1328.34C1875.64 1331.75 1875.48 1343.32 1866.96 1346.54L1758.91 1387.24Z" fill="#1B7488"/>
<path d="M1254.05 1528.74C1234.77 1520.92 1222.04 1502 1222.04 1481.18L1222.04 1371.96C1222.04 1357.88 1236.02 1348.46 1249.05 1353.75L1345.23 1392.78C1364.52 1400.61 1377.25 1419.53 1377.25 1440.35L1377.25 1549.59C1377.25 1563.67 1363.27 1573.09 1350.24 1567.8L1254.05 1528.74Z" fill="#43BCD8"/>
<path d="M1392.11 1445.02C1392.11 1423.74 1405.43 1404.49 1425.34 1396.99L1526.69 1358.82C1539.65 1353.94 1553.23 1363.34 1553.23 1377.19L1553.23 1484.58C1553.23 1505.87 1539.91 1525.12 1519.99 1532.62L1418.65 1570.75C1405.69 1575.62 1392.11 1566.22 1392.11 1552.37L1392.11 1445.02Z" fill="#2E93AB"/>
<path d="M1408.93 1387.24C1396.55 1391.9 1382.78 1391.72 1370.56 1386.73L1266.44 1344.22C1258.02 1340.78 1258.22 1329.21 1266.75 1326.02L1374.92 1285.65C1387.21 1281.06 1400.86 1281.24 1412.99 1286.15L1517.23 1328.34C1525.66 1331.75 1525.5 1343.32 1516.98 1346.54L1408.93 1387.24Z" fill="#1B7488"/>
<path d="M1779.02 1785.18C1759.74 1777.35 1747.01 1758.43 1747.01 1737.61L1747.01 1628.39C1747.01 1614.32 1760.99 1604.9 1774.02 1610.18L1870.2 1649.22C1889.49 1657.04 1902.22 1675.96 1902.22 1696.78L1902.22 1806.03C1902.22 1820.1 1888.24 1829.53 1875.21 1824.23L1779.02 1785.18Z" fill="#43BCD8"/>
<path d="M1917.08 1701.46C1917.08 1680.17 1930.4 1660.92 1950.31 1653.42L2051.66 1615.26C2064.62 1610.37 2078.2 1619.78 2078.2 1633.63L2078.2 1741.01C2078.2 1762.3 2064.88 1781.55 2044.96 1789.05L1943.62 1827.18C1930.66 1832.05 1917.08 1822.65 1917.08 1808.8L1917.08 1701.46Z" fill="#2E93AB"/>
<path d="M1933.9 1643.68C1921.52 1648.34 1907.75 1648.15 1895.53 1643.16L1791.41 1600.65C1782.99 1597.22 1783.19 1585.64 1791.72 1582.46L1899.89 1542.08C1912.18 1537.49 1925.83 1537.67 1937.96 1542.59L2042.2 1584.77C2050.63 1588.18 2050.47 1599.76 2041.95 1602.97L1933.9 1643.68Z" fill="#1B7488"/>
<path d="M1429.04 1785.18C1409.76 1777.35 1397.03 1758.43 1397.03 1737.61L1397.03 1628.39C1397.03 1614.32 1411.01 1604.9 1424.04 1610.18L1520.22 1649.22C1539.51 1657.04 1552.24 1675.96 1552.24 1696.78L1552.24 1806.03C1552.24 1820.1 1538.26 1829.53 1525.23 1824.23L1429.04 1785.18Z" fill="#43BCD8"/>
<path d="M1567.1 1701.46C1567.1 1680.17 1580.42 1660.92 1600.33 1653.42L1701.68 1615.26C1714.64 1610.37 1728.22 1619.78 1728.22 1633.63L1728.22 1741.01C1728.22 1762.3 1714.9 1781.55 1694.98 1789.05L1593.64 1827.18C1580.68 1832.05 1567.1 1822.65 1567.1 1808.8L1567.1 1701.46Z" fill="#2E93AB"/>
<path d="M1583.92 1643.68C1571.54 1648.34 1557.77 1648.15 1545.55 1643.16L1441.43 1600.65C1433.01 1597.22 1433.21 1585.64 1441.74 1582.46L1549.91 1542.08C1562.2 1537.49 1575.84 1537.67 1587.98 1542.59L1692.22 1584.77C1700.65 1588.18 1700.49 1599.76 1691.96 1602.97L1583.92 1643.68Z" fill="#1B7488"/>
<path d="M32.0789 246.576C12.8018 238.749 0.0686303 219.829 0.0686489 199.013L0.0687463 89.7902C0.0687589 75.7158 14.048 66.2942 27.0827 71.5836L123.266 110.614C142.548 118.439 155.286 137.361 155.286 158.181L155.286 267.427C155.286 281.503 141.304 290.925 128.268 285.632L32.0789 246.576Z" fill="#43BCD8"/>
<path d="M170.139 162.854C170.139 141.572 183.457 122.323 203.371 114.823L304.718 76.6539C317.678 71.7731 331.265 81.1766 331.265 95.0267L331.265 202.411C331.265 223.699 317.94 242.952 298.019 250.447L196.68 288.578C183.722 293.453 170.139 284.05 170.139 270.203L170.139 162.854Z" fill="#2E93AB"/>
<path d="M186.958 105.074C174.583 109.737 160.816 109.553 148.594 104.563L44.4671 62.0504C36.049 58.6134 36.2506 47.0405 44.7841 43.8552L152.956 3.47726C165.242 -1.10898 178.887 -0.92719 191.023 3.98445L295.265 46.1708C303.694 49.5821 303.53 61.1557 295.007 64.3668L186.958 105.074Z" fill="#1B7488"/>
<path d="M206.081 503.009C186.804 495.182 174.071 476.262 174.071 455.446L174.071 346.223C174.071 332.148 188.05 322.727 201.085 328.016L297.269 367.047C316.551 374.871 329.289 393.794 329.289 414.614L329.289 523.86C329.289 537.936 315.306 547.357 302.271 542.065L206.081 503.009Z" fill="#43BCD8"/>
<path d="M344.142 419.287C344.142 398.005 357.46 378.756 377.373 371.256L478.721 333.087C491.68 328.206 505.267 337.609 505.267 351.46L505.267 458.844C505.267 480.132 491.942 499.385 472.021 506.88L370.683 545.01C357.724 549.886 344.142 540.483 344.142 526.635L344.142 419.287Z" fill="#2E93AB"/>
<path d="M360.961 361.507C348.587 366.17 334.819 365.986 322.597 360.996L218.471 318.483C210.052 315.046 210.254 303.473 218.787 300.288L326.959 259.91C339.245 255.324 352.89 255.506 365.027 260.417L469.268 302.604C477.697 306.015 477.534 317.589 469.01 320.8L360.961 361.507Z" fill="#1B7488"/>
<path d="M380.083 759.443C360.806 751.616 348.073 732.696 348.073 711.879L348.073 602.656C348.073 588.582 362.052 579.16 375.087 584.45L471.27 623.48C490.552 631.305 503.29 650.227 503.29 671.047L503.29 780.293C503.29 794.369 489.308 803.791 476.272 798.498L380.083 759.443Z" fill="#43BCD8"/>
<path d="M518.144 675.721C518.144 654.439 531.462 635.19 551.376 627.69L652.723 589.521C665.683 584.64 679.27 594.044 679.27 607.894L679.27 715.278C679.27 736.566 665.945 755.819 646.024 763.314L544.685 801.445C531.726 806.32 518.144 796.917 518.144 783.07L518.144 675.721Z" fill="#2E93AB"/>
<path d="M534.962 617.941C522.588 622.604 508.82 622.42 496.598 617.43L392.472 574.917C384.053 571.48 384.255 559.907 392.788 556.722L500.96 516.344C513.246 511.758 526.891 511.94 539.028 516.851L643.269 559.038C651.698 562.449 651.535 574.023 643.011 577.234L534.962 617.941Z" fill="#1B7488"/>
<path d="M30.1013 759.443C10.8243 751.616 -1.90891 732.696 -1.90889 711.88L-1.90879 602.657C-1.90878 588.582 12.0705 579.161 25.1052 584.45L121.289 623.481C140.571 631.305 153.309 650.228 153.309 671.048L153.309 780.294C153.309 794.37 139.326 803.791 126.291 798.499L30.1013 759.443Z" fill="#43BCD8"/>
<path d="M168.162 675.721C168.162 654.439 181.48 635.19 201.394 627.69L302.741 589.521C315.701 584.64 329.288 594.044 329.288 607.894L329.288 715.279C329.288 736.566 315.963 755.819 296.042 763.315L194.703 801.445C181.745 806.321 168.162 796.917 168.162 783.07L168.162 675.721Z" fill="#2E93AB"/>
<path d="M184.981 617.941C172.607 622.604 158.839 622.42 146.617 617.43L42.4906 574.917C34.0724 571.48 34.274 559.907 42.8075 556.722L150.979 516.344C163.265 511.758 176.91 511.94 189.047 516.851L293.288 559.038C301.717 562.449 301.554 574.023 293.03 577.234L184.981 617.941Z" fill="#1B7488"/>
<path d="M555.073 1015.88C535.795 1008.05 523.062 989.13 523.062 968.314L523.062 859.091C523.062 845.017 537.042 835.595 550.076 840.884L646.26 879.915C665.542 887.74 678.28 906.662 678.28 927.482L678.28 1036.73C678.28 1050.8 664.297 1060.23 651.262 1054.93L555.073 1015.88Z" fill="#43BCD8"/>
<path d="M693.133 932.155C693.133 910.873 706.451 891.625 726.365 884.125L827.712 845.955C840.672 841.075 854.259 850.478 854.259 864.328L854.259 971.713C854.259 993.001 840.934 1012.25 821.012 1019.75L719.674 1057.88C706.715 1062.75 693.133 1053.35 693.133 1039.5L693.133 932.155Z" fill="#2E93AB"/>
<path d="M709.952 874.376C697.577 879.038 683.81 878.855 671.588 873.865L567.461 831.352C559.043 827.915 559.245 816.342 567.778 813.157L675.95 772.779C688.236 768.193 701.881 768.374 714.018 773.286L818.259 815.472C826.688 818.884 826.524 830.457 818.001 833.668L709.952 874.376Z" fill="#1B7488"/>
<path d="M205.093 1015.88C185.815 1008.05 173.082 989.13 173.082 968.314L173.082 859.09C173.082 845.016 187.062 835.595 200.096 840.884L296.28 879.915C315.562 887.739 328.3 906.662 328.3 927.482L328.3 1036.73C328.3 1050.8 314.317 1060.23 301.282 1054.93L205.093 1015.88Z" fill="#43BCD8"/>
<path d="M343.154 932.155C343.154 910.873 356.471 891.624 376.385 884.124L477.732 845.955C490.692 841.074 504.279 850.478 504.279 864.328L504.279 971.712C504.279 993 490.954 1012.25 471.033 1019.75L369.694 1057.88C356.736 1062.75 343.154 1053.35 343.154 1039.5L343.154 932.155Z" fill="#2E93AB"/>
<path d="M359.972 874.376C347.597 879.038 333.83 878.854 321.608 873.864L217.481 831.351C209.063 827.914 209.265 816.342 217.798 813.156L325.97 772.778C338.256 768.192 351.901 768.374 364.038 773.285L468.279 815.472C476.708 818.883 476.544 830.457 468.021 833.668L359.972 874.376Z" fill="#1B7488"/>
<path d="M205.093 1015.88C185.815 1008.05 173.082 989.13 173.082 968.314L173.082 859.09C173.082 845.016 187.062 835.595 200.096 840.884L296.28 879.915C315.562 887.739 328.3 906.662 328.3 927.482L328.3 1036.73C328.3 1050.8 314.317 1060.23 301.282 1054.93L205.093 1015.88Z" fill="#43BCD8"/>
<path d="M343.154 932.155C343.154 910.873 356.471 891.624 376.385 884.124L477.732 845.955C490.692 841.074 504.279 850.478 504.279 864.328L504.279 971.712C504.279 993 490.954 1012.25 471.033 1019.75L369.694 1057.88C356.736 1062.75 343.154 1053.35 343.154 1039.5L343.154 932.155Z" fill="#2E93AB"/>
<path d="M359.972 874.376C347.597 879.038 333.83 878.854 321.608 873.864L217.481 831.351C209.063 827.914 209.265 816.342 217.798 813.156L325.97 772.778C338.256 768.192 351.901 768.374 364.038 773.285L468.279 815.472C476.708 818.883 476.544 830.457 468.021 833.668L359.972 874.376Z" fill="#1B7488"/>
<path d="M28.1248 1272.31C8.84772 1264.48 -3.88547 1245.56 -3.88545 1224.75L-3.88536 1115.52C-3.88534 1101.45 10.0939 1092.03 23.1286 1097.32L119.312 1136.35C138.594 1144.17 151.332 1163.1 151.332 1183.92L151.332 1293.16C151.332 1307.24 137.35 1316.66 124.314 1311.37L28.1248 1272.31Z" fill="#43BCD8"/>
<path d="M166.185 1188.59C166.185 1167.31 179.503 1148.06 199.417 1140.56L300.764 1102.39C313.724 1097.51 327.311 1106.91 327.311 1120.76L327.311 1228.15C327.311 1249.43 313.986 1268.69 294.065 1276.18L192.726 1314.31C179.767 1319.19 166.185 1309.79 166.185 1295.94L166.185 1188.59Z" fill="#2E93AB"/>
<path d="M183.004 1130.81C170.629 1135.47 156.862 1135.29 144.64 1130.3L40.513 1087.79C32.0949 1084.35 32.2965 1072.78 40.83 1069.59L149.002 1029.21C161.288 1024.63 174.933 1024.81 187.069 1029.72L291.31 1071.91C299.74 1075.32 299.576 1086.89 291.053 1090.1L183.004 1130.81Z" fill="#1B7488"/>
<path d="M729.074 1272.31C709.797 1264.48 697.064 1245.56 697.064 1224.75L697.064 1115.53C697.064 1101.45 711.044 1092.03 724.078 1097.32L820.262 1136.35C839.544 1144.17 852.282 1163.1 852.282 1183.92L852.282 1293.16C852.282 1307.24 838.299 1316.66 825.264 1311.37L729.074 1272.31Z" fill="#43BCD8"/>
<path d="M867.135 1188.59C867.135 1167.31 880.453 1148.06 900.367 1140.56L1001.71 1102.39C1014.67 1097.51 1028.26 1106.91 1028.26 1120.76L1028.26 1228.15C1028.26 1249.43 1014.94 1268.69 995.015 1276.18L893.676 1314.31C880.718 1319.19 867.135 1309.79 867.135 1295.94L867.135 1188.59Z" fill="#2E93AB"/>
<path d="M883.954 1130.81C871.58 1135.47 857.812 1135.29 845.59 1130.3L741.464 1087.79C733.046 1084.35 733.247 1072.78 741.781 1069.59L849.952 1029.21C862.239 1024.63 875.883 1024.81 888.02 1029.72L992.261 1071.91C1000.69 1075.32 1000.53 1086.89 992.004 1090.1L883.954 1130.81Z" fill="#1B7488"/>
<path d="M379.094 1272.31C359.817 1264.48 347.084 1245.56 347.084 1224.75L347.084 1115.52C347.084 1101.45 361.064 1092.03 374.098 1097.32L470.282 1136.35C489.564 1144.17 502.302 1163.1 502.302 1183.92L502.302 1293.16C502.302 1307.24 488.319 1316.66 475.284 1311.37L379.094 1272.31Z" fill="#43BCD8"/>
<path d="M517.155 1188.59C517.155 1167.31 530.473 1148.06 550.387 1140.56L651.734 1102.39C664.694 1097.51 678.281 1106.91 678.281 1120.76L678.281 1228.15C678.281 1249.43 664.956 1268.69 645.035 1276.18L543.696 1314.31C530.738 1319.19 517.155 1309.79 517.155 1295.94L517.155 1188.59Z" fill="#2E93AB"/>
<path d="M533.974 1130.81C521.6 1135.47 507.832 1135.29 495.61 1130.3L391.484 1087.79C383.066 1084.35 383.267 1072.78 391.801 1069.59L499.972 1029.21C512.259 1024.63 525.903 1024.81 538.04 1029.72L642.281 1071.91C650.711 1075.32 650.547 1086.89 642.024 1090.1L533.974 1130.81Z" fill="#1B7488"/>
<path d="M903.077 1528.74C883.8 1520.92 871.067 1502 871.067 1481.18L871.067 1371.96C871.067 1357.88 885.046 1348.46 898.081 1353.75L994.264 1392.78C1013.55 1400.61 1026.28 1419.53 1026.28 1440.35L1026.28 1549.6C1026.28 1563.67 1012.3 1573.09 999.266 1567.8L903.077 1528.74Z" fill="#43BCD8"/>
<path d="M1041.14 1445.02C1041.14 1423.74 1054.46 1404.49 1074.37 1396.99L1175.72 1358.82C1188.68 1353.94 1202.26 1363.35 1202.26 1377.2L1202.26 1484.58C1202.26 1505.87 1188.94 1525.12 1169.02 1532.62L1067.68 1570.75C1054.72 1575.62 1041.14 1566.22 1041.14 1552.37L1041.14 1445.02Z" fill="#2E93AB"/>
<path d="M1057.96 1387.24C1045.58 1391.91 1031.81 1391.72 1019.59 1386.73L915.466 1344.22C907.048 1340.78 907.249 1329.21 915.783 1326.02L1023.95 1285.65C1036.24 1281.06 1049.89 1281.24 1062.02 1286.15L1166.26 1328.34C1174.69 1331.75 1174.53 1343.32 1166.01 1346.54L1057.96 1387.24Z" fill="#1B7488"/>
<path d="M553.095 1528.74C533.818 1520.92 521.085 1502 521.085 1481.18L521.085 1371.96C521.085 1357.88 535.065 1348.46 548.099 1353.75L644.283 1392.78C663.565 1400.61 676.303 1419.53 676.303 1440.35L676.303 1549.6C676.303 1563.67 662.32 1573.09 649.285 1567.8L553.095 1528.74Z" fill="#43BCD8"/>
<path d="M691.156 1445.02C691.156 1423.74 704.474 1404.49 724.387 1396.99L825.735 1358.82C838.695 1353.94 852.282 1363.35 852.282 1377.2L852.282 1484.58C852.282 1505.87 838.957 1525.12 819.035 1532.62L717.697 1570.75C704.738 1575.62 691.156 1566.22 691.156 1552.37L691.156 1445.02Z" fill="#2E93AB"/>
<path d="M707.974 1387.24C695.6 1391.91 681.832 1391.72 669.61 1386.73L565.484 1344.22C557.066 1340.78 557.267 1329.21 565.801 1326.02L673.972 1285.65C686.259 1281.06 699.903 1281.24 712.04 1286.15L816.281 1328.34C824.711 1331.75 824.547 1343.32 816.024 1346.54L707.974 1387.24Z" fill="#1B7488"/>
<path d="M1078.07 1785.18C1058.79 1777.35 1046.06 1758.43 1046.06 1737.61L1046.06 1628.39C1046.06 1614.32 1060.04 1604.9 1073.07 1610.18L1169.25 1649.22C1188.54 1657.04 1201.27 1675.96 1201.27 1696.78L1201.27 1806.03C1201.27 1820.1 1187.29 1829.53 1174.26 1824.23L1078.07 1785.18Z" fill="#43BCD8"/>
<path d="M1216.13 1701.46C1216.13 1680.17 1229.45 1660.92 1249.36 1653.42L1350.71 1615.26C1363.67 1610.37 1377.25 1619.78 1377.25 1633.63L1377.25 1741.01C1377.25 1762.3 1363.93 1781.55 1344.01 1789.05L1242.67 1827.18C1229.71 1832.05 1216.13 1822.65 1216.13 1808.8L1216.13 1701.46Z" fill="#2E93AB"/>
<path d="M1232.95 1643.68C1220.57 1648.34 1206.8 1648.15 1194.58 1643.16L1090.46 1600.65C1082.04 1597.22 1082.24 1585.64 1090.77 1582.46L1198.94 1542.08C1211.23 1537.49 1224.88 1537.67 1237.01 1542.59L1341.25 1584.77C1349.68 1588.18 1349.52 1599.76 1341 1602.97L1232.95 1643.68Z" fill="#1B7488"/>
<path d="M728.086 1785.18C708.809 1777.35 696.076 1758.43 696.076 1737.61L696.076 1628.39C696.076 1614.32 710.055 1604.9 723.09 1610.19L819.274 1649.22C838.556 1657.04 851.293 1675.96 851.293 1696.78L851.293 1806.03C851.293 1820.1 837.311 1829.53 824.276 1824.23L728.086 1785.18Z" fill="#43BCD8"/>
<path d="M866.147 1701.46C866.147 1680.17 879.465 1660.92 899.379 1653.43L1000.73 1615.26C1013.69 1610.37 1027.27 1619.78 1027.27 1633.63L1027.27 1741.01C1027.27 1762.3 1013.95 1781.55 994.027 1789.05L892.688 1827.18C879.729 1832.06 866.147 1822.65 866.147 1808.8L866.147 1701.46Z" fill="#2E93AB"/>
<path d="M882.966 1643.68C870.591 1648.34 856.824 1648.16 844.601 1643.17L740.475 1600.65C732.057 1597.22 732.258 1585.64 740.792 1582.46L848.963 1542.08C861.25 1537.49 874.895 1537.68 887.031 1542.59L991.272 1584.77C999.702 1588.18 999.538 1599.76 991.015 1602.97L882.966 1643.68Z" fill="#1B7488"/>
<path d="M202.127 1528.74C182.85 1520.92 170.116 1502 170.117 1481.18L170.117 1371.96C170.117 1357.88 184.096 1348.46 197.131 1353.75L293.314 1392.78C312.596 1400.61 325.334 1419.53 325.334 1440.35L325.334 1549.59C325.334 1563.67 311.351 1573.09 298.316 1567.8L202.127 1528.74Z" fill="#43BCD8"/>
<path d="M340.187 1445.02C340.187 1423.74 353.505 1404.49 373.419 1396.99L474.766 1358.82C487.726 1353.94 501.313 1363.35 501.313 1377.2L501.313 1484.58C501.313 1505.87 487.988 1525.12 468.067 1532.62L366.728 1570.75C353.769 1575.62 340.187 1566.22 340.187 1552.37L340.187 1445.02Z" fill="#2E93AB"/>
<path d="M357.006 1387.24C344.631 1391.9 330.864 1391.72 318.642 1386.73L214.515 1344.22C206.097 1340.78 206.299 1329.21 214.832 1326.02L323.004 1285.65C335.29 1281.06 348.935 1281.24 361.072 1286.15L465.313 1328.34C473.742 1331.75 473.578 1343.32 465.055 1346.54L357.006 1387.24Z" fill="#1B7488"/>
<path d="M377.117 1785.18C357.84 1777.35 345.107 1758.43 345.107 1737.61L345.107 1628.39C345.107 1614.32 359.087 1604.89 372.121 1610.18L468.305 1649.21C487.587 1657.04 500.325 1675.96 500.325 1696.78L500.325 1806.03C500.325 1820.1 486.342 1829.53 473.307 1824.23L377.117 1785.18Z" fill="#43BCD8"/>
<path d="M515.177 1701.46C515.177 1680.17 528.495 1660.92 548.409 1653.42L649.756 1615.26C662.716 1610.37 676.303 1619.78 676.303 1633.63L676.303 1741.01C676.303 1762.3 662.978 1781.55 643.057 1789.05L541.718 1827.18C528.76 1832.05 515.177 1822.65 515.177 1808.8L515.177 1701.46Z" fill="#2E93AB"/>
<path d="M531.996 1643.68C519.621 1648.34 505.854 1648.15 493.632 1643.16L389.505 1600.65C381.087 1597.21 381.289 1585.64 389.822 1582.46L497.994 1542.08C510.28 1537.49 523.925 1537.67 536.061 1542.59L640.303 1584.77C648.732 1588.18 648.568 1599.76 640.045 1602.97L531.996 1643.68Z" fill="#1B7488"/>
<path d="M27.1355 1785.18C7.85847 1777.35 -4.87473 1758.43 -4.87471 1737.61L-4.87461 1628.39C-4.8746 1614.32 9.10467 1604.89 22.1394 1610.18L118.323 1649.21C137.605 1657.04 150.343 1675.96 150.343 1696.78L150.343 1806.03C150.343 1820.1 136.36 1829.53 123.325 1824.23L27.1355 1785.18Z" fill="#43BCD8"/>
<path d="M165.197 1701.46C165.197 1680.17 178.515 1660.92 198.428 1653.42L299.776 1615.26C312.736 1610.37 326.323 1619.78 326.323 1633.63L326.323 1741.01C326.323 1762.3 312.998 1781.55 293.076 1789.05L191.738 1827.18C178.779 1832.05 165.197 1822.65 165.197 1808.8L165.197 1701.46Z" fill="#2E93AB"/>
<path d="M182.015 1643.68C169.64 1648.34 155.873 1648.15 143.651 1643.16L39.5243 1600.65C31.1061 1597.21 31.3077 1585.64 39.8412 1582.46L148.013 1542.08C160.299 1537.49 173.944 1537.67 186.08 1542.59L290.322 1584.77C298.751 1588.18 298.587 1599.76 290.064 1602.97L182.015 1643.68Z" fill="#1B7488"/>
<path d="M2655.95 2041.61C2636.67 2033.78 2623.94 2014.86 2623.94 1994.05L2623.94 1884.82C2623.94 1870.75 2637.92 1861.33 2650.95 1866.62L2747.13 1905.65C2766.42 1913.47 2779.15 1932.4 2779.15 1953.22L2779.15 2062.46C2779.15 2076.54 2765.17 2085.96 2752.14 2080.67L2655.95 2041.61Z" fill="#43BCD8"/>
<path d="M2794.01 1957.89C2794.01 1936.61 2807.33 1917.36 2827.24 1909.86L2928.59 1871.69C2941.55 1866.81 2955.13 1876.21 2955.13 1890.06L2955.13 1997.45C2955.13 2018.73 2941.81 2037.99 2921.89 2045.48L2820.55 2083.61C2807.59 2088.49 2794.01 2079.08 2794.01 2065.24L2794.01 1957.89Z" fill="#2E93AB"/>
<path d="M2810.83 1900.11C2798.45 1904.77 2784.68 1904.59 2772.46 1899.6L2668.34 1857.09C2659.92 1853.65 2660.12 1842.08 2668.65 1838.89L2776.82 1798.51C2789.11 1793.93 2802.76 1794.11 2814.89 1799.02L2919.13 1841.21C2927.56 1844.62 2927.4 1856.19 2918.88 1859.4L2810.83 1900.11Z" fill="#1B7488"/>
<path d="M2305.97 2041.61C2286.69 2033.78 2273.96 2014.86 2273.96 1994.05L2273.96 1884.82C2273.96 1870.75 2287.93 1861.33 2300.97 1866.62L2397.15 1905.65C2416.44 1913.47 2429.17 1932.4 2429.17 1953.22L2429.17 2062.46C2429.17 2076.54 2415.19 2085.96 2402.16 2080.67L2305.97 2041.61Z" fill="#43BCD8"/>
<path d="M2444.03 1957.89C2444.03 1936.61 2457.34 1917.36 2477.26 1909.86L2578.61 1871.69C2591.57 1866.81 2605.15 1876.21 2605.15 1890.06L2605.15 1997.45C2605.15 2018.73 2591.83 2037.99 2571.91 2045.48L2470.57 2083.61C2457.61 2088.49 2444.03 2079.08 2444.03 2065.24L2444.03 1957.89Z" fill="#2E93AB"/>
<path d="M2460.85 1900.11C2448.47 1904.77 2434.7 1904.59 2422.48 1899.6L2318.35 1857.09C2309.94 1853.65 2310.14 1842.08 2318.67 1838.89L2426.84 1798.51C2439.13 1793.93 2452.77 1794.11 2464.91 1799.02L2569.15 1841.21C2577.58 1844.62 2577.42 1856.19 2568.89 1859.4L2460.85 1900.11Z" fill="#1B7488"/>
<path d="M3357.89 2041.61C3338.61 2033.78 3325.88 2014.86 3325.88 1994.05L3325.88 1884.82C3325.88 1870.75 3339.85 1861.33 3352.89 1866.62L3449.07 1905.65C3468.36 1913.47 3481.09 1932.4 3481.09 1953.22L3481.09 2062.46C3481.09 2076.54 3467.11 2085.96 3454.07 2080.67L3357.89 2041.61Z" fill="#43BCD8"/>
<path d="M3512.76 1900.11C3500.39 1904.77 3486.62 1904.59 3474.4 1899.6L3370.27 1857.09C3361.86 1853.65 3362.06 1842.08 3370.59 1838.89L3478.76 1798.51C3491.05 1793.93 3504.69 1794.11 3516.83 1799.02L3621.07 1841.21C3629.5 1844.62 3629.34 1856.19 3620.81 1859.4L3512.76 1900.11Z" fill="#1B7488"/>
<path d="M3007.9 2041.61C2988.63 2033.78 2975.89 2014.86 2975.89 1994.05L2975.89 1884.82C2975.89 1870.75 2989.87 1861.33 3002.91 1866.62L3099.09 1905.65C3118.37 1913.47 3131.11 1932.4 3131.11 1953.22L3131.11 2062.46C3131.11 2076.54 3117.13 2085.96 3104.09 2080.67L3007.9 2041.61Z" fill="#43BCD8"/>
<path d="M3145.97 1957.89C3145.97 1936.61 3159.28 1917.36 3179.2 1909.86L3280.54 1871.69C3293.5 1866.81 3307.09 1876.21 3307.09 1890.06L3307.09 1997.45C3307.09 2018.73 3293.77 2037.99 3273.84 2045.48L3172.51 2083.61C3159.55 2088.49 3145.97 2079.08 3145.97 2065.24L3145.97 1957.89Z" fill="#2E93AB"/>
<path d="M3162.78 1900.11C3150.41 1904.77 3136.64 1904.59 3124.42 1899.6L3020.29 1857.09C3011.88 1853.65 3012.08 1842.08 3020.61 1838.89L3128.78 1798.51C3141.07 1793.93 3154.71 1794.11 3166.85 1799.02L3271.09 1841.21C3279.52 1844.62 3279.36 1856.19 3270.83 1859.4L3162.78 1900.11Z" fill="#1B7488"/>
<path d="M1954.01 2041.61C1934.73 2033.78 1922 2014.86 1922 1994.05L1922 1884.82C1922 1870.75 1935.98 1861.33 1949.01 1866.62L2045.2 1905.65C2064.48 1913.47 2077.21 1932.4 2077.21 1953.22L2077.21 2062.46C2077.21 2076.54 2063.23 2085.96 2050.2 2080.67L1954.01 2041.61Z" fill="#43BCD8"/>
<path d="M2092.07 1957.89C2092.07 1936.61 2105.39 1917.36 2125.3 1909.86L2226.65 1871.69C2239.61 1866.81 2253.2 1876.21 2253.2 1890.06L2253.2 1997.45C2253.2 2018.73 2239.87 2037.99 2219.95 2045.48L2118.61 2083.61C2105.65 2088.49 2092.07 2079.08 2092.07 2065.24L2092.07 1957.89Z" fill="#2E93AB"/>
<path d="M2108.89 1900.11C2096.51 1904.77 2082.75 1904.59 2070.52 1899.6L1966.4 1857.09C1957.98 1853.65 1958.18 1842.08 1966.71 1838.89L2074.89 1798.51C2087.17 1793.93 2100.82 1794.11 2112.95 1799.02L2217.19 1841.21C2225.62 1844.62 2225.46 1856.19 2216.94 1859.4L2108.89 1900.11Z" fill="#1B7488"/>
<path d="M1604.03 2041.61C1584.75 2033.78 1572.02 2014.86 1572.02 1994.05L1572.02 1884.82C1572.02 1870.75 1586 1861.33 1599.03 1866.62L1695.21 1905.65C1714.5 1913.47 1727.23 1932.4 1727.23 1953.22L1727.23 2062.46C1727.23 2076.54 1713.25 2085.96 1700.22 2080.67L1604.03 2041.61Z" fill="#43BCD8"/>
<path d="M1742.09 1957.89C1742.09 1936.61 1755.41 1917.36 1775.32 1909.86L1876.67 1871.69C1889.63 1866.81 1903.21 1876.21 1903.21 1890.06L1903.21 1997.45C1903.21 2018.73 1889.89 2037.99 1869.97 2045.48L1768.63 2083.61C1755.67 2088.49 1742.09 2079.08 1742.09 2065.24L1742.09 1957.89Z" fill="#2E93AB"/>
<path d="M1758.91 1900.11C1746.53 1904.77 1732.76 1904.59 1720.54 1899.6L1616.42 1857.09C1608 1853.65 1608.2 1842.08 1616.73 1838.89L1724.9 1798.51C1737.19 1793.93 1750.84 1794.11 1762.97 1799.02L1867.21 1841.21C1875.64 1844.62 1875.48 1856.19 1866.96 1859.4L1758.91 1900.11Z" fill="#1B7488"/>
<path d="M1253.06 2041.61C1233.78 2033.78 1221.05 2014.86 1221.05 1994.05L1221.05 1884.82C1221.05 1870.75 1235.03 1861.33 1248.06 1866.62L1344.24 1905.65C1363.53 1913.47 1376.26 1932.4 1376.26 1953.22L1376.26 2062.46C1376.26 2076.54 1362.28 2085.96 1349.25 2080.67L1253.06 2041.61Z" fill="#43BCD8"/>
<path d="M1391.12 1957.89C1391.12 1936.61 1404.44 1917.36 1424.35 1909.86L1525.7 1871.69C1538.66 1866.81 1552.24 1876.21 1552.24 1890.06L1552.24 1997.45C1552.24 2018.73 1538.92 2037.99 1519 2045.48L1417.66 2083.61C1404.7 2088.49 1391.12 2079.08 1391.12 2065.24L1391.12 1957.89Z" fill="#2E93AB"/>
<path d="M1407.94 1900.11C1395.56 1904.77 1381.79 1904.59 1369.57 1899.6L1265.45 1857.09C1257.03 1853.65 1257.23 1842.08 1265.76 1838.89L1373.93 1798.51C1386.22 1793.93 1399.87 1794.11 1412 1799.02L1516.24 1841.21C1524.67 1844.62 1524.51 1856.19 1515.99 1859.4L1407.94 1900.11Z" fill="#1B7488"/>
<path d="M903.076 2041.61C883.799 2033.78 871.066 2014.86 871.066 1994.05L871.066 1884.82C871.066 1870.75 885.046 1861.33 898.08 1866.62L994.264 1905.65C1013.55 1913.47 1026.28 1932.4 1026.28 1953.22L1026.28 2062.46C1026.28 2076.54 1012.3 2085.96 999.266 2080.67L903.076 2041.61Z" fill="#43BCD8"/>
<path d="M1041.14 1957.89C1041.14 1936.61 1054.46 1917.36 1074.37 1909.86L1175.72 1871.69C1188.68 1866.81 1202.26 1876.21 1202.26 1890.06L1202.26 1997.45C1202.26 2018.73 1188.94 2037.99 1169.02 2045.48L1067.68 2083.61C1054.72 2088.49 1041.14 2079.08 1041.14 2065.24L1041.14 1957.89Z" fill="#2E93AB"/>
<path d="M1057.96 1900.11C1045.58 1904.77 1031.81 1904.59 1019.59 1899.6L915.465 1857.09C907.047 1853.65 907.249 1842.08 915.782 1838.89L1023.95 1798.51C1036.24 1793.93 1049.88 1794.11 1062.02 1799.02L1166.26 1841.21C1174.69 1844.62 1174.53 1856.19 1166 1859.4L1057.96 1900.11Z" fill="#1B7488"/>
<path d="M552.107 2041.61C532.83 2033.78 520.097 2014.86 520.097 1994.05L520.097 1884.82C520.097 1870.75 534.076 1861.33 547.111 1866.62L643.295 1905.65C662.577 1913.47 675.314 1932.4 675.314 1953.22L675.314 2062.46C675.314 2076.54 661.332 2085.96 648.297 2080.67L552.107 2041.61Z" fill="#43BCD8"/>
<path d="M690.168 1957.89C690.168 1936.61 703.486 1917.36 723.4 1909.86L824.747 1871.69C837.707 1866.81 851.294 1876.21 851.294 1890.06L851.294 1997.45C851.294 2018.73 837.969 2037.99 818.048 2045.48L716.709 2083.61C703.75 2088.49 690.168 2079.08 690.168 2065.24L690.168 1957.89Z" fill="#2E93AB"/>
<path d="M706.987 1900.11C694.612 1904.77 680.845 1904.59 668.622 1899.6L564.496 1857.09C556.078 1853.65 556.279 1842.08 564.813 1838.89L672.984 1798.51C685.271 1793.93 698.916 1794.11 711.052 1799.02L815.293 1841.21C823.723 1844.62 823.559 1856.19 815.036 1859.4L706.987 1900.11Z" fill="#1B7488"/>
<path d="M202.127 2041.61C182.85 2033.78 170.116 2014.86 170.117 1994.05L170.117 1884.82C170.117 1870.75 184.096 1861.33 197.131 1866.62L293.314 1905.65C312.596 1913.47 325.334 1932.4 325.334 1953.22L325.334 2062.46C325.334 2076.54 311.351 2085.96 298.316 2080.67L202.127 2041.61Z" fill="#43BCD8"/>
<path d="M340.187 1957.89C340.187 1936.61 353.505 1917.36 373.419 1909.86L474.766 1871.69C487.726 1866.81 501.313 1876.21 501.313 1890.06L501.313 1997.45C501.313 2018.73 487.988 2037.99 468.067 2045.48L366.728 2083.61C353.769 2088.49 340.187 2079.08 340.187 2065.24L340.187 1957.89Z" fill="#2E93AB"/>
<path d="M357.006 1900.11C344.631 1904.77 330.864 1904.59 318.642 1899.6L214.515 1857.09C206.097 1853.65 206.299 1842.08 214.832 1838.89L323.004 1798.51C335.29 1793.93 348.935 1794.11 361.072 1799.02L465.313 1841.21C473.742 1844.62 473.578 1856.19 465.055 1859.4L357.006 1900.11Z" fill="#1B7488"/>
<path d="M-6.96415 419.188C-6.96415 397.906 6.35371 378.657 26.2673 371.158L127.615 332.988C140.574 328.107 154.161 337.511 154.161 351.361L154.161 458.746C154.161 480.033 140.836 499.286 120.915 506.782L19.5766 544.912C6.61805 549.788 -6.96415 540.384 -6.96415 526.537L-6.96415 419.188Z" fill="#2E93AB"/>
<path d="M9.68058 361.474C-2.59142 366.097 -16.2373 365.956 -28.3901 361.081L-133.076 319.083C-141.529 315.692 -141.385 304.095 -132.85 300.877L-24.2185 259.911C-11.8918 255.263 1.82053 255.422 14.0131 260.357L118.16 302.505C126.589 305.916 126.426 317.49 117.902 320.701L9.68058 361.474Z" fill="#1B7488"/>
<path d="M-7.94364 932.155C-7.94364 910.873 5.37422 891.624 25.2878 884.124L126.635 845.955C139.595 841.074 153.182 850.478 153.182 864.328L153.182 971.712C153.182 993 139.857 1012.25 119.936 1019.75L18.5971 1057.88C5.63855 1062.75 -7.94364 1053.35 -7.94364 1039.5L-7.94364 932.155Z" fill="#2E93AB"/>
<path d="M8.87525 874.376C-3.4994 879.038 -17.2666 878.854 -29.4888 873.864L-133.615 831.351C-142.034 827.914 -141.832 816.342 -133.298 813.156L-25.1269 772.778C-12.8405 768.192 0.804322 768.374 12.9408 773.285L117.182 815.472C125.611 818.883 125.448 830.457 116.924 833.668L8.87525 874.376Z" fill="#1B7488"/>
<path d="M-10.8797 1445.02C-10.8797 1423.74 2.43818 1404.49 22.3518 1396.99L123.699 1358.82C136.659 1353.94 150.246 1363.35 150.246 1377.2L150.246 1484.58C150.246 1505.87 136.921 1525.12 117 1532.62L15.6611 1570.75C2.70252 1575.62 -10.8797 1566.22 -10.8797 1552.37L-10.8797 1445.02Z" fill="#2E93AB"/>
<path d="M5.93872 1387.24C-6.43592 1391.91 -20.2032 1391.72 -32.4254 1386.73L-136.552 1344.22C-144.97 1340.78 -144.768 1329.21 -136.235 1326.02L-28.0634 1285.65C-15.777 1281.06 -2.1322 1281.24 10.0043 1286.15L114.246 1328.34C122.675 1331.75 122.511 1343.32 113.988 1346.54L5.93872 1387.24Z" fill="#1B7488"/>
<path d="M-10.8797 1957.89C-10.8797 1936.61 2.43818 1917.36 22.3518 1909.86L123.699 1871.69C136.659 1866.81 150.246 1876.21 150.246 1890.06L150.246 1997.45C150.246 2018.73 136.921 2037.99 117 2045.48L15.6611 2083.61C2.70252 2088.49 -10.8797 2079.08 -10.8797 2065.24L-10.8797 1957.89Z" fill="#2E93AB"/>
<path d="M5.93872 1900.11C-6.43592 1904.77 -20.2032 1904.59 -32.4254 1899.6L-136.552 1857.09C-144.97 1853.65 -144.768 1842.08 -136.235 1838.89L-28.0634 1798.51C-15.777 1793.93 -2.1322 1794.11 10.0043 1799.02L114.246 1841.21C122.675 1844.62 122.511 1856.19 113.988 1859.4L5.93872 1900.11Z" fill="#1B7488"/>
</g>
<defs>
<clipPath id="clip0_128_2">
<rect width="3840" height="2160" fill="white"/>
</clipPath>
</defs>
</svg>
