<svg width="1032" height="1032" viewBox="0 0 1032 1032" fill="none" xmlns="http://www.w3.org/2000/svg">
<g filter="url(#filter0_d_175_2)">
<rect x="4" width="1024" height="1024" rx="180" fill="white"/>
</g>
<path d="M388.934 542.287C376.803 524.763 376.763 501.283 388.833 483.715L626.042 138.463C633.903 127.022 650.422 127.022 658.283 138.463L895.493 483.715C907.563 501.283 907.523 524.763 895.392 542.287L658.243 884.864C650.377 896.227 633.949 896.227 626.083 884.864L388.934 542.287Z" fill="#005F75"/>
<path d="M388.934 542.287C376.803 524.763 376.763 501.283 388.833 483.715L626.042 138.463C633.903 127.022 650.422 127.022 658.283 138.463L895.493 483.715C907.563 501.283 907.523 524.763 895.392 542.287L658.243 884.864C650.377 896.227 633.949 896.227 626.083 884.864L388.934 542.287Z" fill="#2E93AB"/>
<path d="M136.806 542.482C124.677 524.956 124.637 501.472 136.705 483.902L373.841 138.657C381.701 127.214 398.218 127.214 406.078 138.657L643.215 483.902C655.283 501.472 655.243 524.956 643.114 542.482L406.037 885.052C398.173 896.417 381.747 896.416 373.882 885.052L136.806 542.482Z" fill="#43BCD8"/>
<path d="M570.5 804.5L516.193 726.283L605.894 596.919L570.5 804.5Z" fill="#1B7488"/>
<defs>
<filter id="filter0_d_175_2" x="0" y="0" width="1032" height="1032" filterUnits="userSpaceOnUse" color-interpolation-filters="sRGB">
<feFlood flood-opacity="0" result="BackgroundImageFix"/>
<feColorMatrix in="SourceAlpha" type="matrix" values="0 0 0 0 0 0 0 0 0 0 0 0 0 0 0 0 0 0 127 0" result="hardAlpha"/>
<feOffset dy="4"/>
<feGaussianBlur stdDeviation="2"/>
<feComposite in2="hardAlpha" operator="out"/>
<feColorMatrix type="matrix" values="0 0 0 0 0 0 0 0 0 0 0 0 0 0 0 0 0 0 0.25 0"/>
<feBlend mode="normal" in2="BackgroundImageFix" result="effect1_dropShadow_175_2"/>
<feBlend mode="normal" in="SourceGraphic" in2="effect1_dropShadow_175_2" result="shape"/>
</filter>
</defs>
</svg>
